<svg xmlns="http://www.w3.org/2000/svg" xmlns:xlink="http://www.w3.org/1999/xlink" width="50" zoomAndPan="magnify" viewBox="0 0 37.5 37.499999" height="50" preserveAspectRatio="xMidYMid meet" version="1.0"><defs><clipPath id="f73d5bb559"><path d="M 14.175781 14 L 37.007812 14 L 37.007812 32 L 14.175781 32 Z M 14.175781 14 " clip-rule="nonzero"/></clipPath><clipPath id="32e0dc8911"><path d="M 14.175781 10 L 37.007812 10 L 37.007812 32 L 14.175781 32 Z M 14.175781 10 " clip-rule="nonzero"/></clipPath><clipPath id="fe73d1650b"><path d="M 14.175781 21 L 23 21 L 23 36 L 14.175781 36 Z M 14.175781 21 " clip-rule="nonzero"/></clipPath><clipPath id="a3e59870e6"><path d="M 14.175781 23 L 23 23 L 23 36 L 14.175781 36 Z M 14.175781 23 " clip-rule="nonzero"/></clipPath><clipPath id="032154be55"><path d="M 14.175781 20 L 37.007812 20 L 37.007812 33 L 14.175781 33 Z M 14.175781 20 " clip-rule="nonzero"/></clipPath><clipPath id="7ef1e4e000"><path d="M 34 12 L 37.007812 12 L 37.007812 29 L 34 29 Z M 34 12 " clip-rule="nonzero"/></clipPath><clipPath id="20758e8dad"><path d="M 14.175781 20 L 33 20 L 33 29 L 14.175781 29 Z M 14.175781 20 " clip-rule="nonzero"/></clipPath><clipPath id="5c235de36f"><path d="M 16 34 L 19 34 L 19 36.238281 L 16 36.238281 Z M 16 34 " clip-rule="nonzero"/></clipPath><clipPath id="120288495f"><path d="M 14.175781 24 L 17 24 L 17 26 L 14.175781 26 Z M 14.175781 24 " clip-rule="nonzero"/></clipPath><clipPath id="30ddeefddf"><path d="M 0 1 L 30 1 L 30 34.566406 L 0 34.566406 Z M 0 1 " clip-rule="nonzero"/></clipPath></defs><g clip-path="url(#f73d5bb559)"><path fill="#4c77f6" d="M 94.792969 31.363281 L 92.238281 26.773438 L 86.820312 29.085938 L 86.164062 24.421875 L 76.945312 17.421875 L 67.320312 26.90625 L 67.285156 26.898438 L 48.484375 22.554688 L 48.472656 22.542969 L 45.835938 20.070312 L 40.523438 21.46875 L 43.5625 24.011719 L 41.132812 28.867188 L 34.195312 24.925781 L 34.203125 24.878906 L 35.875 15.144531 L 32.566406 20.585938 L 25.886719 17.28125 L 28.875 21.9375 L 23.265625 31.335938 L 15.402344 21.667969 L 11.386719 24.40625 L 11.3125 24.296875 L 15.429688 21.492188 L 23.25 31.109375 L 28.722656 21.941406 L 25.523438 16.957031 L 32.515625 20.414062 L 36.117188 14.488281 L 34.339844 24.855469 L 41.078125 28.683594 L 43.398438 24.042969 L 40.246094 21.40625 L 45.871094 19.925781 L 48.546875 22.433594 L 67.277344 26.761719 L 76.933594 17.25 L 76.980469 17.28125 L 86.285156 24.351562 L 86.925781 28.898438 L 92.296875 26.605469 L 94.78125 31.082031 L 100.894531 18.355469 L 103.648438 22.394531 L 110.644531 15.917969 L 110.734375 16.015625 L 103.625 22.59375 L 100.914062 18.617188 Z M 94.792969 31.363281 " fill-opacity="1" fill-rule="nonzero"/></g><g clip-path="url(#32e0dc8911)"><path fill="#4c77f6" d="M 23.273438 31.304688 L 23.226562 31.28125 L 12.003906 25.308594 L 12.0625 25.191406 L 23.242188 31.140625 L 27.179688 26.632812 L 27.199219 26.625 L 34.230469 24.832031 L 36.183594 22.007812 L 36.230469 22.019531 L 43.449219 23.949219 L 45.816406 19.929688 L 45.855469 19.933594 L 64.253906 20.148438 L 75.726562 10.691406 L 83.246094 20.378906 L 92.265625 26.609375 L 108.992188 12.894531 L 109.078125 12.996094 L 92.273438 26.769531 L 83.15625 20.476562 L 83.148438 20.46875 L 75.707031 10.878906 L 64.300781 20.277344 L 45.890625 20.0625 L 43.511719 24.101562 L 43.460938 24.089844 L 36.238281 22.160156 L 34.308594 24.949219 L 27.253906 26.746094 Z M 23.273438 31.304688 " fill-opacity="1" fill-rule="nonzero"/></g><g clip-path="url(#fe73d1650b)"><path fill="#4c77f6" d="M 17.53125 35.90625 L 13.878906 27.398438 L 14 27.347656 L 17.546875 35.609375 L 20.605469 30.046875 L 21.921875 24.609375 L 13.054688 21.390625 L 13.097656 21.265625 L 22.078125 24.523438 L 20.730469 30.09375 L 20.726562 30.101562 Z M 17.53125 35.90625 " fill-opacity="1" fill-rule="nonzero"/></g><g clip-path="url(#a3e59870e6)"><path fill="#4c77f6" d="M 17.515625 35.988281 L 15.4375 25.34375 L 13.515625 25.601562 L 13.5 25.472656 L 15.371094 25.21875 L 14.144531 23.890625 L 14.238281 23.800781 L 15.527344 25.199219 L 22.101562 24.308594 Z M 15.566406 25.324219 L 17.558594 35.523438 L 21.898438 24.464844 Z M 15.566406 25.324219 " fill-opacity="1" fill-rule="nonzero"/></g><g clip-path="url(#032154be55)"><path fill="#4c77f6" d="M 27.0625 32.753906 L 26.960938 32.679688 L 12.316406 21.777344 L 12.394531 21.671875 L 26.941406 32.5 L 27.152344 26.679688 L 28.652344 22.027344 L 34.144531 24.757812 L 32.421875 20.378906 L 36.253906 22.03125 L 41.015625 28.542969 L 40.320312 21.441406 L 40.449219 21.429688 L 41.191406 29.007812 L 36.167969 22.136719 L 32.660156 20.625 L 34.390625 25.023438 L 28.730469 22.210938 L 27.28125 26.699219 Z M 27.0625 32.753906 " fill-opacity="1" fill-rule="nonzero"/></g><g clip-path="url(#7ef1e4e000)"><path fill="#4c77f6" d="M 44.457031 28.0625 L 43.429688 24.097656 L 34 24.980469 L 40.117188 21.167969 L 36.226562 22.148438 L 36.195312 22.019531 L 40.894531 20.839844 L 34.539062 24.800781 L 43.527344 23.957031 L 44.515625 27.765625 L 48.460938 22.457031 L 53.722656 12.5625 L 53.785156 12.605469 L 64.289062 20.144531 L 76.945312 17.265625 L 76.960938 17.273438 L 90.972656 22.085938 L 100.890625 18.421875 L 100.902344 18.421875 L 105.601562 18.203125 L 105.609375 18.335938 L 100.917969 18.550781 L 90.972656 22.226562 L 76.9375 17.402344 L 64.261719 20.285156 L 53.769531 12.753906 L 48.570312 22.527344 L 48.570312 22.53125 Z M 44.457031 28.0625 " fill-opacity="1" fill-rule="nonzero"/></g><g clip-path="url(#20758e8dad)"><path fill="#4c77f6" d="M 25.84375 28.363281 L 25.742188 28.28125 L 27.023438 26.730469 L 12.023438 24.847656 L 12.042969 24.71875 L 26.78125 26.570312 L 21.820312 24.378906 L 28.667969 22.058594 L 32.679688 20.09375 L 27.265625 26.640625 L 27.652344 26.808594 L 27.175781 26.75 Z M 22.179688 24.394531 L 27.140625 26.585938 L 32.191406 20.476562 L 28.71875 22.179688 L 28.714844 22.183594 Z M 22.179688 24.394531 " fill-opacity="1" fill-rule="nonzero"/></g><path fill="#4c77f6" d="M 16.636719 21.941406 C 16.636719 22.144531 16.566406 22.320312 16.421875 22.464844 C 16.277344 22.609375 16.101562 22.683594 15.894531 22.683594 C 15.691406 22.683594 15.515625 22.609375 15.371094 22.464844 C 15.222656 22.320312 15.152344 22.144531 15.152344 21.941406 C 15.152344 21.734375 15.222656 21.558594 15.371094 21.414062 C 15.515625 21.269531 15.691406 21.195312 15.894531 21.195312 C 16.101562 21.195312 16.277344 21.269531 16.421875 21.414062 C 16.566406 21.558594 16.636719 21.734375 16.636719 21.941406 Z M 16.636719 21.941406 " fill-opacity="1" fill-rule="nonzero"/><g clip-path="url(#5c235de36f)"><path fill="#4c77f6" d="M 18.222656 35.589844 C 18.222656 35.765625 18.160156 35.917969 18.03125 36.046875 C 17.90625 36.171875 17.753906 36.234375 17.574219 36.234375 C 17.394531 36.234375 17.242188 36.171875 17.117188 36.046875 C 16.988281 35.917969 16.925781 35.765625 16.925781 35.589844 C 16.925781 35.410156 16.988281 35.257812 17.117188 35.128906 C 17.242188 35.003906 17.394531 34.941406 17.574219 34.941406 C 17.753906 34.941406 17.90625 35.003906 18.03125 35.128906 C 18.160156 35.257812 18.222656 35.410156 18.222656 35.589844 Z M 18.222656 35.589844 " fill-opacity="1" fill-rule="nonzero"/></g><g clip-path="url(#120288495f)"><path fill="#4c77f6" d="M 16.085938 25.242188 C 16.085938 25.394531 16.03125 25.527344 15.921875 25.640625 C 15.808594 25.75 15.675781 25.804688 15.523438 25.804688 C 15.367188 25.804688 15.234375 25.75 15.125 25.640625 C 15.011719 25.527344 14.957031 25.394531 14.957031 25.242188 C 14.957031 25.085938 15.011719 24.953125 15.125 24.84375 C 15.234375 24.730469 15.367188 24.675781 15.523438 24.675781 C 15.675781 24.675781 15.808594 24.730469 15.921875 24.84375 C 16.03125 24.953125 16.085938 25.085938 16.085938 25.242188 Z M 16.085938 25.242188 " fill-opacity="1" fill-rule="nonzero"/></g><path fill="#4c77f6" d="M 21.316406 30.023438 C 21.316406 30.234375 21.242188 30.417969 21.089844 30.566406 C 20.941406 30.714844 20.761719 30.792969 20.546875 30.792969 C 20.335938 30.792969 20.15625 30.714844 20.003906 30.566406 C 19.855469 30.417969 19.78125 30.234375 19.78125 30.023438 C 19.78125 29.8125 19.855469 29.628906 20.003906 29.480469 C 20.15625 29.332031 20.335938 29.257812 20.546875 29.257812 C 20.761719 29.257812 20.941406 29.332031 21.089844 29.480469 C 21.242188 29.628906 21.316406 29.8125 21.316406 30.023438 Z M 21.316406 30.023438 " fill-opacity="1" fill-rule="nonzero"/><path fill="#4c77f6" d="M 23.765625 31.09375 C 23.765625 31.269531 23.703125 31.421875 23.582031 31.542969 C 23.457031 31.667969 23.304688 31.730469 23.128906 31.730469 C 22.957031 31.730469 22.804688 31.667969 22.679688 31.542969 C 22.558594 31.421875 22.496094 31.269531 22.496094 31.09375 C 22.496094 30.917969 22.558594 30.769531 22.679688 30.644531 C 22.804688 30.523438 22.957031 30.460938 23.128906 30.460938 C 23.304688 30.460938 23.457031 30.523438 23.582031 30.644531 C 23.703125 30.769531 23.765625 30.917969 23.765625 31.09375 Z M 23.765625 31.09375 " fill-opacity="1" fill-rule="nonzero"/><path fill="#4c77f6" d="M 22.945312 24.589844 C 22.945312 24.722656 22.921875 24.851562 22.871094 24.972656 C 22.820312 25.09375 22.75 25.203125 22.65625 25.292969 C 22.5625 25.386719 22.453125 25.460938 22.332031 25.511719 C 22.210938 25.5625 22.082031 25.585938 21.953125 25.585938 C 21.820312 25.585938 21.691406 25.5625 21.570312 25.511719 C 21.449219 25.460938 21.339844 25.386719 21.246094 25.292969 C 21.15625 25.199219 21.082031 25.09375 21.03125 24.972656 C 20.980469 24.851562 20.957031 24.722656 20.957031 24.589844 C 20.957031 24.457031 20.980469 24.332031 21.03125 24.210938 C 21.082031 24.085938 21.15625 23.980469 21.246094 23.886719 C 21.339844 23.792969 21.449219 23.722656 21.570312 23.671875 C 21.691406 23.621094 21.820312 23.59375 21.953125 23.59375 C 22.082031 23.59375 22.210938 23.621094 22.332031 23.671875 C 22.453125 23.722656 22.5625 23.792969 22.65625 23.886719 C 22.75 23.980469 22.820312 24.085938 22.871094 24.210938 C 22.921875 24.332031 22.945312 24.457031 22.945312 24.589844 Z M 22.945312 24.589844 " fill-opacity="1" fill-rule="nonzero"/><path fill="#4c77f6" d="M 27.816406 26.84375 C 27.816406 27.015625 27.757812 27.160156 27.636719 27.277344 C 27.519531 27.398438 27.375 27.457031 27.203125 27.457031 C 27.035156 27.457031 26.890625 27.398438 26.773438 27.277344 C 26.652344 27.160156 26.59375 27.015625 26.59375 26.84375 C 26.59375 26.675781 26.652344 26.53125 26.773438 26.414062 C 26.890625 26.292969 27.035156 26.234375 27.203125 26.234375 C 27.375 26.234375 27.519531 26.292969 27.636719 26.414062 C 27.757812 26.53125 27.816406 26.675781 27.816406 26.84375 Z M 27.816406 26.84375 " fill-opacity="1" fill-rule="nonzero"/><path fill="#4c77f6" d="M 29.339844 22.007812 C 29.339844 22.191406 29.273438 22.351562 29.140625 22.484375 C 29.007812 22.617188 28.847656 22.683594 28.660156 22.683594 C 28.476562 22.683594 28.316406 22.617188 28.183594 22.484375 C 28.050781 22.351562 27.984375 22.191406 27.984375 22.007812 C 27.984375 21.820312 28.050781 21.660156 28.183594 21.527344 C 28.316406 21.394531 28.476562 21.328125 28.660156 21.328125 C 28.847656 21.328125 29.007812 21.394531 29.140625 21.527344 C 29.273438 21.660156 29.339844 21.820312 29.339844 22.007812 Z M 29.339844 22.007812 " fill-opacity="1" fill-rule="nonzero"/><path fill="#4c77f6" d="M 33.117188 20.332031 C 33.117188 20.519531 33.050781 20.675781 32.921875 20.808594 C 32.789062 20.9375 32.632812 21.003906 32.445312 21.003906 C 32.261719 21.003906 32.101562 20.9375 31.972656 20.808594 C 31.839844 20.675781 31.773438 20.519531 31.773438 20.332031 C 31.773438 20.148438 31.839844 19.988281 31.972656 19.859375 C 32.101562 19.726562 32.261719 19.660156 32.445312 19.660156 C 32.632812 19.660156 32.789062 19.726562 32.921875 19.859375 C 33.050781 19.988281 33.117188 20.148438 33.117188 20.332031 Z M 33.117188 20.332031 " fill-opacity="1" fill-rule="nonzero"/><path fill="#4c77f6" d="M 35.324219 24.699219 C 35.324219 24.847656 35.296875 24.988281 35.242188 25.121094 C 35.1875 25.257812 35.105469 25.375 35.003906 25.480469 C 34.898438 25.582031 34.78125 25.664062 34.644531 25.71875 C 34.507812 25.777344 34.367188 25.804688 34.222656 25.804688 C 34.074219 25.804688 33.933594 25.777344 33.800781 25.71875 C 33.664062 25.664062 33.542969 25.582031 33.441406 25.480469 C 33.335938 25.375 33.257812 25.257812 33.203125 25.121094 C 33.144531 24.988281 33.117188 24.847656 33.117188 24.699219 C 33.117188 24.554688 33.144531 24.414062 33.203125 24.277344 C 33.257812 24.140625 33.335938 24.023438 33.441406 23.917969 C 33.542969 23.816406 33.664062 23.734375 33.800781 23.679688 C 33.933594 23.625 34.074219 23.59375 34.222656 23.59375 C 34.367188 23.59375 34.507812 23.625 34.644531 23.679688 C 34.78125 23.734375 34.898438 23.816406 35.003906 23.917969 C 35.105469 24.023438 35.1875 24.140625 35.242188 24.277344 C 35.296875 24.414062 35.324219 24.554688 35.324219 24.699219 Z M 35.324219 24.699219 " fill-opacity="1" fill-rule="nonzero"/><path fill="#4c77f6" d="M 26.140625 17.164062 C 26.140625 17.324219 26.082031 17.460938 25.972656 17.570312 C 25.859375 17.683594 25.722656 17.742188 25.5625 17.742188 C 25.40625 17.742188 25.269531 17.683594 25.15625 17.570312 C 25.042969 17.460938 24.988281 17.324219 24.988281 17.164062 C 24.988281 17.003906 25.042969 16.871094 25.15625 16.757812 C 25.269531 16.644531 25.40625 16.589844 25.5625 16.589844 C 25.722656 16.589844 25.859375 16.644531 25.972656 16.757812 C 26.082031 16.871094 26.140625 17.003906 26.140625 17.164062 Z M 26.140625 17.164062 " fill-opacity="1" fill-rule="nonzero"/><path fill="#4c77f6" d="M 36.59375 14.851562 C 36.59375 14.996094 36.546875 15.117188 36.445312 15.214844 C 36.34375 15.316406 36.222656 15.367188 36.078125 15.367188 C 35.9375 15.367188 35.816406 15.316406 35.714844 15.214844 C 35.613281 15.117188 35.5625 14.996094 35.5625 14.851562 C 35.5625 14.710938 35.613281 14.589844 35.714844 14.488281 C 35.816406 14.386719 35.9375 14.335938 36.078125 14.335938 C 36.222656 14.335938 36.34375 14.386719 36.445312 14.488281 C 36.546875 14.589844 36.59375 14.710938 36.59375 14.851562 Z M 36.59375 14.851562 " fill-opacity="1" fill-rule="nonzero"/><path fill="#4c77f6" d="M 36.761719 22.121094 C 36.761719 22.25 36.71875 22.359375 36.625 22.449219 C 36.535156 22.542969 36.425781 22.585938 36.296875 22.585938 C 36.167969 22.585938 36.054688 22.542969 35.964844 22.449219 C 35.875 22.359375 35.828125 22.25 35.828125 22.121094 C 35.828125 21.992188 35.875 21.878906 35.964844 21.789062 C 36.054688 21.699219 36.167969 21.652344 36.296875 21.652344 C 36.425781 21.652344 36.535156 21.699219 36.625 21.789062 C 36.71875 21.878906 36.761719 21.992188 36.761719 22.121094 Z M 36.761719 22.121094 " fill-opacity="1" fill-rule="nonzero"/><path fill="#ffbd59" d="M 10.664062 30.546875 C 7.667969 22.324219 16.773438 12.183594 25.628906 14.789062 C 26.933594 15.175781 28.097656 15.289062 28.460938 14.34375 C 28.753906 13.585938 31.171875 14.332031 30.667969 13.601562 C 30.0625 12.722656 27.257812 11.882812 25.984375 11.671875 C 15.292969 9.917969 6.316406 20.960938 10.664062 30.546875 Z M 10.664062 30.546875 " fill-opacity="1" fill-rule="evenodd"/><g clip-path="url(#30ddeefddf)"><path fill="#ffbd59" d="M 8.867188 21.984375 C 7.09375 22.144531 5.992188 21.242188 4.714844 20.621094 C 1.144531 18.878906 -2.863281 21.167969 3.890625 22.464844 C 6.324219 22.929688 9.050781 23.039062 8.867188 21.984375 Z M 9.273438 29.636719 C 7.816406 30.660156 6.527344 30.707031 5.273438 31.070312 C 1.980469 32.023438 -0.453125 36.238281 5.308594 32.796875 C 7.832031 31.289062 9.988281 29.839844 9.273438 29.636719 Z M 26.414062 10.574219 C 26.257812 8.800781 27.472656 7.660156 28.34375 6.324219 C 30.503906 3.015625 29.761719 -0.898438 26.71875 5.566406 C 25.738281 7.652344 24.902344 9.964844 26.414062 10.574219 Z M 18.414062 10.535156 C 17.476562 9.125 18.707031 7.328125 18.921875 5.863281 C 19.535156 1.742188 17.324219 -2.191406 16.792969 5.464844 C 16.597656 8.316406 17.25 10.425781 18.414062 10.535156 Z M 12.34375 15.15625 C 11.304688 14.460938 10.523438 12.828125 9.316406 11.292969 C 5.996094 7.078125 1.382812 6.875 7.507812 12.105469 C 10.34375 14.523438 11.34375 15.640625 12.34375 15.15625 Z M 12.34375 15.15625 " fill-opacity="1" fill-rule="evenodd"/></g><path fill="#e3e2e3" d="M 12.746094 20.832031 C 11.167969 23.226562 10.496094 25.933594 10.664062 28.5 C 10.773438 26.105469 11.550781 23.617188 13.039062 21.363281 C 15.359375 17.847656 18.875 15.695312 22.398438 15.246094 C 18.734375 15.359375 15.050781 17.339844 12.746094 20.832031 Z M 12.746094 20.832031 " fill-opacity="1" fill-rule="evenodd"/></svg>