<svg xmlns="http://www.w3.org/2000/svg" xmlns:xlink="http://www.w3.org/1999/xlink" width="500" zoomAndPan="magnify" viewBox="0 0 375 149.999998" height="200" preserveAspectRatio="xMidYMid meet" version="1.0"><defs><clipPath id="fdb945155b"><path d="M 60.269531 59 L 363.96875 59 L 363.96875 117 L 60.269531 117 Z M 60.269531 59 " clip-rule="nonzero"/></clipPath><clipPath id="598f6f2f33"><path d="M 60.269531 46 L 363.96875 46 L 363.96875 117 L 60.269531 117 Z M 60.269531 46 " clip-rule="nonzero"/></clipPath><clipPath id="dd120ca1cd"><path d="M 60.269531 82 L 88 82 L 88 132 L 60.269531 132 Z M 60.269531 82 " clip-rule="nonzero"/></clipPath><clipPath id="217105a7f7"><path d="M 60.269531 90 L 88 90 L 88 133 L 60.269531 133 Z M 60.269531 90 " clip-rule="nonzero"/></clipPath><clipPath id="24d20df186"><path d="M 60.269531 79 L 152 79 L 152 122 L 60.269531 122 Z M 60.269531 79 " clip-rule="nonzero"/></clipPath><clipPath id="9c3d9031a1"><path d="M 127 52 L 363.96875 52 L 363.96875 106 L 127 106 Z M 127 52 " clip-rule="nonzero"/></clipPath><clipPath id="2b7454ceb1"><path d="M 60.269531 78 L 124 78 L 124 107 L 60.269531 107 Z M 60.269531 78 " clip-rule="nonzero"/></clipPath><clipPath id="dd9665282d"><path d="M 240 45 L 363.96875 45 L 363.96875 110 L 240 110 Z M 240 45 " clip-rule="nonzero"/></clipPath><clipPath id="3e5de1b902"><path d="M 354 71 L 363.96875 71 L 363.96875 78 L 354 78 Z M 354 71 " clip-rule="nonzero"/></clipPath><clipPath id="6216505ed4"><path d="M 362 63 L 363.96875 63 L 363.96875 87 L 362 87 Z M 362 63 " clip-rule="nonzero"/></clipPath><clipPath id="ba4e6793b4"><path d="M 262 40.292969 L 266 40.292969 L 266 44 L 262 44 Z M 262 40.292969 " clip-rule="nonzero"/></clipPath><clipPath id="8ced8f68d4"><path d="M 361 84 L 363.96875 84 L 363.96875 88 L 361 88 Z M 361 84 " clip-rule="nonzero"/></clipPath></defs><g clip-path="url(#fdb945155b)"><path fill="#4c77f6" d="M 333.699219 116.433594 L 325.046875 100.859375 L 306.65625 108.703125 L 304.433594 92.886719 L 273.175781 69.140625 L 240.519531 101.308594 L 240.402344 101.28125 L 176.640625 86.546875 L 176.597656 86.507812 L 167.65625 78.125 L 149.640625 82.863281 L 159.941406 91.488281 L 151.703125 107.960938 L 128.175781 94.589844 L 128.203125 94.4375 L 133.863281 61.417969 L 122.648438 79.875 L 99.996094 68.667969 L 110.132812 84.464844 L 91.109375 116.339844 L 64.433594 83.546875 L 50.8125 92.828125 L 50.5625 92.460938 L 64.519531 82.949219 L 91.050781 115.566406 L 109.613281 84.472656 L 98.757812 67.5625 L 122.480469 79.296875 L 134.695312 59.195312 L 128.667969 94.359375 L 151.515625 107.347656 L 159.386719 91.601562 L 148.695312 82.65625 L 167.78125 77.632812 L 176.855469 86.144531 L 240.382812 100.820312 L 273.136719 68.554688 L 273.289062 68.671875 L 304.847656 92.644531 L 307.015625 108.070312 L 325.238281 100.292969 L 333.671875 115.46875 L 354.398438 72.308594 L 363.742188 86.007812 L 387.472656 64.046875 L 387.773438 64.371094 L 363.667969 86.683594 L 354.464844 73.195312 Z M 333.699219 116.433594 " fill-opacity="1" fill-rule="nonzero"/></g><g clip-path="url(#598f6f2f33)"><path fill="#4c77f6" d="M 91.132812 116.230469 L 90.976562 116.148438 L 52.902344 95.890625 L 53.109375 95.5 L 91.027344 115.675781 L 104.382812 100.378906 L 104.449219 100.363281 L 128.289062 94.28125 L 134.917969 84.703125 L 135.070312 84.742188 L 159.558594 91.289062 L 167.589844 77.65625 L 167.71875 77.65625 L 230.121094 78.386719 L 269.042969 46.320312 L 294.542969 79.179688 L 325.128906 100.300781 L 381.871094 53.789062 L 382.152344 54.128906 L 325.152344 100.855469 L 294.234375 79.503906 L 294.214844 79.476562 L 268.972656 46.953125 L 230.277344 78.832031 L 167.84375 78.101562 L 159.769531 91.804688 L 159.605469 91.761719 L 135.105469 85.210938 L 128.558594 94.667969 L 104.625 100.773438 Z M 91.132812 116.230469 " fill-opacity="1" fill-rule="nonzero"/></g><g clip-path="url(#dd120ca1cd)"><path fill="#4c77f6" d="M 71.652344 131.832031 L 59.269531 102.980469 L 59.675781 102.808594 L 71.699219 130.824219 L 82.085938 111.964844 L 86.546875 93.515625 L 56.46875 82.601562 L 56.621094 82.183594 L 87.070312 93.234375 L 82.503906 112.128906 L 82.488281 112.15625 Z M 71.652344 131.832031 " fill-opacity="1" fill-rule="nonzero"/></g><g clip-path="url(#217105a7f7)"><path fill="#4c77f6" d="M 71.605469 132.117188 L 64.554688 96.007812 L 58.039062 96.890625 L 57.980469 96.453125 L 64.324219 95.589844 L 60.164062 91.085938 L 60.492188 90.785156 L 64.859375 95.519531 L 87.152344 92.496094 Z M 64.996094 95.949219 L 71.746094 130.539062 L 86.464844 93.035156 Z M 64.996094 95.949219 " fill-opacity="1" fill-rule="nonzero"/></g><g clip-path="url(#24d20df186)"><path fill="#4c77f6" d="M 103.976562 121.140625 L 103.640625 120.890625 L 53.972656 83.914062 L 54.234375 83.558594 L 103.566406 120.28125 L 104.28125 100.539062 L 109.375 84.765625 L 128.003906 94.019531 L 122.164062 79.171875 L 135.15625 84.777344 L 151.308594 106.867188 L 148.949219 82.78125 L 149.390625 82.738281 L 151.910156 108.441406 L 134.867188 85.136719 L 122.964844 80 L 128.839844 94.929688 L 109.640625 85.390625 L 104.722656 100.613281 Z M 103.976562 121.140625 " fill-opacity="1" fill-rule="nonzero"/></g><g clip-path="url(#9c3d9031a1)"><path fill="#4c77f6" d="M 162.980469 105.230469 L 159.496094 91.785156 L 127.507812 94.785156 L 148.257812 81.855469 L 135.066406 85.171875 L 134.957031 84.742188 L 150.894531 80.734375 L 129.335938 94.167969 L 159.832031 91.308594 L 163.179688 104.222656 L 176.558594 86.226562 L 194.40625 52.65625 L 194.613281 52.804688 L 230.246094 78.371094 L 273.167969 68.617188 L 273.226562 68.636719 L 320.746094 84.964844 L 354.386719 72.53125 L 354.421875 72.53125 L 370.367188 71.800781 L 370.386719 72.242188 L 354.476562 72.972656 L 320.75 85.433594 L 273.144531 69.078125 L 230.152344 78.847656 L 194.558594 53.3125 L 176.9375 86.464844 L 176.925781 86.476562 Z M 162.980469 105.230469 " fill-opacity="1" fill-rule="nonzero"/></g><g clip-path="url(#2b7454ceb1)"><path fill="#4c77f6" d="M 99.84375 106.253906 L 99.5 105.96875 L 103.84375 100.71875 L 52.976562 94.328125 L 53.03125 93.890625 L 103.027344 100.167969 L 86.199219 92.738281 L 109.425781 84.875 L 123.027344 78.203125 L 104.671875 100.410156 L 105.980469 100.984375 L 104.363281 100.78125 Z M 87.417969 92.792969 L 104.25 100.222656 L 121.371094 79.507812 L 109.59375 85.285156 L 109.582031 85.289062 Z M 87.417969 92.792969 " fill-opacity="1" fill-rule="nonzero"/></g><path fill="#4c77f6" d="M 151.757812 107.820312 L 151.460938 107.488281 L 164.386719 95.855469 L 167.542969 77.589844 L 181.472656 82.03125 L 204.429688 67.007812 L 229.753906 78.6875 L 229.789062 78.757812 L 240.878906 101.433594 L 240.382812 101.277344 L 181.539062 82.519531 L 175.417969 86.523438 L 164.796875 96.082031 L 163.296875 104.765625 L 162.859375 104.6875 L 164.265625 96.5625 Z M 182.019531 82.203125 L 240.023438 100.695312 L 229.425781 79.023438 L 204.46875 67.515625 Z M 167.894531 78.167969 L 164.921875 95.375 L 175.148438 86.167969 L 175.164062 86.160156 L 180.996094 82.34375 Z M 167.894531 78.167969 " fill-opacity="1" fill-rule="nonzero"/><path fill="#4c77f6" d="M 159.589844 91.335938 L 177.042969 85.234375 L 177.1875 85.652344 L 159.738281 91.753906 Z M 159.589844 91.335938 " fill-opacity="1" fill-rule="nonzero"/><g clip-path="url(#dd9665282d)"><path fill="#4c77f6" d="M 306.246094 109.351562 L 295.050781 80.078125 L 273.199219 68.257812 L 273.179688 68.15625 L 269.148438 46.457031 L 240.644531 101.167969 L 240.253906 100.960938 L 269.351562 45.109375 L 273.597656 67.96875 L 295.40625 79.765625 L 306.449219 108.644531 L 368.941406 61.835938 L 369.207031 62.191406 Z M 306.246094 109.351562 " fill-opacity="1" fill-rule="nonzero"/></g><path fill="#4c77f6" d="M 229.871094 77.542969 L 229.550781 77.238281 L 263.601562 41.464844 L 273.484375 69.261719 L 273.070312 69.410156 L 263.425781 42.292969 Z M 229.871094 77.542969 " fill-opacity="1" fill-rule="nonzero"/><path fill="#4c77f6" d="M 324.308594 101.445312 L 306.179688 93.539062 L 306.355469 93.132812 L 323.675781 100.6875 L 320.429688 86.644531 L 305.632812 93.199219 L 294.714844 79.875 L 295.054688 79.59375 L 305.761719 92.65625 L 320.742188 86.019531 Z M 324.308594 101.445312 " fill-opacity="1" fill-rule="nonzero"/><path fill="#4c77f6" d="M 305.8125 92.496094 L 305.746094 92.058594 L 339.765625 86.945312 L 350.859375 76.171875 L 351.167969 76.492188 L 339.972656 87.363281 Z M 305.8125 92.496094 " fill-opacity="1" fill-rule="nonzero"/><path fill="#4c77f6" d="M 339.863281 87.375 L 339.84375 87.371094 L 320.015625 85.175781 L 320.042969 84.734375 L 362.40625 85.386719 L 362.417969 85.828125 Z M 324.699219 85.25 L 339.871094 86.929688 L 357.113281 85.746094 Z M 324.699219 85.25 " fill-opacity="1" fill-rule="nonzero"/><path fill="#4c77f6" d="M 334.355469 117.042969 L 339.640625 87.105469 L 340.078125 87.183594 L 334.792969 117.121094 Z M 334.355469 117.042969 " fill-opacity="1" fill-rule="nonzero"/><g clip-path="url(#3e5de1b902)"><path fill="#4c77f6" d="M 354.148438 71.761719 L 354.238281 71.328125 L 383.039062 77.183594 L 382.949219 77.621094 Z M 354.148438 71.761719 " fill-opacity="1" fill-rule="nonzero"/></g><g clip-path="url(#6216505ed4)"><path fill="#4c77f6" d="M 362.207031 86.714844 L 374.652344 63.6875 L 375.042969 63.898438 L 362.597656 86.925781 Z M 362.207031 86.714844 " fill-opacity="1" fill-rule="nonzero"/></g><path fill="#4c77f6" d="M 68.625 84.46875 C 68.625 84.800781 68.5625 85.125 68.433594 85.433594 C 68.304688 85.742188 68.125 86.015625 67.886719 86.25 C 67.648438 86.488281 67.378906 86.671875 67.070312 86.796875 C 66.757812 86.925781 66.4375 86.988281 66.101562 86.988281 C 65.769531 86.988281 65.445312 86.925781 65.136719 86.796875 C 64.828125 86.671875 64.554688 86.488281 64.320312 86.25 C 64.082031 86.015625 63.902344 85.742188 63.773438 85.433594 C 63.644531 85.125 63.582031 84.800781 63.582031 84.46875 C 63.582031 84.132812 63.644531 83.8125 63.773438 83.503906 C 63.902344 83.195312 64.082031 82.921875 64.320312 82.683594 C 64.554688 82.449219 64.828125 82.265625 65.136719 82.136719 C 65.445312 82.011719 65.769531 81.945312 66.101562 81.945312 C 66.4375 81.945312 66.757812 82.011719 67.070312 82.136719 C 67.378906 82.265625 67.648438 82.449219 67.886719 82.683594 C 68.125 82.921875 68.304688 83.195312 68.433594 83.503906 C 68.5625 83.8125 68.625 84.132812 68.625 84.46875 Z M 68.625 84.46875 " fill-opacity="1" fill-rule="nonzero"/><path fill="#4c77f6" d="M 73.996094 130.757812 C 73.996094 131.050781 73.9375 131.332031 73.828125 131.601562 C 73.714844 131.867188 73.558594 132.105469 73.351562 132.3125 C 73.144531 132.519531 72.90625 132.675781 72.640625 132.789062 C 72.371094 132.898438 72.089844 132.957031 71.796875 132.957031 C 71.507812 132.957031 71.226562 132.898438 70.957031 132.789062 C 70.6875 132.675781 70.453125 132.519531 70.246094 132.3125 C 70.039062 132.105469 69.878906 131.867188 69.769531 131.601562 C 69.65625 131.332031 69.601562 131.050781 69.601562 130.757812 C 69.601562 130.46875 69.65625 130.1875 69.769531 129.917969 C 69.878906 129.648438 70.039062 129.414062 70.246094 129.207031 C 70.453125 129 70.6875 128.84375 70.957031 128.730469 C 71.226562 128.617188 71.507812 128.5625 71.796875 128.5625 C 72.089844 128.5625 72.371094 128.617188 72.640625 128.730469 C 72.90625 128.84375 73.144531 129 73.351562 129.207031 C 73.558594 129.414062 73.714844 129.648438 73.828125 129.917969 C 73.9375 130.1875 73.996094 130.46875 73.996094 130.757812 Z M 73.996094 130.757812 " fill-opacity="1" fill-rule="nonzero"/><path fill="#4c77f6" d="M 66.746094 95.664062 C 66.746094 95.917969 66.699219 96.160156 66.601562 96.394531 C 66.503906 96.628906 66.367188 96.835938 66.1875 97.015625 C 66.007812 97.191406 65.800781 97.332031 65.566406 97.429688 C 65.335938 97.523438 65.089844 97.574219 64.835938 97.574219 C 64.582031 97.574219 64.339844 97.523438 64.105469 97.429688 C 63.871094 97.332031 63.664062 97.191406 63.484375 97.015625 C 63.308594 96.835938 63.167969 96.628906 63.070312 96.394531 C 62.976562 96.160156 62.925781 95.917969 62.925781 95.664062 C 62.925781 95.410156 62.976562 95.164062 63.070312 94.929688 C 63.167969 94.699219 63.308594 94.492188 63.484375 94.3125 C 63.664062 94.132812 63.871094 93.996094 64.105469 93.898438 C 64.339844 93.800781 64.582031 93.753906 64.835938 93.753906 C 65.089844 93.753906 65.335938 93.800781 65.566406 93.898438 C 65.800781 93.996094 66.007812 94.132812 66.1875 94.3125 C 66.367188 94.492188 66.503906 94.699219 66.601562 94.929688 C 66.699219 95.164062 66.746094 95.410156 66.746094 95.664062 Z M 66.746094 95.664062 " fill-opacity="1" fill-rule="nonzero"/><path fill="#4c77f6" d="M 84.492188 111.886719 C 84.492188 112.230469 84.425781 112.5625 84.292969 112.882812 C 84.160156 113.199219 83.972656 113.480469 83.726562 113.726562 C 83.484375 113.96875 83.203125 114.160156 82.882812 114.289062 C 82.5625 114.421875 82.230469 114.488281 81.886719 114.488281 C 81.542969 114.488281 81.210938 114.421875 80.890625 114.289062 C 80.570312 114.160156 80.289062 113.96875 80.046875 113.726562 C 79.800781 113.480469 79.613281 113.199219 79.480469 112.882812 C 79.347656 112.5625 79.28125 112.230469 79.28125 111.886719 C 79.28125 111.539062 79.347656 111.207031 79.480469 110.890625 C 79.613281 110.570312 79.800781 110.289062 80.046875 110.042969 C 80.289062 109.800781 80.570312 109.613281 80.890625 109.480469 C 81.210938 109.347656 81.542969 109.28125 81.886719 109.28125 C 82.230469 109.28125 82.5625 109.347656 82.882812 109.480469 C 83.203125 109.613281 83.484375 109.800781 83.726562 110.042969 C 83.972656 110.289062 84.160156 110.570312 84.292969 110.890625 C 84.425781 111.207031 84.492188 111.539062 84.492188 111.886719 Z M 84.492188 111.886719 " fill-opacity="1" fill-rule="nonzero"/><path fill="#4c77f6" d="M 92.800781 115.519531 C 92.800781 115.804688 92.746094 116.082031 92.636719 116.34375 C 92.527344 116.609375 92.371094 116.84375 92.167969 117.042969 C 91.96875 117.246094 91.734375 117.402344 91.46875 117.511719 C 91.207031 117.621094 90.929688 117.675781 90.644531 117.675781 C 90.359375 117.675781 90.085938 117.621094 89.820312 117.511719 C 89.554688 117.402344 89.324219 117.246094 89.121094 117.042969 C 88.917969 116.84375 88.761719 116.609375 88.652344 116.34375 C 88.542969 116.082031 88.488281 115.804688 88.488281 115.519531 C 88.488281 115.234375 88.542969 114.960938 88.652344 114.695312 C 88.761719 114.429688 88.917969 114.199219 89.121094 113.996094 C 89.324219 113.792969 89.554688 113.636719 89.820312 113.527344 C 90.085938 113.417969 90.359375 113.363281 90.644531 113.363281 C 90.929688 113.363281 91.207031 113.417969 91.46875 113.527344 C 91.734375 113.636719 91.96875 113.792969 92.167969 113.996094 C 92.371094 114.199219 92.527344 114.429688 92.636719 114.695312 C 92.746094 114.960938 92.800781 115.234375 92.800781 115.519531 Z M 92.800781 115.519531 " fill-opacity="1" fill-rule="nonzero"/><path fill="#4c77f6" d="M 90.023438 93.457031 C 90.023438 93.90625 89.9375 94.335938 89.765625 94.75 C 89.59375 95.164062 89.347656 95.527344 89.03125 95.84375 C 88.714844 96.160156 88.351562 96.40625 87.9375 96.578125 C 87.523438 96.75 87.09375 96.835938 86.644531 96.835938 C 86.199219 96.835938 85.765625 96.75 85.351562 96.578125 C 84.941406 96.40625 84.574219 96.160156 84.257812 95.84375 C 83.941406 95.527344 83.699219 95.164062 83.527344 94.75 C 83.355469 94.335938 83.269531 93.90625 83.269531 93.457031 C 83.269531 93.011719 83.355469 92.578125 83.527344 92.164062 C 83.699219 91.753906 83.941406 91.386719 84.257812 91.070312 C 84.574219 90.753906 84.941406 90.511719 85.351562 90.339844 C 85.765625 90.167969 86.199219 90.082031 86.644531 90.082031 C 87.09375 90.082031 87.523438 90.167969 87.9375 90.339844 C 88.351562 90.511719 88.714844 90.753906 89.03125 91.070312 C 89.347656 91.386719 89.59375 91.753906 89.765625 92.164062 C 89.9375 92.578125 90.023438 93.011719 90.023438 93.457031 Z M 90.023438 93.457031 " fill-opacity="1" fill-rule="nonzero"/><path fill="#4c77f6" d="M 106.539062 101.105469 C 106.539062 101.378906 106.484375 101.644531 106.378906 101.898438 C 106.273438 102.152344 106.125 102.378906 105.929688 102.574219 C 105.734375 102.765625 105.511719 102.917969 105.257812 103.023438 C 105.003906 103.128906 104.738281 103.179688 104.464844 103.179688 C 104.1875 103.179688 103.921875 103.128906 103.667969 103.023438 C 103.414062 102.917969 103.191406 102.765625 102.996094 102.574219 C 102.800781 102.378906 102.652344 102.152344 102.546875 101.898438 C 102.441406 101.644531 102.386719 101.378906 102.386719 101.105469 C 102.386719 100.832031 102.441406 100.566406 102.546875 100.3125 C 102.652344 100.058594 102.800781 99.832031 102.996094 99.640625 C 103.191406 99.445312 103.414062 99.292969 103.667969 99.1875 C 103.921875 99.082031 104.1875 99.03125 104.464844 99.03125 C 104.738281 99.03125 105.003906 99.082031 105.257812 99.1875 C 105.511719 99.292969 105.734375 99.445312 105.929688 99.640625 C 106.125 99.832031 106.273438 100.058594 106.378906 100.3125 C 106.484375 100.566406 106.539062 100.832031 106.539062 101.105469 Z M 106.539062 101.105469 " fill-opacity="1" fill-rule="nonzero"/><path fill="#4c77f6" d="M 111.703125 84.691406 C 111.703125 84.996094 111.644531 85.289062 111.527344 85.570312 C 111.410156 85.851562 111.246094 86.101562 111.03125 86.316406 C 110.816406 86.53125 110.566406 86.699219 110.285156 86.816406 C 110.003906 86.933594 109.710938 86.988281 109.40625 86.988281 C 109.101562 86.988281 108.808594 86.933594 108.527344 86.816406 C 108.246094 86.699219 107.996094 86.53125 107.78125 86.316406 C 107.566406 86.101562 107.398438 85.851562 107.28125 85.570312 C 107.164062 85.289062 107.105469 84.996094 107.105469 84.691406 C 107.105469 84.386719 107.164062 84.09375 107.28125 83.8125 C 107.398438 83.53125 107.566406 83.28125 107.78125 83.066406 C 107.996094 82.851562 108.246094 82.683594 108.527344 82.570312 C 108.808594 82.453125 109.101562 82.394531 109.40625 82.394531 C 109.710938 82.394531 110.003906 82.453125 110.285156 82.570312 C 110.566406 82.683594 110.816406 82.851562 111.03125 83.066406 C 111.246094 83.28125 111.410156 83.53125 111.527344 83.8125 C 111.644531 84.09375 111.703125 84.386719 111.703125 84.691406 Z M 111.703125 84.691406 " fill-opacity="1" fill-rule="nonzero"/><path fill="#4c77f6" d="M 124.515625 79.015625 C 124.515625 79.320312 124.457031 79.609375 124.34375 79.890625 C 124.226562 80.167969 124.0625 80.414062 123.847656 80.628906 C 123.636719 80.839844 123.390625 81.007812 123.109375 81.121094 C 122.832031 81.238281 122.539062 81.292969 122.238281 81.292969 C 121.9375 81.292969 121.644531 81.238281 121.367188 81.121094 C 121.089844 81.007812 120.84375 80.839844 120.628906 80.628906 C 120.414062 80.414062 120.25 80.167969 120.132812 79.890625 C 120.019531 79.609375 119.960938 79.320312 119.960938 79.015625 C 119.960938 78.714844 120.019531 78.425781 120.132812 78.144531 C 120.25 77.867188 120.414062 77.621094 120.628906 77.40625 C 120.84375 77.191406 121.089844 77.027344 121.367188 76.914062 C 121.644531 76.796875 121.9375 76.738281 122.238281 76.738281 C 122.539062 76.738281 122.832031 76.796875 123.109375 76.914062 C 123.390625 77.027344 123.636719 77.191406 123.847656 77.40625 C 124.0625 77.621094 124.226562 77.867188 124.34375 78.144531 C 124.457031 78.425781 124.515625 78.714844 124.515625 79.015625 Z M 124.515625 79.015625 " fill-opacity="1" fill-rule="nonzero"/><path fill="#4c77f6" d="M 132.007812 93.828125 C 132.007812 94.324219 131.914062 94.800781 131.722656 95.261719 C 131.535156 95.71875 131.261719 96.125 130.910156 96.476562 C 130.558594 96.828125 130.15625 97.097656 129.695312 97.289062 C 129.238281 97.476562 128.757812 97.574219 128.261719 97.574219 C 127.765625 97.574219 127.289062 97.476562 126.828125 97.289062 C 126.371094 97.097656 125.964844 96.828125 125.613281 96.476562 C 125.261719 96.125 124.992188 95.71875 124.800781 95.261719 C 124.613281 94.800781 124.515625 94.324219 124.515625 93.828125 C 124.515625 93.332031 124.613281 92.851562 124.800781 92.394531 C 124.992188 91.933594 125.261719 91.53125 125.613281 91.179688 C 125.964844 90.828125 126.371094 90.558594 126.828125 90.367188 C 127.289062 90.175781 127.765625 90.082031 128.261719 90.082031 C 128.757812 90.082031 129.238281 90.175781 129.695312 90.367188 C 130.15625 90.558594 130.558594 90.828125 130.910156 91.179688 C 131.261719 91.53125 131.535156 91.933594 131.722656 92.394531 C 131.914062 92.851562 132.007812 93.332031 132.007812 93.828125 Z M 132.007812 93.828125 " fill-opacity="1" fill-rule="nonzero"/><path fill="#4c77f6" d="M 100.851562 68.269531 C 100.851562 68.53125 100.800781 68.777344 100.703125 69.019531 C 100.601562 69.257812 100.460938 69.46875 100.277344 69.652344 C 100.09375 69.835938 99.882812 69.976562 99.644531 70.074219 C 99.40625 70.175781 99.15625 70.222656 98.898438 70.222656 C 98.640625 70.222656 98.390625 70.175781 98.152344 70.074219 C 97.910156 69.976562 97.699219 69.835938 97.515625 69.652344 C 97.332031 69.46875 97.191406 69.257812 97.09375 69.019531 C 96.996094 68.777344 96.945312 68.53125 96.945312 68.269531 C 96.945312 68.011719 96.996094 67.761719 97.09375 67.523438 C 97.191406 67.285156 97.332031 67.074219 97.515625 66.890625 C 97.699219 66.707031 97.910156 66.566406 98.152344 66.464844 C 98.390625 66.367188 98.640625 66.316406 98.898438 66.316406 C 99.15625 66.316406 99.40625 66.367188 99.644531 66.464844 C 99.882812 66.566406 100.09375 66.707031 100.277344 66.890625 C 100.460938 67.074219 100.601562 67.285156 100.703125 67.523438 C 100.800781 67.761719 100.851562 68.011719 100.851562 68.269531 Z M 100.851562 68.269531 " fill-opacity="1" fill-rule="nonzero"/><path fill="#4c77f6" d="M 136.3125 60.425781 C 136.3125 60.660156 136.269531 60.882812 136.179688 61.097656 C 136.09375 61.3125 135.964844 61.5 135.800781 61.664062 C 135.636719 61.828125 135.449219 61.953125 135.234375 62.042969 C 135.019531 62.132812 134.796875 62.175781 134.566406 62.175781 C 134.332031 62.175781 134.109375 62.132812 133.894531 62.042969 C 133.679688 61.953125 133.492188 61.828125 133.328125 61.664062 C 133.164062 61.5 133.039062 61.3125 132.949219 61.097656 C 132.859375 60.882812 132.816406 60.660156 132.816406 60.425781 C 132.816406 60.195312 132.859375 59.972656 132.949219 59.757812 C 133.039062 59.542969 133.164062 59.355469 133.328125 59.191406 C 133.492188 59.027344 133.679688 58.898438 133.894531 58.8125 C 134.109375 58.722656 134.332031 58.675781 134.566406 58.675781 C 134.796875 58.675781 135.019531 58.722656 135.234375 58.8125 C 135.449219 58.898438 135.636719 59.027344 135.800781 59.191406 C 135.964844 59.355469 136.09375 59.542969 136.179688 59.757812 C 136.269531 59.972656 136.3125 60.195312 136.3125 60.425781 Z M 136.3125 60.425781 " fill-opacity="1" fill-rule="nonzero"/><path fill="#4c77f6" d="M 136.882812 85.078125 C 136.882812 85.289062 136.84375 85.492188 136.761719 85.683594 C 136.683594 85.878906 136.566406 86.050781 136.417969 86.199219 C 136.269531 86.347656 136.097656 86.460938 135.902344 86.542969 C 135.710938 86.625 135.507812 86.664062 135.296875 86.664062 C 135.085938 86.664062 134.882812 86.625 134.691406 86.542969 C 134.496094 86.460938 134.324219 86.347656 134.175781 86.199219 C 134.027344 86.050781 133.910156 85.878906 133.832031 85.683594 C 133.75 85.492188 133.710938 85.289062 133.710938 85.078125 C 133.710938 84.867188 133.75 84.664062 133.832031 84.46875 C 133.910156 84.277344 134.027344 84.105469 134.175781 83.957031 C 134.324219 83.808594 134.496094 83.691406 134.691406 83.613281 C 134.882812 83.53125 135.085938 83.492188 135.296875 83.492188 C 135.507812 83.492188 135.710938 83.53125 135.902344 83.613281 C 136.097656 83.691406 136.269531 83.808594 136.417969 83.957031 C 136.566406 84.105469 136.683594 84.277344 136.761719 84.46875 C 136.84375 84.664062 136.882812 84.867188 136.882812 85.078125 Z M 136.882812 85.078125 " fill-opacity="1" fill-rule="nonzero"/><path fill="#4c77f6" d="M 151.515625 82.105469 C 151.515625 82.347656 151.46875 82.578125 151.378906 82.800781 C 151.285156 83.023438 151.15625 83.21875 150.984375 83.386719 C 150.816406 83.558594 150.621094 83.6875 150.398438 83.78125 C 150.175781 83.871094 149.945312 83.917969 149.707031 83.917969 C 149.464844 83.917969 149.234375 83.871094 149.011719 83.78125 C 148.792969 83.6875 148.59375 83.558594 148.425781 83.386719 C 148.257812 83.21875 148.125 83.023438 148.035156 82.800781 C 147.941406 82.578125 147.894531 82.347656 147.894531 82.105469 C 147.894531 81.867188 147.941406 81.636719 148.035156 81.414062 C 148.125 81.191406 148.257812 80.996094 148.425781 80.828125 C 148.59375 80.65625 148.792969 80.527344 149.011719 80.433594 C 149.234375 80.34375 149.464844 80.296875 149.707031 80.296875 C 149.945312 80.296875 150.175781 80.34375 150.398438 80.433594 C 150.621094 80.527344 150.816406 80.65625 150.984375 80.828125 C 151.15625 80.996094 151.285156 81.191406 151.378906 81.414062 C 151.46875 81.636719 151.515625 81.867188 151.515625 82.105469 Z M 151.515625 82.105469 " fill-opacity="1" fill-rule="nonzero"/><path fill="#4c77f6" d="M 153.992188 107.195312 C 153.992188 107.480469 153.9375 107.753906 153.828125 108.015625 C 153.71875 108.277344 153.566406 108.511719 153.363281 108.710938 C 153.164062 108.910156 152.933594 109.066406 152.667969 109.175781 C 152.40625 109.285156 152.132812 109.339844 151.847656 109.339844 C 151.566406 109.339844 151.292969 109.285156 151.027344 109.175781 C 150.765625 109.066406 150.535156 108.910156 150.332031 108.710938 C 150.132812 108.511719 149.976562 108.277344 149.867188 108.015625 C 149.761719 107.753906 149.707031 107.480469 149.707031 107.195312 C 149.707031 106.910156 149.761719 106.636719 149.867188 106.375 C 149.976562 106.113281 150.132812 105.878906 150.332031 105.679688 C 150.535156 105.480469 150.765625 105.324219 151.027344 105.214844 C 151.292969 105.105469 151.566406 105.050781 151.847656 105.050781 C 152.132812 105.050781 152.40625 105.105469 152.667969 105.214844 C 152.933594 105.324219 153.164062 105.480469 153.363281 105.679688 C 153.566406 105.878906 153.71875 106.113281 153.828125 106.375 C 153.9375 106.636719 153.992188 106.910156 153.992188 107.195312 Z M 153.992188 107.195312 " fill-opacity="1" fill-rule="nonzero"/><path fill="#4c77f6" d="M 161.371094 92.359375 C 161.371094 92.660156 161.3125 92.953125 161.199219 93.230469 C 161.082031 93.511719 160.917969 93.757812 160.703125 93.96875 C 160.492188 94.183594 160.246094 94.347656 159.964844 94.464844 C 159.6875 94.578125 159.394531 94.636719 159.09375 94.636719 C 158.792969 94.636719 158.5 94.578125 158.222656 94.464844 C 157.941406 94.347656 157.695312 94.183594 157.484375 93.96875 C 157.269531 93.757812 157.105469 93.511719 156.988281 93.230469 C 156.875 92.953125 156.816406 92.660156 156.816406 92.359375 C 156.816406 92.058594 156.875 91.765625 156.988281 91.488281 C 157.105469 91.207031 157.269531 90.960938 157.484375 90.75 C 157.695312 90.535156 157.941406 90.371094 158.222656 90.253906 C 158.5 90.140625 158.792969 90.082031 159.09375 90.082031 C 159.394531 90.082031 159.6875 90.140625 159.964844 90.253906 C 160.246094 90.371094 160.492188 90.535156 160.703125 90.75 C 160.917969 90.960938 161.082031 91.207031 161.199219 91.488281 C 161.3125 91.765625 161.371094 92.058594 161.371094 92.359375 Z M 161.371094 92.359375 " fill-opacity="1" fill-rule="nonzero"/><path fill="#4c77f6" d="M 165.441406 104.480469 C 165.441406 104.75 165.386719 105.011719 165.285156 105.261719 C 165.179688 105.507812 165.035156 105.730469 164.84375 105.921875 C 164.652344 106.109375 164.433594 106.257812 164.183594 106.359375 C 163.933594 106.464844 163.675781 106.515625 163.40625 106.515625 C 163.136719 106.515625 162.875 106.464844 162.628906 106.359375 C 162.378906 106.257812 162.15625 106.109375 161.96875 105.921875 C 161.777344 105.730469 161.628906 105.507812 161.527344 105.261719 C 161.421875 105.011719 161.371094 104.75 161.371094 104.480469 C 161.371094 104.210938 161.421875 103.953125 161.527344 103.703125 C 161.628906 103.453125 161.777344 103.234375 161.96875 103.042969 C 162.15625 102.851562 162.378906 102.707031 162.628906 102.601562 C 162.875 102.5 163.136719 102.449219 163.40625 102.449219 C 163.675781 102.449219 163.933594 102.5 164.183594 102.601562 C 164.433594 102.707031 164.652344 102.851562 164.84375 103.042969 C 165.035156 103.234375 165.179688 103.453125 165.285156 103.703125 C 165.386719 103.953125 165.441406 104.210938 165.441406 104.480469 Z M 165.441406 104.480469 " fill-opacity="1" fill-rule="nonzero"/><path fill="#4c77f6" d="M 179.59375 86.011719 C 179.59375 86.347656 179.53125 86.667969 179.402344 86.976562 C 179.277344 87.289062 179.09375 87.558594 178.855469 87.796875 C 178.621094 88.03125 178.347656 88.214844 178.039062 88.34375 C 177.730469 88.472656 177.40625 88.535156 177.074219 88.535156 C 176.738281 88.535156 176.417969 88.472656 176.109375 88.34375 C 175.800781 88.214844 175.527344 88.03125 175.289062 87.796875 C 175.054688 87.558594 174.871094 87.289062 174.742188 86.976562 C 174.617188 86.667969 174.550781 86.347656 174.550781 86.011719 C 174.550781 85.679688 174.617188 85.355469 174.742188 85.046875 C 174.871094 84.738281 175.054688 84.464844 175.289062 84.230469 C 175.527344 83.992188 175.800781 83.8125 176.109375 83.683594 C 176.417969 83.554688 176.738281 83.492188 177.074219 83.492188 C 177.40625 83.492188 177.730469 83.554688 178.039062 83.683594 C 178.347656 83.8125 178.621094 83.992188 178.855469 84.230469 C 179.09375 84.464844 179.277344 84.738281 179.402344 85.046875 C 179.53125 85.355469 179.59375 85.679688 179.59375 86.011719 Z M 179.59375 86.011719 " fill-opacity="1" fill-rule="nonzero"/><path fill="#4c77f6" d="M 168.941406 78.207031 C 168.941406 78.398438 168.90625 78.585938 168.832031 78.765625 C 168.757812 78.945312 168.652344 79.105469 168.511719 79.242188 C 168.375 79.378906 168.21875 79.488281 168.039062 79.5625 C 167.859375 79.636719 167.671875 79.671875 167.476562 79.671875 C 167.28125 79.671875 167.09375 79.636719 166.914062 79.5625 C 166.734375 79.488281 166.578125 79.378906 166.4375 79.242188 C 166.300781 79.105469 166.195312 78.945312 166.121094 78.765625 C 166.046875 78.585938 166.007812 78.398438 166.007812 78.207031 C 166.007812 78.011719 166.046875 77.824219 166.121094 77.644531 C 166.195312 77.464844 166.300781 77.304688 166.4375 77.167969 C 166.578125 77.03125 166.734375 76.925781 166.914062 76.851562 C 167.09375 76.777344 167.28125 76.738281 167.476562 76.738281 C 167.671875 76.738281 167.859375 76.777344 168.039062 76.851562 C 168.21875 76.925781 168.375 77.03125 168.511719 77.167969 C 168.652344 77.304688 168.757812 77.464844 168.832031 77.644531 C 168.90625 77.824219 168.941406 78.011719 168.941406 78.207031 Z M 168.941406 78.207031 " fill-opacity="1" fill-rule="nonzero"/><path fill="#4c77f6" d="M 197.503906 53.355469 C 197.503906 53.695312 197.4375 54.023438 197.308594 54.335938 C 197.175781 54.652344 196.992188 54.929688 196.75 55.167969 C 196.511719 55.410156 196.230469 55.59375 195.917969 55.726562 C 195.601562 55.855469 195.277344 55.921875 194.933594 55.921875 C 194.59375 55.921875 194.265625 55.855469 193.953125 55.726562 C 193.636719 55.59375 193.359375 55.410156 193.121094 55.167969 C 192.878906 54.929688 192.695312 54.652344 192.5625 54.335938 C 192.433594 54.023438 192.367188 53.695312 192.367188 53.355469 C 192.367188 53.011719 192.433594 52.6875 192.5625 52.371094 C 192.695312 52.058594 192.878906 51.78125 193.121094 51.539062 C 193.359375 51.296875 193.636719 51.113281 193.953125 50.980469 C 194.265625 50.851562 194.59375 50.785156 194.933594 50.785156 C 195.277344 50.785156 195.601562 50.851562 195.917969 50.980469 C 196.230469 51.113281 196.511719 51.296875 196.75 51.539062 C 196.992188 51.78125 197.175781 52.058594 197.308594 52.371094 C 197.4375 52.6875 197.503906 53.011719 197.503906 53.355469 Z M 197.503906 53.355469 " fill-opacity="1" fill-rule="nonzero"/><path fill="#4c77f6" d="M 206.269531 67.167969 C 206.269531 67.4375 206.21875 67.699219 206.113281 67.953125 C 206.007812 68.203125 205.859375 68.425781 205.667969 68.617188 C 205.476562 68.8125 205.253906 68.960938 205 69.0625 C 204.75 69.167969 204.488281 69.21875 204.214844 69.21875 C 203.941406 69.21875 203.679688 69.167969 203.429688 69.0625 C 203.179688 68.960938 202.957031 68.8125 202.761719 68.617188 C 202.570312 68.425781 202.421875 68.203125 202.316406 67.953125 C 202.214844 67.699219 202.160156 67.4375 202.160156 67.167969 C 202.160156 66.894531 202.214844 66.632812 202.316406 66.378906 C 202.421875 66.128906 202.570312 65.90625 202.761719 65.714844 C 202.957031 65.523438 203.179688 65.375 203.429688 65.269531 C 203.679688 65.164062 203.941406 65.113281 204.214844 65.113281 C 204.488281 65.113281 204.75 65.164062 205 65.269531 C 205.253906 65.375 205.476562 65.523438 205.667969 65.714844 C 205.859375 65.90625 206.007812 66.128906 206.113281 66.378906 C 206.21875 66.632812 206.269531 66.894531 206.269531 67.167969 Z M 206.269531 67.167969 " fill-opacity="1" fill-rule="nonzero"/><path fill="#4c77f6" d="M 234.347656 78.246094 C 234.347656 78.539062 234.320312 78.835938 234.261719 79.125 C 234.203125 79.417969 234.117188 79.699219 234.003906 79.972656 C 233.890625 80.246094 233.75 80.507812 233.585938 80.753906 C 233.421875 81 233.234375 81.226562 233.027344 81.4375 C 232.816406 81.648438 232.585938 81.832031 232.339844 82 C 232.09375 82.164062 231.835938 82.300781 231.5625 82.414062 C 231.285156 82.53125 231.003906 82.613281 230.714844 82.671875 C 230.421875 82.730469 230.128906 82.757812 229.832031 82.757812 C 229.535156 82.757812 229.242188 82.730469 228.953125 82.671875 C 228.660156 82.613281 228.378906 82.53125 228.105469 82.414062 C 227.832031 82.300781 227.570312 82.164062 227.324219 82 C 227.078125 81.832031 226.851562 81.648438 226.640625 81.4375 C 226.429688 81.226562 226.242188 81 226.078125 80.753906 C 225.914062 80.507812 225.773438 80.246094 225.660156 79.972656 C 225.546875 79.699219 225.460938 79.417969 225.40625 79.125 C 225.347656 78.835938 225.316406 78.539062 225.316406 78.246094 C 225.316406 77.949219 225.347656 77.65625 225.40625 77.363281 C 225.460938 77.074219 225.546875 76.789062 225.660156 76.515625 C 225.773438 76.242188 225.914062 75.984375 226.078125 75.734375 C 226.242188 75.488281 226.429688 75.261719 226.640625 75.050781 C 226.851562 74.84375 227.078125 74.65625 227.324219 74.492188 C 227.570312 74.324219 227.832031 74.1875 228.105469 74.074219 C 228.378906 73.960938 228.660156 73.875 228.953125 73.816406 C 229.242188 73.757812 229.535156 73.730469 229.832031 73.730469 C 230.128906 73.730469 230.421875 73.757812 230.714844 73.816406 C 231.003906 73.875 231.285156 73.960938 231.5625 74.074219 C 231.835938 74.1875 232.09375 74.324219 232.339844 74.492188 C 232.585938 74.65625 232.816406 74.84375 233.027344 75.050781 C 233.234375 75.261719 233.421875 75.488281 233.585938 75.734375 C 233.75 75.984375 233.890625 76.242188 234.003906 76.515625 C 234.117188 76.789062 234.203125 77.074219 234.261719 77.363281 C 234.320312 77.65625 234.347656 77.949219 234.347656 78.246094 Z M 234.347656 78.246094 " fill-opacity="1" fill-rule="nonzero"/><path fill="#4c77f6" d="M 242.648438 101.125 C 242.648438 101.4375 242.585938 101.734375 242.46875 102.023438 C 242.351562 102.308594 242.179688 102.5625 241.960938 102.78125 C 241.742188 103 241.488281 103.171875 241.203125 103.289062 C 240.914062 103.40625 240.617188 103.46875 240.304688 103.46875 C 239.996094 103.46875 239.699219 103.40625 239.410156 103.289062 C 239.125 103.171875 238.871094 103 238.652344 102.78125 C 238.433594 102.5625 238.261719 102.308594 238.144531 102.023438 C 238.027344 101.734375 237.964844 101.4375 237.964844 101.125 C 237.964844 100.816406 238.027344 100.519531 238.144531 100.230469 C 238.261719 99.945312 238.433594 99.691406 238.652344 99.472656 C 238.871094 99.253906 239.125 99.082031 239.410156 98.964844 C 239.699219 98.847656 239.996094 98.785156 240.304688 98.785156 C 240.617188 98.785156 240.914062 98.847656 241.203125 98.964844 C 241.488281 99.082031 241.742188 99.253906 241.960938 99.472656 C 242.179688 99.691406 242.351562 99.945312 242.46875 100.230469 C 242.585938 100.519531 242.648438 100.816406 242.648438 101.125 Z M 242.648438 101.125 " fill-opacity="1" fill-rule="nonzero"/><g clip-path="url(#ba4e6793b4)"><path fill="#4c77f6" d="M 265.507812 41.835938 C 265.507812 42.042969 265.46875 42.238281 265.390625 42.429688 C 265.3125 42.617188 265.199219 42.785156 265.054688 42.929688 C 264.910156 43.074219 264.742188 43.1875 264.554688 43.265625 C 264.363281 43.34375 264.167969 43.382812 263.960938 43.382812 C 263.757812 43.382812 263.558594 43.34375 263.371094 43.265625 C 263.179688 43.1875 263.015625 43.074219 262.867188 42.929688 C 262.722656 42.785156 262.613281 42.617188 262.535156 42.429688 C 262.457031 42.238281 262.417969 42.042969 262.417969 41.835938 C 262.417969 41.632812 262.457031 41.433594 262.535156 41.246094 C 262.613281 41.054688 262.722656 40.890625 262.867188 40.742188 C 263.015625 40.597656 263.179688 40.488281 263.371094 40.410156 C 263.558594 40.332031 263.757812 40.292969 263.960938 40.292969 C 264.167969 40.292969 264.363281 40.332031 264.554688 40.410156 C 264.742188 40.488281 264.910156 40.597656 265.054688 40.742188 C 265.199219 40.890625 265.3125 41.054688 265.390625 41.246094 C 265.46875 41.433594 265.507812 41.632812 265.507812 41.835938 Z M 265.507812 41.835938 " fill-opacity="1" fill-rule="nonzero"/></g><path fill="#4c77f6" d="M 271.402344 46.597656 C 271.402344 46.871094 271.351562 47.136719 271.246094 47.390625 C 271.140625 47.644531 270.988281 47.867188 270.796875 48.0625 C 270.601562 48.257812 270.375 48.40625 270.121094 48.511719 C 269.867188 48.617188 269.601562 48.671875 269.328125 48.671875 C 269.054688 48.671875 268.789062 48.617188 268.535156 48.511719 C 268.28125 48.40625 268.054688 48.257812 267.863281 48.0625 C 267.667969 47.867188 267.515625 47.644531 267.410156 47.390625 C 267.304688 47.136719 267.253906 46.871094 267.253906 46.597656 C 267.253906 46.320312 267.304688 46.058594 267.410156 45.804688 C 267.515625 45.546875 267.667969 45.324219 267.863281 45.128906 C 268.054688 44.933594 268.28125 44.785156 268.535156 44.679688 C 268.789062 44.574219 269.054688 44.523438 269.328125 44.523438 C 269.601562 44.523438 269.867188 44.574219 270.121094 44.679688 C 270.375 44.785156 270.601562 44.933594 270.796875 45.128906 C 270.988281 45.324219 271.140625 45.546875 271.246094 45.804688 C 271.351562 46.058594 271.402344 46.320312 271.402344 46.597656 Z M 271.402344 46.597656 " fill-opacity="1" fill-rule="nonzero"/><path fill="#4c77f6" d="M 279.507812 69.214844 C 279.507812 69.648438 279.464844 70.078125 279.382812 70.507812 C 279.296875 70.933594 279.171875 71.347656 279.003906 71.75 C 278.835938 72.152344 278.632812 72.535156 278.390625 72.898438 C 278.148438 73.257812 277.875 73.59375 277.566406 73.902344 C 277.257812 74.210938 276.921875 74.484375 276.5625 74.726562 C 276.199219 74.96875 275.816406 75.171875 275.414062 75.339844 C 275.011719 75.507812 274.597656 75.632812 274.171875 75.714844 C 273.746094 75.800781 273.3125 75.84375 272.878906 75.84375 C 272.441406 75.84375 272.011719 75.800781 271.585938 75.714844 C 271.15625 75.632812 270.742188 75.507812 270.339844 75.339844 C 269.9375 75.171875 269.554688 74.96875 269.195312 74.726562 C 268.832031 74.484375 268.496094 74.210938 268.1875 73.902344 C 267.882812 73.59375 267.605469 73.257812 267.363281 72.898438 C 267.121094 72.535156 266.917969 72.152344 266.75 71.75 C 266.585938 71.347656 266.460938 70.933594 266.375 70.507812 C 266.289062 70.078125 266.246094 69.648438 266.246094 69.214844 C 266.246094 68.777344 266.289062 68.347656 266.375 67.917969 C 266.460938 67.492188 266.585938 67.078125 266.75 66.675781 C 266.917969 66.273438 267.121094 65.890625 267.363281 65.53125 C 267.605469 65.167969 267.882812 64.832031 268.1875 64.523438 C 268.496094 64.21875 268.832031 63.941406 269.195312 63.699219 C 269.554688 63.457031 269.9375 63.253906 270.339844 63.085938 C 270.742188 62.921875 271.15625 62.796875 271.585938 62.710938 C 272.011719 62.625 272.441406 62.582031 272.878906 62.582031 C 273.3125 62.582031 273.746094 62.625 274.171875 62.710938 C 274.597656 62.796875 275.011719 62.921875 275.414062 63.085938 C 275.816406 63.253906 276.199219 63.457031 276.5625 63.699219 C 276.921875 63.941406 277.257812 64.21875 277.566406 64.523438 C 277.875 64.832031 278.148438 65.167969 278.390625 65.53125 C 278.632812 65.890625 278.835938 66.273438 279.003906 66.675781 C 279.171875 67.078125 279.296875 67.492188 279.382812 67.917969 C 279.464844 68.347656 279.507812 68.777344 279.507812 69.214844 Z M 279.507812 69.214844 " fill-opacity="1" fill-rule="nonzero"/><path fill="#4c77f6" d="M 296.925781 79.726562 C 296.925781 79.941406 296.882812 80.148438 296.800781 80.347656 C 296.71875 80.546875 296.601562 80.722656 296.449219 80.875 C 296.296875 81.03125 296.121094 81.148438 295.921875 81.230469 C 295.722656 81.3125 295.515625 81.351562 295.300781 81.351562 C 295.082031 81.351562 294.875 81.3125 294.675781 81.230469 C 294.476562 81.148438 294.300781 81.03125 294.148438 80.875 C 293.996094 80.722656 293.878906 80.546875 293.796875 80.347656 C 293.714844 80.148438 293.671875 79.941406 293.671875 79.726562 C 293.671875 79.511719 293.714844 79.304688 293.796875 79.105469 C 293.878906 78.90625 293.996094 78.730469 294.148438 78.578125 C 294.300781 78.421875 294.476562 78.304688 294.675781 78.222656 C 294.875 78.140625 295.082031 78.101562 295.300781 78.101562 C 295.515625 78.101562 295.722656 78.140625 295.921875 78.222656 C 296.121094 78.304688 296.296875 78.421875 296.449219 78.578125 C 296.601562 78.730469 296.71875 78.90625 296.800781 79.105469 C 296.882812 79.304688 296.925781 79.511719 296.925781 79.726562 Z M 296.925781 79.726562 " fill-opacity="1" fill-rule="nonzero"/><path fill="#4c77f6" d="M 341.566406 86.957031 C 341.566406 87.175781 341.523438 87.382812 341.441406 87.582031 C 341.359375 87.78125 341.242188 87.957031 341.089844 88.109375 C 340.9375 88.261719 340.761719 88.378906 340.5625 88.460938 C 340.363281 88.542969 340.15625 88.585938 339.9375 88.585938 C 339.722656 88.585938 339.515625 88.542969 339.316406 88.460938 C 339.117188 88.378906 338.941406 88.261719 338.789062 88.109375 C 338.636719 87.957031 338.519531 87.78125 338.4375 87.582031 C 338.355469 87.382812 338.3125 87.175781 338.3125 86.957031 C 338.3125 86.742188 338.355469 86.535156 338.4375 86.335938 C 338.519531 86.136719 338.636719 85.960938 338.789062 85.808594 C 338.941406 85.65625 339.117188 85.539062 339.316406 85.457031 C 339.515625 85.371094 339.722656 85.332031 339.9375 85.332031 C 340.15625 85.332031 340.363281 85.371094 340.5625 85.457031 C 340.761719 85.539062 340.9375 85.65625 341.089844 85.808594 C 341.242188 85.960938 341.359375 86.136719 341.441406 86.335938 C 341.523438 86.535156 341.566406 86.742188 341.566406 86.957031 Z M 341.566406 86.957031 " fill-opacity="1" fill-rule="nonzero"/><path fill="#4c77f6" d="M 306.511719 92.726562 C 306.511719 92.914062 306.476562 93.097656 306.402344 93.269531 C 306.332031 93.445312 306.226562 93.597656 306.09375 93.730469 C 305.960938 93.867188 305.808594 93.96875 305.632812 94.039062 C 305.457031 94.113281 305.277344 94.148438 305.085938 94.148438 C 304.898438 94.148438 304.71875 94.113281 304.542969 94.039062 C 304.367188 93.96875 304.214844 93.867188 304.082031 93.730469 C 303.949219 93.597656 303.84375 93.445312 303.773438 93.269531 C 303.699219 93.097656 303.664062 92.914062 303.664062 92.726562 C 303.664062 92.535156 303.699219 92.355469 303.773438 92.179688 C 303.84375 92.007812 303.949219 91.851562 304.082031 91.71875 C 304.214844 91.585938 304.367188 91.484375 304.542969 91.410156 C 304.71875 91.339844 304.898438 91.300781 305.085938 91.300781 C 305.277344 91.300781 305.457031 91.339844 305.632812 91.410156 C 305.808594 91.484375 305.960938 91.585938 306.09375 91.71875 C 306.226562 91.851562 306.332031 92.007812 306.402344 92.179688 C 306.476562 92.355469 306.511719 92.535156 306.511719 92.726562 Z M 306.511719 92.726562 " fill-opacity="1" fill-rule="nonzero"/><path fill="#4c77f6" d="M 325.996094 101.066406 C 325.996094 101.253906 325.960938 101.4375 325.886719 101.613281 C 325.816406 101.785156 325.710938 101.941406 325.578125 102.074219 C 325.445312 102.207031 325.292969 102.308594 325.117188 102.382812 C 324.941406 102.453125 324.761719 102.492188 324.574219 102.492188 C 324.382812 102.492188 324.203125 102.453125 324.027344 102.382812 C 323.851562 102.308594 323.699219 102.207031 323.566406 102.074219 C 323.433594 101.941406 323.328125 101.785156 323.257812 101.613281 C 323.183594 101.4375 323.148438 101.253906 323.148438 101.066406 C 323.148438 100.878906 323.183594 100.695312 323.257812 100.523438 C 323.328125 100.347656 323.433594 100.195312 323.566406 100.058594 C 323.699219 99.925781 323.851562 99.824219 324.027344 99.75 C 324.203125 99.679688 324.382812 99.644531 324.574219 99.644531 C 324.761719 99.644531 324.941406 99.679688 325.117188 99.75 C 325.292969 99.824219 325.445312 99.925781 325.578125 100.058594 C 325.710938 100.195312 325.816406 100.347656 325.886719 100.523438 C 325.960938 100.695312 325.996094 100.878906 325.996094 101.066406 Z M 325.996094 101.066406 " fill-opacity="1" fill-rule="nonzero"/><path fill="#4c77f6" d="M 308.550781 108.398438 C 308.550781 108.640625 308.503906 108.875 308.410156 109.097656 C 308.320312 109.320312 308.1875 109.519531 308.015625 109.691406 C 307.84375 109.863281 307.644531 109.996094 307.421875 110.085938 C 307.199219 110.179688 306.964844 110.226562 306.722656 110.226562 C 306.480469 110.226562 306.246094 110.179688 306.023438 110.085938 C 305.796875 109.996094 305.601562 109.863281 305.429688 109.691406 C 305.257812 109.519531 305.125 109.320312 305.03125 109.097656 C 304.9375 108.875 304.890625 108.640625 304.890625 108.398438 C 304.890625 108.15625 304.9375 107.921875 305.03125 107.699219 C 305.125 107.472656 305.257812 107.277344 305.429688 107.105469 C 305.601562 106.933594 305.796875 106.800781 306.023438 106.707031 C 306.246094 106.613281 306.480469 106.566406 306.722656 106.566406 C 306.964844 106.566406 307.199219 106.613281 307.421875 106.707031 C 307.644531 106.800781 307.84375 106.933594 308.015625 107.105469 C 308.1875 107.277344 308.320312 107.472656 308.410156 107.699219 C 308.503906 107.921875 308.550781 108.15625 308.550781 108.398438 Z M 308.550781 108.398438 " fill-opacity="1" fill-rule="nonzero"/><path fill="#4c77f6" d="M 336.230469 116.371094 C 336.230469 116.613281 336.183594 116.847656 336.089844 117.070312 C 336 117.292969 335.867188 117.492188 335.695312 117.664062 C 335.523438 117.835938 335.324219 117.96875 335.101562 118.058594 C 334.878906 118.152344 334.644531 118.199219 334.402344 118.199219 C 334.160156 118.199219 333.925781 118.152344 333.703125 118.058594 C 333.476562 117.96875 333.28125 117.835938 333.109375 117.664062 C 332.9375 117.492188 332.804688 117.292969 332.710938 117.070312 C 332.617188 116.847656 332.574219 116.613281 332.574219 116.371094 C 332.574219 116.128906 332.617188 115.894531 332.710938 115.671875 C 332.804688 115.445312 332.9375 115.25 333.109375 115.078125 C 333.28125 114.90625 333.476562 114.773438 333.703125 114.679688 C 333.925781 114.585938 334.160156 114.539062 334.402344 114.539062 C 334.644531 114.539062 334.878906 114.585938 335.101562 114.679688 C 335.324219 114.773438 335.523438 114.90625 335.695312 115.078125 C 335.867188 115.25 336 115.445312 336.089844 115.671875 C 336.183594 115.894531 336.230469 116.128906 336.230469 116.371094 Z M 336.230469 116.371094 " fill-opacity="1" fill-rule="nonzero"/><g clip-path="url(#8ced8f68d4)"><path fill="#4c77f6" d="M 364.949219 86.054688 C 364.949219 86.296875 364.902344 86.53125 364.8125 86.753906 C 364.71875 86.980469 364.585938 87.175781 364.414062 87.347656 C 364.242188 87.519531 364.042969 87.652344 363.820312 87.746094 C 363.597656 87.835938 363.363281 87.882812 363.121094 87.882812 C 362.878906 87.882812 362.644531 87.835938 362.421875 87.746094 C 362.195312 87.652344 362 87.519531 361.828125 87.347656 C 361.65625 87.175781 361.523438 86.980469 361.429688 86.753906 C 361.335938 86.53125 361.292969 86.296875 361.292969 86.054688 C 361.292969 85.8125 361.335938 85.578125 361.429688 85.355469 C 361.523438 85.128906 361.65625 84.933594 361.828125 84.761719 C 362 84.589844 362.195312 84.457031 362.421875 84.363281 C 362.644531 84.273438 362.878906 84.226562 363.121094 84.226562 C 363.363281 84.226562 363.597656 84.273438 363.820312 84.363281 C 364.042969 84.457031 364.242188 84.589844 364.414062 84.761719 C 364.585938 84.933594 364.71875 85.128906 364.8125 85.355469 C 364.902344 85.578125 364.949219 85.8125 364.949219 86.054688 Z M 364.949219 86.054688 " fill-opacity="1" fill-rule="nonzero"/></g><path fill="#4c77f6" d="M 322.863281 85.429688 C 322.863281 85.710938 322.8125 85.980469 322.703125 86.238281 C 322.597656 86.5 322.441406 86.726562 322.246094 86.925781 C 322.046875 87.125 321.816406 87.277344 321.558594 87.382812 C 321.300781 87.492188 321.03125 87.546875 320.75 87.546875 C 320.46875 87.546875 320.199219 87.492188 319.9375 87.382812 C 319.679688 87.277344 319.449219 87.125 319.253906 86.925781 C 319.054688 86.726562 318.902344 86.5 318.792969 86.238281 C 318.6875 85.980469 318.632812 85.710938 318.632812 85.429688 C 318.632812 85.148438 318.6875 84.878906 318.792969 84.621094 C 318.902344 84.359375 319.054688 84.132812 319.253906 83.933594 C 319.449219 83.734375 319.679688 83.582031 319.9375 83.476562 C 320.199219 83.367188 320.46875 83.3125 320.75 83.3125 C 321.03125 83.3125 321.300781 83.367188 321.558594 83.476562 C 321.816406 83.582031 322.046875 83.734375 322.246094 83.933594 C 322.441406 84.132812 322.597656 84.359375 322.703125 84.621094 C 322.8125 84.878906 322.863281 85.148438 322.863281 85.429688 Z M 322.863281 85.429688 " fill-opacity="1" fill-rule="nonzero"/><path fill="#4c77f6" d="M 360.289062 72 C 360.289062 72.398438 360.25 72.796875 360.171875 73.1875 C 360.09375 73.582031 359.976562 73.964844 359.824219 74.332031 C 359.671875 74.703125 359.480469 75.054688 359.257812 75.386719 C 359.035156 75.722656 358.785156 76.03125 358.5 76.3125 C 358.21875 76.597656 357.910156 76.847656 357.574219 77.070312 C 357.242188 77.292969 356.890625 77.480469 356.519531 77.636719 C 356.152344 77.789062 355.769531 77.90625 355.375 77.984375 C 354.984375 78.0625 354.585938 78.101562 354.1875 78.101562 C 353.785156 78.101562 353.390625 78.0625 352.996094 77.984375 C 352.601562 77.90625 352.222656 77.789062 351.851562 77.636719 C 351.480469 77.480469 351.128906 77.292969 350.796875 77.070312 C 350.464844 76.847656 350.15625 76.597656 349.871094 76.3125 C 349.589844 76.03125 349.335938 75.722656 349.113281 75.386719 C 348.890625 75.054688 348.703125 74.703125 348.550781 74.332031 C 348.394531 73.964844 348.28125 73.582031 348.203125 73.1875 C 348.125 72.796875 348.085938 72.398438 348.085938 72 C 348.085938 71.597656 348.125 71.199219 348.203125 70.808594 C 348.28125 70.414062 348.394531 70.035156 348.550781 69.664062 C 348.703125 69.292969 348.890625 68.941406 349.113281 68.609375 C 349.335938 68.273438 349.589844 67.96875 349.871094 67.683594 C 350.15625 67.398438 350.464844 67.148438 350.796875 66.925781 C 351.128906 66.703125 351.480469 66.515625 351.851562 66.359375 C 352.222656 66.207031 352.601562 66.09375 352.996094 66.015625 C 353.390625 65.9375 353.785156 65.898438 354.1875 65.898438 C 354.585938 65.898438 354.984375 65.9375 355.375 66.015625 C 355.769531 66.09375 356.152344 66.207031 356.519531 66.359375 C 356.890625 66.515625 357.242188 66.703125 357.574219 66.925781 C 357.910156 67.148438 358.21875 67.398438 358.5 67.683594 C 358.785156 67.96875 359.035156 68.273438 359.257812 68.609375 C 359.480469 68.941406 359.671875 69.292969 359.824219 69.664062 C 359.976562 70.035156 360.09375 70.414062 360.171875 70.808594 C 360.25 71.199219 360.289062 71.597656 360.289062 72 Z M 360.289062 72 " fill-opacity="1" fill-rule="nonzero"/><path fill="#ffbd59" d="M 48.324219 113.660156 C 38.160156 85.761719 69.046875 51.371094 99.082031 60.210938 C 103.511719 61.511719 107.457031 61.902344 108.695312 58.691406 C 109.6875 56.121094 117.882812 58.648438 116.179688 56.171875 C 114.132812 53.203125 104.613281 50.347656 100.289062 49.636719 C 64.03125 43.683594 33.585938 81.144531 48.324219 113.660156 Z M 48.324219 113.660156 " fill-opacity="1" fill-rule="evenodd"/><path fill="#ffbd59" d="M 42.238281 84.617188 C 36.222656 85.148438 32.476562 82.101562 28.144531 79.984375 C 16.039062 74.074219 2.449219 81.84375 25.359375 86.238281 C 33.605469 87.820312 42.855469 88.191406 42.238281 84.617188 Z M 43.617188 110.566406 C 38.671875 114.035156 34.304688 114.199219 30.050781 115.429688 C 18.878906 118.667969 10.621094 132.957031 30.164062 121.28125 C 38.71875 116.171875 46.035156 111.253906 43.617188 110.566406 Z M 101.75 45.90625 C 101.21875 39.890625 105.339844 36.019531 108.292969 31.5 C 115.628906 20.273438 113.097656 6.992188 102.789062 28.917969 C 99.460938 35.996094 96.617188 43.84375 101.75 45.90625 Z M 74.617188 45.777344 C 71.441406 40.992188 75.605469 34.902344 76.34375 29.925781 C 78.417969 15.949219 70.914062 2.605469 69.121094 28.574219 C 68.453125 38.253906 70.667969 45.40625 74.617188 45.777344 Z M 54.019531 61.453125 C 50.503906 59.097656 47.855469 53.554688 43.753906 48.347656 C 32.492188 34.050781 16.847656 33.367188 37.625 51.097656 C 47.238281 59.300781 50.632812 63.097656 54.019531 61.453125 Z M 54.019531 61.453125 " fill-opacity="1" fill-rule="evenodd"/><path fill="#e3e2e3" d="M 55.394531 80.699219 C 50.039062 88.820312 47.765625 98.007812 48.324219 106.714844 C 48.699219 98.589844 51.335938 90.15625 56.382812 82.507812 C 64.25 70.585938 76.175781 63.28125 88.125 61.757812 C 75.695312 62.144531 63.210938 68.855469 55.394531 80.699219 Z M 55.394531 80.699219 " fill-opacity="1" fill-rule="evenodd"/></svg>