<svg xmlns="http://www.w3.org/2000/svg" xmlns:xlink="http://www.w3.org/1999/xlink" width="500" zoomAndPan="magnify" viewBox="0 0 375 374.999991" height="500" preserveAspectRatio="xMidYMid meet" version="1.0"><defs><g/><clipPath id="d76e7c2d89"><path d="M 11.246094 124.78125 L 363.746094 124.78125 L 363.746094 301.03125 L 11.246094 301.03125 Z M 11.246094 124.78125 " clip-rule="nonzero"/></clipPath><clipPath id="b25ec72fbb"><path d="M 148 262 L 227 262 L 227 301.03125 L 148 301.03125 Z M 148 262 " clip-rule="nonzero"/></clipPath></defs><g clip-path="url(#d76e7c2d89)"><path fill="#f3e198" d="M 150.40625 300.679688 C 150.445312 295.820312 151.421875 291.199219 153.1875 286.96875 L 21 242.242188 L 29.300781 222.617188 L 153.5 286.265625 C 155.300781 282.074219 157.886719 278.3125 161.019531 275.101562 L 55.347656 183.921875 L 70.425781 168.84375 L 161.566406 274.515625 C 164.898438 271.265625 168.851562 268.601562 173.238281 266.757812 L 111.316406 141.738281 L 131.058594 133.710938 L 173.867188 266.523438 C 177.976562 264.917969 182.40625 263.980469 187.105469 263.941406 L 176.84375 124.78125 L 198.148438 124.78125 L 187.847656 263.941406 C 192.707031 263.980469 197.328125 264.957031 201.558594 266.71875 L 246.285156 134.53125 L 265.90625 142.835938 L 202.261719 266.996094 C 206.453125 268.796875 210.210938 271.382812 213.425781 274.515625 L 304.605469 168.882812 L 319.683594 183.960938 L 213.972656 275.0625 C 217.222656 278.390625 219.886719 282.347656 221.726562 286.734375 L 346.785156 224.851562 L 354.816406 244.589844 L 222 287.441406 C 223.609375 291.550781 224.546875 295.976562 224.585938 300.679688 L 363.746094 290.378906 L 363.746094 301.03125 L 11.246094 301.03125 L 11.246094 290.378906 Z M 150.40625 300.679688 " fill-opacity="1" fill-rule="nonzero"/></g><g clip-path="url(#b25ec72fbb)"><path fill="#fcc22d" d="M 226.035156 301.03125 L 148.957031 301.03125 C 148.957031 279.761719 166.226562 262.492188 187.496094 262.492188 C 208.761719 262.492188 226.035156 279.761719 226.035156 301.03125 Z M 226.035156 301.03125 " fill-opacity="1" fill-rule="nonzero"/></g><g fill="#f29c38" fill-opacity="1"><g transform="translate(48.805027, 144.247682)"><g><path d="M 12.953125 -9.359375 C 10.878906 -7.796875 8.765625 -6.726562 6.609375 -6.15625 C 4.460938 -5.582031 2.398438 -5.582031 0.421875 -6.15625 C -1.546875 -6.726562 -3.257812 -7.921875 -4.71875 -9.734375 L 2.625 -15.296875 C 3.519531 -14.335938 4.484375 -13.816406 5.515625 -13.734375 C 6.546875 -13.648438 7.5625 -13.988281 8.5625 -14.75 C 9.582031 -15.519531 10.207031 -16.363281 10.4375 -17.28125 C 10.664062 -18.195312 10.46875 -19.066406 9.84375 -19.890625 C 9.3125 -20.585938 8.640625 -20.984375 7.828125 -21.078125 C 7.015625 -21.179688 6.148438 -21.117188 5.234375 -20.890625 C 4.328125 -20.671875 3.097656 -20.273438 1.546875 -19.703125 C -0.703125 -18.878906 -2.613281 -18.3125 -4.1875 -18 C -5.769531 -17.6875 -7.394531 -17.765625 -9.0625 -18.234375 C -10.738281 -18.710938 -12.25 -19.835938 -13.59375 -21.609375 C -15.582031 -24.234375 -16.1875 -27.015625 -15.40625 -29.953125 C -14.625 -32.890625 -12.703125 -35.515625 -9.640625 -37.828125 C -6.523438 -40.191406 -3.445312 -41.347656 -0.40625 -41.296875 C 2.625 -41.253906 5.207031 -39.957031 7.34375 -37.40625 L -0.09375 -31.765625 C -0.84375 -32.628906 -1.722656 -33.085938 -2.734375 -33.140625 C -3.742188 -33.203125 -4.734375 -32.863281 -5.703125 -32.125 C -6.535156 -31.5 -7.039062 -30.769531 -7.21875 -29.9375 C -7.394531 -29.113281 -7.164062 -28.285156 -6.53125 -27.453125 C -5.84375 -26.546875 -4.875 -26.160156 -3.625 -26.296875 C -2.382812 -26.441406 -0.625 -26.910156 1.65625 -27.703125 C 3.945312 -28.460938 5.875 -28.992188 7.4375 -29.296875 C 9.007812 -29.609375 10.617188 -29.535156 12.265625 -29.078125 C 13.910156 -28.628906 15.375 -27.5625 16.65625 -25.875 C 17.875 -24.257812 18.570312 -22.484375 18.75 -20.546875 C 18.925781 -18.617188 18.535156 -16.675781 17.578125 -14.71875 C 16.617188 -12.757812 15.078125 -10.972656 12.953125 -9.359375 Z M 12.953125 -9.359375 "/></g></g></g><g fill="#f29c38" fill-opacity="1"><g transform="translate(73.596593, 125.415964)"><g><path d="M 14.234375 -7.25 C 11.804688 -5.925781 9.335938 -5.257812 6.828125 -5.25 C 4.328125 -5.25 2.003906 -5.90625 -0.140625 -7.21875 C -2.296875 -8.539062 -4.070312 -10.492188 -5.46875 -13.078125 C -6.84375 -15.617188 -7.492188 -18.164062 -7.421875 -20.71875 C -7.359375 -23.269531 -6.628906 -25.59375 -5.234375 -27.6875 C -3.835938 -29.78125 -1.921875 -31.488281 0.515625 -32.8125 C 2.941406 -34.125 5.410156 -34.789062 7.921875 -34.8125 C 10.441406 -34.84375 12.789062 -34.191406 14.96875 -32.859375 C 17.15625 -31.523438 18.9375 -29.585938 20.3125 -27.046875 C 21.695312 -24.492188 22.34375 -21.9375 22.25 -19.375 C 22.15625 -16.820312 21.40625 -14.488281 20 -12.375 C 18.59375 -10.269531 16.671875 -8.5625 14.234375 -7.25 Z M 10.671875 -13.828125 C 12.117188 -14.609375 13.066406 -15.8125 13.515625 -17.4375 C 13.960938 -19.0625 13.648438 -20.867188 12.578125 -22.859375 C 11.503906 -24.835938 10.179688 -26.085938 8.609375 -26.609375 C 7.035156 -27.140625 5.523438 -27.015625 4.078125 -26.234375 C 2.585938 -25.429688 1.632812 -24.238281 1.21875 -22.65625 C 0.8125 -21.070312 1.15625 -19.273438 2.25 -17.265625 C 3.320312 -15.273438 4.628906 -14.003906 6.171875 -13.453125 C 7.722656 -12.910156 9.222656 -13.035156 10.671875 -13.828125 Z M 10.671875 -13.828125 "/></g></g></g><g fill="#f29c38" fill-opacity="1"><g transform="translate(102.687211, 110.27098)"><g><path d="M -2.9375 -39.109375 L 10.9375 -4.375 L 2.921875 -1.171875 L -10.953125 -35.90625 Z M -2.9375 -39.109375 "/></g></g></g><g fill="#f29c38" fill-opacity="1"><g transform="translate(116.867791, 104.008803)"><g><path d="M -2.25 -14.046875 C -2.988281 -16.835938 -3.109375 -19.429688 -2.609375 -21.828125 C -2.117188 -24.234375 -1.113281 -26.25 0.40625 -27.875 C 1.925781 -29.5 3.804688 -30.609375 6.046875 -31.203125 C 7.972656 -31.710938 9.757812 -31.769531 11.40625 -31.375 C 13.0625 -30.976562 14.457031 -30.25 15.59375 -29.1875 L 14.5625 -33.046875 L 22.90625 -35.265625 L 30.140625 -8 L 21.796875 -5.78125 L 20.765625 -9.640625 C 20.296875 -8.148438 19.4375 -6.820312 18.1875 -5.65625 C 16.945312 -4.488281 15.367188 -3.648438 13.453125 -3.140625 C 11.234375 -2.554688 9.054688 -2.597656 6.921875 -3.265625 C 4.796875 -3.941406 2.921875 -5.207031 1.296875 -7.0625 C -0.328125 -8.914062 -1.507812 -11.242188 -2.25 -14.046875 Z M 18.1875 -19.421875 C 17.632812 -21.503906 16.613281 -22.992188 15.125 -23.890625 C 13.644531 -24.785156 12.078125 -25.015625 10.421875 -24.578125 C 8.765625 -24.128906 7.515625 -23.15625 6.671875 -21.65625 C 5.828125 -20.164062 5.679688 -18.378906 6.234375 -16.296875 C 6.785156 -14.210938 7.800781 -12.710938 9.28125 -11.796875 C 10.769531 -10.878906 12.34375 -10.644531 14 -11.09375 C 15.65625 -11.53125 16.90625 -12.503906 17.75 -14.015625 C 18.59375 -15.535156 18.738281 -17.335938 18.1875 -19.421875 Z M 18.1875 -19.421875 "/></g></g></g><g fill="#f29c38" fill-opacity="1"><g transform="translate(150.424208, 95.577434)"><g><path d="M 8.796875 -24.78125 C 9.617188 -26.4375 10.722656 -27.800781 12.109375 -28.875 C 13.503906 -29.945312 15.125 -30.597656 16.96875 -30.828125 L 18.09375 -21.75 L 15.734375 -21.46875 C 13.597656 -21.195312 12.050781 -20.535156 11.09375 -19.484375 C 10.132812 -18.429688 9.796875 -16.753906 10.078125 -14.453125 L 11.6875 -1.453125 L 3.109375 -0.390625 L -0.359375 -28.375 L 8.21875 -29.4375 Z M 8.796875 -24.78125 "/></g></g></g><g fill="#f3a33a" fill-opacity="1"><g transform="translate(173.074784, 93.048035)"><g/></g></g><g fill="#aa1155" fill-opacity="1"><g transform="translate(184.857086, 92.327392)"><g><path d="M 12.09375 -6.078125 L 23.390625 -5.53125 L 23.0625 1.125 L 3.140625 0.15625 L 4.875 -35.28125 L 13.5 -34.859375 Z M 12.09375 -6.078125 "/></g></g></g><g fill="#aa1155" fill-opacity="1"><g transform="translate(209.293946, 93.312224)"><g><path d="M 31.875 -8.890625 C 31.726562 -8.097656 31.519531 -7.28125 31.25 -6.4375 L 12.03125 -10 C 11.84375 -8.257812 12.148438 -6.84375 12.953125 -5.75 C 13.765625 -4.65625 14.882812 -3.976562 16.3125 -3.71875 C 18.425781 -3.320312 20.066406 -3.9375 21.234375 -5.5625 L 30.28125 -3.890625 C 29.488281 -2.160156 28.351562 -0.679688 26.875 0.546875 C 25.394531 1.785156 23.660156 2.648438 21.671875 3.140625 C 19.691406 3.640625 17.578125 3.679688 15.328125 3.265625 C 12.617188 2.765625 10.3125 1.734375 8.40625 0.171875 C 6.507812 -1.390625 5.160156 -3.351562 4.359375 -5.71875 C 3.554688 -8.09375 3.425781 -10.722656 3.96875 -13.609375 C 4.5 -16.484375 5.550781 -18.890625 7.125 -20.828125 C 8.707031 -22.773438 10.664062 -24.128906 13 -24.890625 C 15.332031 -25.648438 17.875 -25.773438 20.625 -25.265625 C 23.3125 -24.765625 25.59375 -23.757812 27.46875 -22.25 C 29.34375 -20.738281 30.671875 -18.828125 31.453125 -16.515625 C 32.242188 -14.210938 32.382812 -11.671875 31.875 -8.890625 Z M 23.59375 -12.734375 C 23.863281 -14.203125 23.582031 -15.457031 22.75 -16.5 C 21.914062 -17.550781 20.75 -18.210938 19.25 -18.484375 C 17.832031 -18.753906 16.554688 -18.5625 15.421875 -17.90625 C 14.285156 -17.257812 13.460938 -16.195312 12.953125 -14.71875 Z M 23.59375 -12.734375 "/></g></g></g><g fill="#aa1155" fill-opacity="1"><g transform="translate(239.911589, 98.858726)"><g><path d="M 6.0625 -12.875 C 7.03125 -15.601562 8.394531 -17.816406 10.15625 -19.515625 C 11.925781 -21.222656 13.894531 -22.316406 16.0625 -22.796875 C 18.226562 -23.273438 20.40625 -23.125 22.59375 -22.34375 C 24.46875 -21.6875 25.976562 -20.722656 27.125 -19.453125 C 28.269531 -18.191406 29.003906 -16.804688 29.328125 -15.296875 L 30.65625 -19.046875 L 38.8125 -16.171875 L 29.40625 10.40625 L 21.25 7.53125 L 22.578125 3.765625 C 21.347656 4.722656 19.890625 5.332031 18.203125 5.59375 C 16.515625 5.851562 14.734375 5.65625 12.859375 5 C 10.703125 4.226562 8.9375 2.960938 7.5625 1.203125 C 6.1875 -0.554688 5.351562 -2.660156 5.0625 -5.109375 C 4.769531 -7.554688 5.101562 -10.144531 6.0625 -12.875 Z M 25.953125 -5.765625 C 26.679688 -7.796875 26.6875 -9.597656 25.96875 -11.171875 C 25.25 -12.753906 24.082031 -13.832031 22.46875 -14.40625 C 20.84375 -14.976562 19.265625 -14.882812 17.734375 -14.125 C 16.203125 -13.363281 15.070312 -11.96875 14.34375 -9.9375 C 13.625 -7.90625 13.613281 -6.09375 14.3125 -4.5 C 15.019531 -2.90625 16.1875 -1.820312 17.8125 -1.25 C 19.425781 -0.675781 21.003906 -0.773438 22.546875 -1.546875 C 24.097656 -2.328125 25.234375 -3.734375 25.953125 -5.765625 Z M 25.953125 -5.765625 "/></g></g></g><g fill="#aa1155" fill-opacity="1"><g transform="translate(272.135431, 110.256034)"><g><path d="M 8.09375 -11.703125 C 9.488281 -14.242188 11.195312 -16.207031 13.21875 -17.59375 C 15.238281 -18.988281 17.351562 -19.742188 19.5625 -19.859375 C 21.78125 -19.984375 23.910156 -19.484375 25.953125 -18.359375 C 27.566406 -17.460938 28.859375 -16.300781 29.828125 -14.875 C 30.804688 -13.457031 31.359375 -11.960938 31.484375 -10.390625 L 37.8125 -21.859375 L 45.375 -17.671875 L 27.296875 15.078125 L 19.734375 10.890625 L 21.6875 7.34375 C 20.320312 8.144531 18.785156 8.535156 17.078125 8.515625 C 15.378906 8.492188 13.660156 8.003906 11.921875 7.046875 C 9.878906 5.921875 8.328125 4.375 7.265625 2.40625 C 6.203125 0.445312 5.722656 -1.757812 5.828125 -4.21875 C 5.929688 -6.675781 6.6875 -9.171875 8.09375 -11.703125 Z M 26.546875 -1.46875 C 27.585938 -3.351562 27.882812 -5.128906 27.4375 -6.796875 C 27 -8.460938 26.023438 -9.710938 24.515625 -10.546875 C 23.015625 -11.367188 21.441406 -11.53125 19.796875 -11.03125 C 18.160156 -10.53125 16.820312 -9.335938 15.78125 -7.453125 C 14.738281 -5.566406 14.429688 -3.78125 14.859375 -2.09375 C 15.296875 -0.40625 16.265625 0.847656 17.765625 1.671875 C 19.273438 2.503906 20.851562 2.660156 22.5 2.140625 C 24.15625 1.628906 25.503906 0.425781 26.546875 -1.46875 Z M 26.546875 -1.46875 "/></g></g></g><g fill="#aa1155" fill-opacity="1"><g transform="translate(302.117644, 127.072599)"><g><path d="M 11.34375 9.21875 C 9.382812 7.726562 7.898438 6.0625 6.890625 4.21875 C 5.890625 2.375 5.390625 0.535156 5.390625 -1.296875 C 5.398438 -3.140625 5.910156 -4.828125 6.921875 -6.359375 L 13.703125 -1.15625 C 13.171875 -0.3125 13.039062 0.59375 13.3125 1.5625 C 13.59375 2.53125 14.203125 3.375 15.140625 4.09375 C 15.992188 4.757812 16.78125 5.101562 17.5 5.125 C 18.226562 5.144531 18.796875 4.890625 19.203125 4.359375 C 19.691406 3.710938 19.722656 2.976562 19.296875 2.15625 C 18.867188 1.34375 18.050781 0.171875 16.84375 -1.359375 C 15.519531 -2.960938 14.484375 -4.378906 13.734375 -5.609375 C 12.984375 -6.835938 12.5625 -8.195312 12.46875 -9.6875 C 12.382812 -11.175781 12.925781 -12.679688 14.09375 -14.203125 C 15.082031 -15.492188 16.332031 -16.394531 17.84375 -16.90625 C 19.363281 -17.414062 21.046875 -17.445312 22.890625 -17 C 24.742188 -16.5625 26.625 -15.613281 28.53125 -14.15625 C 31.332031 -12 33.007812 -9.609375 33.5625 -6.984375 C 34.113281 -4.359375 33.625 -1.796875 32.09375 0.703125 L 25.765625 -4.171875 C 26.253906 -5.035156 26.382812 -5.910156 26.15625 -6.796875 C 25.9375 -7.691406 25.359375 -8.5 24.421875 -9.21875 C 23.617188 -9.832031 22.882812 -10.148438 22.21875 -10.171875 C 21.5625 -10.203125 21.023438 -9.945312 20.609375 -9.40625 C 20.117188 -8.757812 20.085938 -8.015625 20.515625 -7.171875 C 20.953125 -6.335938 21.769531 -5.203125 22.96875 -3.765625 C 24.300781 -2.066406 25.328125 -0.613281 26.046875 0.59375 C 26.765625 1.8125 27.164062 3.179688 27.25 4.703125 C 27.34375 6.234375 26.800781 7.785156 25.625 9.359375 C 24.625 10.671875 23.359375 11.554688 21.828125 12.015625 C 20.304688 12.484375 18.628906 12.484375 16.796875 12.015625 C 14.972656 11.546875 13.15625 10.613281 11.34375 9.21875 Z M 11.34375 9.21875 "/></g></g></g></svg>