<svg xmlns="http://www.w3.org/2000/svg" xmlns:xlink="http://www.w3.org/1999/xlink" width="500" zoomAndPan="magnify" viewBox="0 0 375 374.999991" height="500" preserveAspectRatio="xMidYMid meet" version="1.0"><defs><g/></defs><g fill="#4c77f6" fill-opacity="1"><g transform="translate(118.866815, 298.231824)"><g><path d="M 65.734375 -30.859375 L 71.09375 -30.859375 C 76.28125 -30.859375 80.484375 -29.335938 83.703125 -26.296875 C 86.921875 -23.253906 88.53125 -19.316406 88.53125 -14.484375 C 88.53125 -9.660156 86.921875 -5.816406 83.703125 -2.953125 C 80.484375 -0.0859375 76.28125 1.34375 71.09375 1.34375 L 65.734375 1.34375 C 60.546875 1.34375 56.34375 -0.0390625 53.125 -2.8125 C 49.90625 -5.582031 48.296875 -9.472656 48.296875 -14.484375 C 48.296875 -19.316406 49.90625 -23.253906 53.125 -26.296875 C 56.34375 -29.335938 60.546875 -30.859375 65.734375 -30.859375 Z M 131.46875 -136.828125 C 131.46875 -129.140625 130.257812 -122.117188 127.84375 -115.765625 C 125.425781 -109.421875 121.984375 -103.878906 117.515625 -99.140625 C 113.046875 -94.398438 107.679688 -90.640625 101.421875 -87.859375 C 95.160156 -85.085938 88.269531 -83.523438 80.75 -83.171875 L 80.75 -55 L 56.609375 -55 L 56.609375 -103.296875 L 70.03125 -103.296875 C 81.65625 -103.296875 90.773438 -106.242188 97.390625 -112.140625 C 104.003906 -118.046875 107.3125 -126.273438 107.3125 -136.828125 C 107.3125 -147.378906 104.003906 -155.609375 97.390625 -161.515625 C 90.773438 -167.421875 81.5625 -170.375 69.75 -170.375 L 36.21875 -170.375 L 36.21875 -193.171875 L 69.75 -193.171875 C 79.238281 -193.171875 87.78125 -191.875 95.375 -189.28125 C 102.976562 -186.6875 109.460938 -182.929688 114.828125 -178.015625 C 120.191406 -173.097656 124.304688 -167.148438 127.171875 -160.171875 C 130.035156 -153.191406 131.46875 -145.410156 131.46875 -136.828125 Z M 131.46875 -136.828125 "/></g></g></g><path stroke-linecap="butt" transform="matrix(0.75, 0, 0, 0.75, 107.009762, -0.12521)" fill="none" stroke-linejoin="miter" d="M 87.684906 340.864885 L 94.757823 340.864885 C 101.684907 340.864885 107.304699 342.901344 111.611991 346.979469 C 115.919283 350.995094 118.075533 356.234678 118.075533 362.69822 C 118.075533 369.104471 115.919283 374.229471 111.611991 378.068013 C 107.304699 381.854471 101.684907 383.745097 94.757823 383.745097 L 87.684906 383.745097 C 80.752614 383.745097 75.13803 381.911763 70.82553 378.245096 C 66.518238 374.578429 64.367196 369.396137 64.367196 362.69822 C 64.367196 356.234678 66.518238 350.995094 70.82553 346.979469 C 75.13803 342.901344 80.752614 340.864885 87.684906 340.864885 Z M 175.278662 199.557585 C 175.278662 209.807585 173.648453 219.182586 170.388036 227.682586 C 167.184911 236.125295 162.617203 243.515921 156.679702 249.864879 C 150.736994 256.151338 143.575535 261.156547 135.195326 264.885714 C 126.8672 268.552381 117.695325 270.620089 107.684907 271.083631 L 107.684907 308.640925 L 75.455739 308.640925 L 75.455739 244.276337 L 93.36199 244.276337 C 108.846366 244.276337 120.986992 240.344046 129.778659 232.48467 C 138.627618 224.625294 143.054701 213.651335 143.054701 199.557585 C 143.054701 185.469042 138.627618 174.495083 129.778659 166.635707 C 120.986992 158.776332 108.731782 154.84404 93.013031 154.84404 L 48.294278 154.84404 L 48.294278 124.453413 L 93.013031 124.453413 C 105.643241 124.453413 117.028658 126.198205 127.158867 129.692997 C 137.289076 133.125288 145.93491 138.135705 153.096369 144.713831 C 160.257827 151.234665 165.731786 159.151332 169.513036 168.469041 C 173.356787 177.72425 175.278662 188.088834 175.278662 199.557585 Z M 175.278662 199.557585 " stroke="#ffbd59" stroke-width="13.414725" stroke-opacity="1" stroke-miterlimit="4"/></svg>