<svg xmlns="http://www.w3.org/2000/svg" xmlns:xlink="http://www.w3.org/1999/xlink" width="500" zoomAndPan="magnify" viewBox="0 0 375 374.999991" height="500" preserveAspectRatio="xMidYMid meet" version="1.0"><defs><g/><clipPath id="fa54b79108"><path d="M 151.289062 114 L 342.492188 114 L 342.492188 256 L 151.289062 256 Z M 151.289062 114 " clip-rule="nonzero"/></clipPath><clipPath id="7486cf09b9"><path d="M 151.289062 82 L 342.492188 82 L 342.492188 255 L 151.289062 255 Z M 151.289062 82 " clip-rule="nonzero"/></clipPath><clipPath id="bb1af5546f"><path d="M 151.289062 171 L 218 171 L 218 294 L 151.289062 294 Z M 151.289062 171 " clip-rule="nonzero"/></clipPath><clipPath id="34c2b4df5e"><path d="M 151.289062 192 L 218 192 L 218 295 L 151.289062 295 Z M 151.289062 192 " clip-rule="nonzero"/></clipPath><clipPath id="1ae7d47453"><path d="M 151.289062 163 L 342.492188 163 L 342.492188 268 L 151.289062 268 Z M 151.289062 163 " clip-rule="nonzero"/></clipPath><clipPath id="865c314e08"><path d="M 316 98 L 342.492188 98 L 342.492188 228 L 316 228 Z M 316 98 " clip-rule="nonzero"/></clipPath><clipPath id="1ff04bfa9d"><path d="M 151.289062 161 L 306 161 L 306 231 L 151.289062 231 Z M 151.289062 161 " clip-rule="nonzero"/></clipPath><clipPath id="f014027b46"><path d="M 174 285 L 186 285 L 186 296.160156 L 174 296.160156 Z M 174 285 " clip-rule="nonzero"/></clipPath></defs><g clip-path="url(#fa54b79108)"><path fill="#4c77f6" d="M 824.371094 255.460938 L 803.070312 217.117188 L 757.808594 236.429688 L 752.332031 197.496094 L 675.382812 139.039062 L 594.996094 218.222656 L 594.707031 218.15625 L 437.75 181.890625 L 437.640625 181.789062 L 415.632812 161.152344 L 371.285156 172.824219 L 396.640625 194.050781 L 376.363281 234.605469 L 318.453125 201.6875 L 318.515625 201.308594 L 332.449219 120.023438 L 304.839844 165.464844 L 249.082031 137.875 L 274.035156 176.757812 L 227.199219 255.222656 L 161.535156 174.5 L 128 197.347656 L 127.386719 196.445312 L 161.75 173.03125 L 227.058594 253.324219 L 272.75 176.777344 L 246.035156 135.152344 L 304.429688 164.042969 L 334.496094 114.554688 L 319.65625 201.117188 L 375.902344 233.089844 L 395.277344 194.335938 L 368.960938 172.304688 L 415.9375 159.941406 L 438.28125 180.894531 L 594.660156 217.023438 L 675.289062 137.597656 L 675.664062 137.882812 L 753.351562 196.898438 L 758.691406 234.867188 L 803.546875 215.726562 L 824.304688 253.085938 L 875.324219 146.839844 L 898.332031 180.5625 L 956.746094 126.5 L 957.488281 127.300781 L 898.144531 182.222656 L 875.488281 149.019531 Z M 824.371094 255.460938 " fill-opacity="1" fill-rule="nonzero"/></g><g clip-path="url(#7486cf09b9)"><path fill="#4c77f6" d="M 227.257812 254.960938 L 226.871094 254.757812 L 133.148438 204.890625 L 133.660156 203.925781 L 227.003906 253.589844 L 259.875 215.9375 L 260.039062 215.894531 L 318.722656 200.925781 L 335.046875 177.34375 L 335.417969 177.441406 L 395.699219 193.558594 L 415.476562 159.996094 L 415.789062 160 L 569.398438 161.800781 L 665.210938 82.863281 L 727.988281 163.75 L 803.28125 215.738281 L 942.953125 101.246094 L 943.644531 102.089844 L 803.335938 217.105469 L 727.226562 164.554688 L 727.175781 164.488281 L 665.035156 84.421875 L 569.785156 162.898438 L 416.09375 161.097656 L 396.214844 194.828125 L 395.816406 194.71875 L 335.503906 178.597656 L 319.386719 201.882812 L 260.472656 216.910156 Z M 227.257812 254.960938 " fill-opacity="1" fill-rule="nonzero"/></g><g clip-path="url(#bb1af5546f)"><path fill="#4c77f6" d="M 179.304688 293.367188 L 148.824219 222.34375 L 149.824219 221.914062 L 179.425781 290.882812 L 204.984375 244.460938 L 215.96875 199.046875 L 141.925781 172.175781 L 142.300781 171.148438 L 217.261719 198.351562 L 206.015625 244.859375 L 205.980469 244.925781 Z M 179.304688 293.367188 " fill-opacity="1" fill-rule="nonzero"/></g><g clip-path="url(#34c2b4df5e)"><path fill="#4c77f6" d="M 179.1875 294.070312 L 161.835938 205.175781 L 145.792969 207.351562 L 145.648438 206.269531 L 161.261719 204.148438 L 151.027344 193.058594 L 151.828125 192.320312 L 162.582031 203.972656 L 217.464844 196.53125 Z M 162.917969 205.027344 L 179.539062 290.179688 L 215.769531 197.863281 Z M 162.917969 205.027344 " fill-opacity="1" fill-rule="nonzero"/></g><g clip-path="url(#1ae7d47453)"><path fill="#4c77f6" d="M 258.878906 267.050781 L 258.046875 266.429688 L 135.78125 175.40625 L 136.429688 174.527344 L 257.863281 264.929688 L 259.628906 216.328125 L 272.167969 177.503906 L 318.027344 200.285156 L 303.644531 163.730469 L 335.628906 177.527344 L 375.394531 231.914062 L 369.578125 172.617188 L 370.667969 172.507812 L 376.867188 235.78125 L 334.921875 178.414062 L 305.625 165.773438 L 320.082031 202.523438 L 272.820312 179.042969 L 260.71875 216.519531 Z M 258.878906 267.050781 " fill-opacity="1" fill-rule="nonzero"/></g><g clip-path="url(#865c314e08)"><path fill="#4c77f6" d="M 404.125 227.878906 L 395.546875 194.78125 L 316.800781 202.164062 L 367.878906 170.335938 L 335.410156 178.5 L 335.140625 177.441406 L 374.367188 167.582031 L 321.304688 200.644531 L 396.371094 193.605469 L 404.613281 225.394531 L 437.550781 181.097656 L 481.484375 98.457031 L 481.992188 98.820312 L 569.710938 161.761719 L 675.367188 137.75 L 675.515625 137.800781 L 792.488281 177.992188 L 875.296875 147.390625 L 875.382812 147.386719 L 914.636719 145.582031 L 914.6875 146.671875 L 875.515625 148.472656 L 792.5 179.152344 L 675.304688 138.882812 L 569.472656 162.9375 L 481.863281 100.074219 L 438.476562 181.683594 L 438.453125 181.71875 Z M 404.125 227.878906 " fill-opacity="1" fill-rule="nonzero"/></g><g clip-path="url(#1ff04bfa9d)"><path fill="#4c77f6" d="M 248.699219 230.394531 L 247.859375 229.699219 L 258.546875 216.769531 L 133.332031 201.042969 L 133.46875 199.960938 L 256.542969 215.417969 L 215.113281 197.132812 L 272.289062 177.769531 L 305.769531 161.347656 L 260.589844 216.011719 L 263.808594 217.429688 L 259.828125 216.929688 Z M 218.121094 197.265625 L 259.554688 215.550781 L 301.699219 164.558594 L 272.703125 178.777344 L 272.671875 178.789062 Z M 218.121094 197.265625 " fill-opacity="1" fill-rule="nonzero"/></g><path fill="#4c77f6" d="M 171.855469 176.769531 C 171.855469 177.175781 171.816406 177.582031 171.734375 177.980469 C 171.65625 178.378906 171.539062 178.769531 171.382812 179.144531 C 171.226562 179.523438 171.035156 179.878906 170.808594 180.21875 C 170.582031 180.558594 170.324219 180.871094 170.035156 181.160156 C 169.746094 181.449219 169.433594 181.707031 169.09375 181.929688 C 168.757812 182.15625 168.398438 182.347656 168.023438 182.503906 C 167.644531 182.660156 167.257812 182.777344 166.855469 182.859375 C 166.457031 182.9375 166.054688 182.976562 165.644531 182.976562 C 165.238281 182.976562 164.835938 182.9375 164.433594 182.859375 C 164.035156 182.777344 163.648438 182.660156 163.269531 182.503906 C 162.894531 182.347656 162.535156 182.15625 162.195312 181.929688 C 161.859375 181.707031 161.542969 181.449219 161.253906 181.160156 C 160.96875 180.871094 160.710938 180.558594 160.484375 180.21875 C 160.257812 179.878906 160.066406 179.523438 159.910156 179.144531 C 159.753906 178.769531 159.636719 178.378906 159.554688 177.980469 C 159.476562 177.582031 159.4375 177.175781 159.4375 176.769531 C 159.4375 176.363281 159.476562 175.957031 159.554688 175.558594 C 159.636719 175.160156 159.753906 174.769531 159.910156 174.394531 C 160.066406 174.015625 160.257812 173.660156 160.484375 173.320312 C 160.710938 172.980469 160.96875 172.667969 161.253906 172.378906 C 161.542969 172.089844 161.859375 171.832031 162.195312 171.605469 C 162.535156 171.378906 162.894531 171.1875 163.269531 171.035156 C 163.648438 170.878906 164.035156 170.757812 164.433594 170.679688 C 164.835938 170.601562 165.238281 170.5625 165.644531 170.5625 C 166.054688 170.5625 166.457031 170.601562 166.855469 170.679688 C 167.257812 170.757812 167.644531 170.878906 168.023438 171.035156 C 168.398438 171.1875 168.757812 171.378906 169.09375 171.605469 C 169.433594 171.832031 169.746094 172.089844 170.035156 172.378906 C 170.324219 172.667969 170.582031 172.980469 170.808594 173.320312 C 171.035156 173.660156 171.226562 174.015625 171.382812 174.394531 C 171.539062 174.769531 171.65625 175.160156 171.734375 175.558594 C 171.816406 175.957031 171.855469 176.363281 171.855469 176.769531 Z M 171.855469 176.769531 " fill-opacity="1" fill-rule="nonzero"/><g clip-path="url(#f014027b46)"><path fill="#4c77f6" d="M 185.070312 290.722656 C 185.070312 291.078125 185.035156 291.429688 184.96875 291.777344 C 184.898438 292.125 184.796875 292.464844 184.660156 292.792969 C 184.523438 293.121094 184.359375 293.433594 184.160156 293.726562 C 183.964844 294.023438 183.738281 294.296875 183.488281 294.546875 C 183.238281 294.796875 182.964844 295.019531 182.667969 295.21875 C 182.375 295.414062 182.0625 295.582031 181.734375 295.71875 C 181.40625 295.855469 181.066406 295.957031 180.71875 296.027344 C 180.371094 296.09375 180.019531 296.128906 179.664062 296.128906 C 179.308594 296.128906 178.957031 296.09375 178.609375 296.027344 C 178.261719 295.957031 177.925781 295.855469 177.597656 295.71875 C 177.269531 295.582031 176.957031 295.414062 176.660156 295.21875 C 176.367188 295.019531 176.09375 294.796875 175.84375 294.546875 C 175.589844 294.296875 175.367188 294.023438 175.171875 293.726562 C 174.972656 293.433594 174.804688 293.121094 174.671875 292.792969 C 174.535156 292.464844 174.433594 292.125 174.363281 291.777344 C 174.292969 291.429688 174.257812 291.078125 174.257812 290.722656 C 174.257812 290.367188 174.292969 290.015625 174.363281 289.667969 C 174.433594 289.320312 174.535156 288.980469 174.671875 288.652344 C 174.804688 288.328125 174.972656 288.015625 175.171875 287.71875 C 175.367188 287.425781 175.589844 287.152344 175.84375 286.898438 C 176.09375 286.648438 176.367188 286.425781 176.660156 286.226562 C 176.957031 286.03125 177.269531 285.863281 177.597656 285.726562 C 177.925781 285.59375 178.261719 285.488281 178.609375 285.421875 C 178.957031 285.351562 179.308594 285.316406 179.664062 285.316406 C 180.019531 285.316406 180.371094 285.351562 180.71875 285.421875 C 181.066406 285.488281 181.40625 285.59375 181.734375 285.726562 C 182.0625 285.863281 182.375 286.03125 182.667969 286.226562 C 182.964844 286.425781 183.238281 286.648438 183.488281 286.898438 C 183.738281 287.152344 183.964844 287.425781 184.160156 287.71875 C 184.359375 288.015625 184.523438 288.328125 184.660156 288.652344 C 184.796875 288.980469 184.898438 289.320312 184.96875 289.667969 C 185.035156 290.015625 185.070312 290.367188 185.070312 290.722656 Z M 185.070312 290.722656 " fill-opacity="1" fill-rule="nonzero"/></g><path fill="#4c77f6" d="M 167.234375 204.328125 C 167.234375 204.636719 167.203125 204.941406 167.140625 205.246094 C 167.082031 205.546875 166.992188 205.84375 166.875 206.128906 C 166.757812 206.414062 166.613281 206.683594 166.441406 206.941406 C 166.269531 207.195312 166.074219 207.433594 165.855469 207.652344 C 165.636719 207.871094 165.398438 208.066406 165.140625 208.238281 C 164.886719 208.410156 164.613281 208.554688 164.328125 208.671875 C 164.042969 208.792969 163.75 208.878906 163.445312 208.941406 C 163.144531 209 162.835938 209.03125 162.527344 209.03125 C 162.21875 209.03125 161.914062 209 161.609375 208.941406 C 161.308594 208.878906 161.015625 208.789062 160.730469 208.671875 C 160.445312 208.554688 160.171875 208.410156 159.914062 208.238281 C 159.660156 208.066406 159.421875 207.871094 159.203125 207.652344 C 158.984375 207.433594 158.789062 207.195312 158.617188 206.941406 C 158.445312 206.683594 158.300781 206.414062 158.183594 206.128906 C 158.066406 205.84375 157.976562 205.546875 157.914062 205.246094 C 157.855469 204.941406 157.824219 204.636719 157.824219 204.328125 C 157.824219 204.019531 157.855469 203.710938 157.914062 203.410156 C 157.976562 203.105469 158.066406 202.8125 158.183594 202.527344 C 158.300781 202.242188 158.445312 201.972656 158.617188 201.714844 C 158.789062 201.457031 158.984375 201.21875 159.203125 201 C 159.421875 200.78125 159.660156 200.589844 159.914062 200.417969 C 160.171875 200.246094 160.445312 200.101562 160.730469 199.980469 C 161.015625 199.863281 161.308594 199.773438 161.609375 199.714844 C 161.914062 199.652344 162.21875 199.625 162.527344 199.625 C 162.835938 199.625 163.144531 199.652344 163.445312 199.714844 C 163.75 199.773438 164.042969 199.863281 164.328125 199.980469 C 164.613281 200.101562 164.886719 200.246094 165.140625 200.417969 C 165.398438 200.589844 165.636719 200.78125 165.855469 201 C 166.074219 201.21875 166.269531 201.457031 166.441406 201.714844 C 166.613281 201.972656 166.757812 202.242188 166.875 202.527344 C 166.992188 202.8125 167.082031 203.105469 167.140625 203.410156 C 167.203125 203.710938 167.234375 204.019531 167.234375 204.328125 Z M 167.234375 204.328125 " fill-opacity="1" fill-rule="nonzero"/><path fill="#4c77f6" d="M 210.910156 244.261719 C 210.910156 244.683594 210.867188 245.097656 210.785156 245.511719 C 210.703125 245.925781 210.582031 246.324219 210.421875 246.714844 C 210.257812 247.101562 210.0625 247.472656 209.828125 247.820312 C 209.59375 248.171875 209.328125 248.496094 209.03125 248.792969 C 208.734375 249.089844 208.410156 249.355469 208.058594 249.589844 C 207.710938 249.824219 207.339844 250.019531 206.953125 250.183594 C 206.5625 250.34375 206.164062 250.464844 205.75 250.546875 C 205.335938 250.628906 204.921875 250.671875 204.5 250.671875 C 204.078125 250.671875 203.660156 250.628906 203.25 250.546875 C 202.835938 250.464844 202.4375 250.34375 202.046875 250.183594 C 201.65625 250.019531 201.289062 249.824219 200.9375 249.589844 C 200.589844 249.355469 200.265625 249.089844 199.96875 248.792969 C 199.671875 248.496094 199.402344 248.171875 199.171875 247.820312 C 198.9375 247.472656 198.738281 247.101562 198.578125 246.714844 C 198.417969 246.324219 198.296875 245.925781 198.214844 245.511719 C 198.132812 245.097656 198.089844 244.683594 198.089844 244.261719 C 198.089844 243.839844 198.132812 243.421875 198.214844 243.011719 C 198.296875 242.597656 198.417969 242.199219 198.578125 241.808594 C 198.738281 241.417969 198.9375 241.050781 199.171875 240.699219 C 199.402344 240.351562 199.671875 240.027344 199.96875 239.730469 C 200.265625 239.433594 200.589844 239.167969 200.9375 238.933594 C 201.289062 238.699219 201.65625 238.5 202.046875 238.339844 C 202.4375 238.179688 202.835938 238.058594 203.25 237.976562 C 203.660156 237.894531 204.078125 237.851562 204.5 237.851562 C 204.921875 237.851562 205.335938 237.894531 205.75 237.976562 C 206.164062 238.058594 206.5625 238.179688 206.953125 238.339844 C 207.339844 238.5 207.710938 238.699219 208.058594 238.933594 C 208.410156 239.167969 208.734375 239.433594 209.03125 239.730469 C 209.328125 240.027344 209.59375 240.351562 209.828125 240.699219 C 210.0625 241.050781 210.257812 241.417969 210.421875 241.808594 C 210.582031 242.199219 210.703125 242.597656 210.785156 243.011719 C 210.867188 243.421875 210.910156 243.839844 210.910156 244.261719 Z M 210.910156 244.261719 " fill-opacity="1" fill-rule="nonzero"/><path fill="#4c77f6" d="M 231.367188 253.210938 C 231.367188 253.558594 231.332031 253.902344 231.265625 254.246094 C 231.195312 254.585938 231.09375 254.917969 230.960938 255.238281 C 230.828125 255.5625 230.664062 255.867188 230.472656 256.15625 C 230.277344 256.449219 230.058594 256.714844 229.8125 256.960938 C 229.566406 257.207031 229.296875 257.429688 229.007812 257.621094 C 228.71875 257.816406 228.410156 257.980469 228.089844 258.113281 C 227.769531 258.246094 227.4375 258.347656 227.09375 258.414062 C 226.753906 258.480469 226.40625 258.515625 226.058594 258.515625 C 225.710938 258.515625 225.367188 258.480469 225.023438 258.414062 C 224.683594 258.347656 224.351562 258.246094 224.027344 258.113281 C 223.707031 257.980469 223.398438 257.816406 223.109375 257.621094 C 222.820312 257.429688 222.550781 257.207031 222.304688 256.960938 C 222.058594 256.714844 221.839844 256.449219 221.644531 256.15625 C 221.453125 255.867188 221.289062 255.5625 221.15625 255.238281 C 221.023438 254.917969 220.921875 254.585938 220.855469 254.246094 C 220.785156 253.902344 220.75 253.558594 220.75 253.210938 C 220.75 252.859375 220.785156 252.515625 220.855469 252.171875 C 220.921875 251.832031 221.023438 251.5 221.15625 251.179688 C 221.289062 250.855469 221.453125 250.550781 221.644531 250.261719 C 221.839844 249.972656 222.058594 249.703125 222.304688 249.457031 C 222.550781 249.210938 222.820312 248.988281 223.109375 248.796875 C 223.398438 248.601562 223.707031 248.4375 224.027344 248.304688 C 224.351562 248.171875 224.683594 248.070312 225.023438 248.003906 C 225.367188 247.9375 225.710938 247.902344 226.058594 247.902344 C 226.40625 247.902344 226.753906 247.9375 227.09375 248.003906 C 227.4375 248.070312 227.769531 248.171875 228.089844 248.304688 C 228.410156 248.4375 228.71875 248.601562 229.007812 248.796875 C 229.296875 248.988281 229.566406 249.210938 229.8125 249.457031 C 230.058594 249.703125 230.277344 249.972656 230.472656 250.261719 C 230.664062 250.550781 230.828125 250.855469 230.960938 251.179688 C 231.09375 251.5 231.195312 251.832031 231.265625 252.171875 C 231.332031 252.515625 231.367188 252.859375 231.367188 253.210938 Z M 231.367188 253.210938 " fill-opacity="1" fill-rule="nonzero"/><path fill="#4c77f6" d="M 224.523438 198.898438 C 224.523438 199.445312 224.472656 199.984375 224.363281 200.519531 C 224.257812 201.054688 224.101562 201.574219 223.890625 202.078125 C 223.683594 202.585938 223.425781 203.0625 223.125 203.515625 C 222.820312 203.96875 222.476562 204.390625 222.089844 204.777344 C 221.703125 205.164062 221.285156 205.507812 220.832031 205.808594 C 220.378906 206.113281 219.898438 206.367188 219.394531 206.578125 C 218.890625 206.785156 218.371094 206.945312 217.835938 207.050781 C 217.300781 207.15625 216.757812 207.210938 216.214844 207.210938 C 215.667969 207.210938 215.128906 207.15625 214.59375 207.050781 C 214.058594 206.945312 213.539062 206.785156 213.03125 206.578125 C 212.527344 206.367188 212.050781 206.113281 211.597656 205.808594 C 211.140625 205.507812 210.722656 205.164062 210.335938 204.777344 C 209.949219 204.390625 209.605469 203.96875 209.304688 203.515625 C 209 203.0625 208.742188 202.585938 208.535156 202.078125 C 208.328125 201.574219 208.167969 201.054688 208.0625 200.519531 C 207.957031 199.984375 207.902344 199.445312 207.902344 198.898438 C 207.902344 198.355469 207.957031 197.8125 208.0625 197.277344 C 208.167969 196.742188 208.328125 196.222656 208.535156 195.71875 C 208.742188 195.214844 209 194.734375 209.304688 194.28125 C 209.605469 193.828125 209.949219 193.410156 210.335938 193.023438 C 210.722656 192.636719 211.140625 192.292969 211.597656 191.988281 C 212.050781 191.6875 212.527344 191.429688 213.03125 191.222656 C 213.539062 191.011719 214.058594 190.855469 214.59375 190.746094 C 215.128906 190.640625 215.667969 190.589844 216.214844 190.589844 C 216.757812 190.589844 217.300781 190.640625 217.835938 190.746094 C 218.371094 190.855469 218.890625 191.011719 219.394531 191.222656 C 219.898438 191.429688 220.378906 191.6875 220.832031 191.988281 C 221.285156 192.292969 221.703125 192.636719 222.089844 193.023438 C 222.476562 193.410156 222.820312 193.828125 223.125 194.28125 C 223.425781 194.734375 223.683594 195.214844 223.890625 195.71875 C 224.101562 196.222656 224.257812 196.742188 224.363281 197.277344 C 224.472656 197.8125 224.523438 198.355469 224.523438 198.898438 Z M 224.523438 198.898438 " fill-opacity="1" fill-rule="nonzero"/><path fill="#4c77f6" d="M 265.179688 217.726562 C 265.179688 218.0625 265.148438 218.394531 265.082031 218.722656 C 265.019531 219.050781 264.921875 219.371094 264.792969 219.679688 C 264.664062 219.988281 264.507812 220.285156 264.320312 220.5625 C 264.132812 220.839844 263.921875 221.097656 263.683594 221.335938 C 263.449219 221.574219 263.191406 221.785156 262.910156 221.972656 C 262.632812 222.15625 262.339844 222.316406 262.027344 222.445312 C 261.71875 222.570312 261.398438 222.667969 261.070312 222.734375 C 260.742188 222.800781 260.410156 222.832031 260.074219 222.832031 C 259.738281 222.832031 259.40625 222.800781 259.078125 222.734375 C 258.75 222.667969 258.429688 222.570312 258.121094 222.445312 C 257.808594 222.316406 257.515625 222.15625 257.238281 221.972656 C 256.957031 221.785156 256.699219 221.574219 256.464844 221.335938 C 256.226562 221.097656 256.015625 220.839844 255.828125 220.5625 C 255.640625 220.285156 255.484375 219.988281 255.355469 219.679688 C 255.226562 219.371094 255.132812 219.050781 255.066406 218.722656 C 255 218.394531 254.96875 218.0625 254.96875 217.726562 C 254.96875 217.390625 255 217.058594 255.066406 216.730469 C 255.132812 216.402344 255.226562 216.082031 255.355469 215.769531 C 255.484375 215.460938 255.640625 215.167969 255.828125 214.886719 C 256.015625 214.609375 256.226562 214.351562 256.464844 214.113281 C 256.699219 213.878906 256.957031 213.664062 257.238281 213.480469 C 257.515625 213.292969 257.808594 213.136719 258.121094 213.007812 C 258.429688 212.878906 258.75 212.78125 259.078125 212.71875 C 259.40625 212.652344 259.738281 212.617188 260.074219 212.617188 C 260.410156 212.617188 260.742188 212.652344 261.070312 212.71875 C 261.398438 212.78125 261.71875 212.878906 262.027344 213.007812 C 262.339844 213.136719 262.632812 213.292969 262.910156 213.480469 C 263.191406 213.664062 263.449219 213.878906 263.683594 214.113281 C 263.921875 214.351562 264.132812 214.609375 264.320312 214.886719 C 264.507812 215.167969 264.664062 215.460938 264.792969 215.769531 C 264.921875 216.082031 265.019531 216.402344 265.082031 216.730469 C 265.148438 217.058594 265.179688 217.390625 265.179688 217.726562 Z M 265.179688 217.726562 " fill-opacity="1" fill-rule="nonzero"/><path fill="#4c77f6" d="M 277.898438 177.320312 C 277.898438 177.691406 277.863281 178.058594 277.789062 178.425781 C 277.71875 178.789062 277.609375 179.140625 277.46875 179.484375 C 277.324219 179.828125 277.152344 180.15625 276.945312 180.464844 C 276.738281 180.773438 276.503906 181.058594 276.242188 181.320312 C 275.976562 181.582031 275.691406 181.816406 275.382812 182.023438 C 275.074219 182.230469 274.75 182.40625 274.40625 182.546875 C 274.0625 182.6875 273.707031 182.796875 273.34375 182.871094 C 272.980469 182.941406 272.613281 182.976562 272.242188 182.976562 C 271.867188 182.976562 271.5 182.941406 271.136719 182.871094 C 270.773438 182.796875 270.417969 182.6875 270.074219 182.546875 C 269.730469 182.40625 269.40625 182.230469 269.097656 182.023438 C 268.789062 181.816406 268.503906 181.582031 268.238281 181.320312 C 267.976562 181.058594 267.742188 180.773438 267.535156 180.464844 C 267.328125 180.15625 267.15625 179.828125 267.011719 179.484375 C 266.871094 179.140625 266.765625 178.789062 266.691406 178.425781 C 266.621094 178.058594 266.582031 177.691406 266.582031 177.320312 C 266.582031 176.949219 266.621094 176.582031 266.691406 176.214844 C 266.765625 175.851562 266.871094 175.5 267.011719 175.15625 C 267.15625 174.8125 267.328125 174.484375 267.535156 174.175781 C 267.742188 173.867188 267.976562 173.582031 268.238281 173.320312 C 268.503906 173.058594 268.789062 172.824219 269.097656 172.617188 C 269.40625 172.410156 269.730469 172.234375 270.074219 172.09375 C 270.417969 171.953125 270.773438 171.84375 271.136719 171.773438 C 271.5 171.699219 271.867188 171.664062 272.242188 171.664062 C 272.613281 171.664062 272.980469 171.699219 273.34375 171.773438 C 273.707031 171.84375 274.0625 171.953125 274.40625 172.09375 C 274.75 172.234375 275.074219 172.410156 275.382812 172.617188 C 275.691406 172.824219 275.976562 173.058594 276.242188 173.320312 C 276.503906 173.582031 276.738281 173.867188 276.945312 174.175781 C 277.152344 174.484375 277.324219 174.8125 277.46875 175.15625 C 277.609375 175.5 277.71875 175.851562 277.789062 176.214844 C 277.863281 176.582031 277.898438 176.949219 277.898438 177.320312 Z M 277.898438 177.320312 " fill-opacity="1" fill-rule="nonzero"/><path fill="#4c77f6" d="M 309.4375 163.351562 C 309.4375 163.71875 309.402344 164.085938 309.332031 164.445312 C 309.257812 164.804688 309.152344 165.15625 309.011719 165.496094 C 308.871094 165.835938 308.699219 166.160156 308.496094 166.464844 C 308.289062 166.773438 308.058594 167.054688 307.796875 167.316406 C 307.535156 167.578125 307.253906 167.808594 306.949219 168.011719 C 306.640625 168.21875 306.316406 168.390625 305.976562 168.53125 C 305.636719 168.671875 305.289062 168.777344 304.925781 168.851562 C 304.566406 168.921875 304.199219 168.957031 303.832031 168.957031 C 303.464844 168.957031 303.097656 168.921875 302.738281 168.851562 C 302.378906 168.777344 302.027344 168.671875 301.6875 168.53125 C 301.347656 168.390625 301.023438 168.21875 300.71875 168.011719 C 300.410156 167.808594 300.128906 167.578125 299.867188 167.316406 C 299.605469 167.054688 299.375 166.773438 299.171875 166.464844 C 298.964844 166.160156 298.792969 165.835938 298.652344 165.496094 C 298.511719 165.15625 298.40625 164.804688 298.332031 164.445312 C 298.261719 164.085938 298.226562 163.71875 298.226562 163.351562 C 298.226562 162.984375 298.261719 162.617188 298.332031 162.257812 C 298.40625 161.898438 298.511719 161.546875 298.652344 161.207031 C 298.792969 160.867188 298.964844 160.542969 299.171875 160.238281 C 299.375 159.929688 299.605469 159.648438 299.867188 159.386719 C 300.128906 159.125 300.410156 158.894531 300.71875 158.691406 C 301.023438 158.484375 301.347656 158.3125 301.6875 158.171875 C 302.027344 158.03125 302.378906 157.925781 302.738281 157.851562 C 303.097656 157.78125 303.464844 157.746094 303.832031 157.746094 C 304.199219 157.746094 304.566406 157.78125 304.925781 157.851562 C 305.289062 157.925781 305.636719 158.03125 305.976562 158.171875 C 306.316406 158.3125 306.640625 158.484375 306.949219 158.691406 C 307.253906 158.894531 307.535156 159.125 307.796875 159.386719 C 308.058594 159.648438 308.289062 159.929688 308.496094 160.238281 C 308.699219 160.542969 308.871094 160.867188 309.011719 161.207031 C 309.152344 161.546875 309.257812 161.898438 309.332031 162.257812 C 309.402344 162.617188 309.4375 162.984375 309.4375 163.351562 Z M 309.4375 163.351562 " fill-opacity="1" fill-rule="nonzero"/><path fill="#4c77f6" d="M 327.882812 199.808594 C 327.882812 200.414062 327.824219 201.011719 327.703125 201.605469 C 327.585938 202.199219 327.410156 202.777344 327.179688 203.335938 C 326.949219 203.894531 326.664062 204.429688 326.328125 204.929688 C 325.992188 205.433594 325.609375 205.898438 325.179688 206.328125 C 324.753906 206.757812 324.289062 207.136719 323.785156 207.476562 C 323.28125 207.8125 322.75 208.09375 322.191406 208.328125 C 321.628906 208.558594 321.054688 208.734375 320.460938 208.851562 C 319.867188 208.96875 319.265625 209.027344 318.660156 209.027344 C 318.054688 209.027344 317.457031 208.96875 316.863281 208.851562 C 316.269531 208.734375 315.691406 208.558594 315.132812 208.328125 C 314.574219 208.09375 314.042969 207.8125 313.539062 207.476562 C 313.035156 207.140625 312.570312 206.757812 312.140625 206.328125 C 311.714844 205.898438 311.332031 205.433594 310.996094 204.929688 C 310.660156 204.429688 310.375 203.894531 310.144531 203.335938 C 309.910156 202.777344 309.738281 202.199219 309.617188 201.605469 C 309.5 201.011719 309.441406 200.414062 309.441406 199.808594 C 309.441406 199.203125 309.5 198.605469 309.617188 198.011719 C 309.738281 197.414062 309.910156 196.839844 310.144531 196.28125 C 310.375 195.722656 310.660156 195.1875 310.996094 194.6875 C 311.332031 194.183594 311.714844 193.71875 312.140625 193.289062 C 312.570312 192.859375 313.035156 192.476562 313.539062 192.140625 C 314.042969 191.804688 314.574219 191.523438 315.132812 191.289062 C 315.691406 191.058594 316.269531 190.882812 316.863281 190.765625 C 317.457031 190.648438 318.054688 190.589844 318.660156 190.589844 C 319.265625 190.589844 319.867188 190.648438 320.460938 190.765625 C 321.054688 190.882812 321.628906 191.058594 322.191406 191.289062 C 322.75 191.523438 323.28125 191.804688 323.785156 192.140625 C 324.289062 192.476562 324.753906 192.859375 325.179688 193.289062 C 325.609375 193.71875 325.992188 194.183594 326.328125 194.6875 C 326.664062 195.1875 326.949219 195.722656 327.179688 196.28125 C 327.410156 196.839844 327.585938 197.414062 327.703125 198.011719 C 327.824219 198.605469 327.882812 199.203125 327.882812 199.808594 Z M 327.882812 199.808594 " fill-opacity="1" fill-rule="nonzero"/><path fill="#4c77f6" d="M 251.179688 136.898438 C 251.179688 137.214844 251.152344 137.527344 251.089844 137.835938 C 251.027344 138.144531 250.9375 138.445312 250.816406 138.738281 C 250.695312 139.027344 250.546875 139.304688 250.371094 139.566406 C 250.195312 139.832031 249.996094 140.074219 249.773438 140.296875 C 249.550781 140.519531 249.308594 140.71875 249.046875 140.894531 C 248.78125 141.070312 248.503906 141.21875 248.214844 141.339844 C 247.921875 141.460938 247.621094 141.550781 247.3125 141.613281 C 247.003906 141.671875 246.691406 141.703125 246.375 141.703125 C 246.058594 141.703125 245.746094 141.671875 245.4375 141.613281 C 245.128906 141.550781 244.828125 141.460938 244.535156 141.339844 C 244.242188 141.21875 243.964844 141.070312 243.703125 140.894531 C 243.441406 140.71875 243.199219 140.519531 242.976562 140.296875 C 242.753906 140.074219 242.554688 139.832031 242.378906 139.566406 C 242.203125 139.304688 242.054688 139.027344 241.933594 138.738281 C 241.8125 138.445312 241.722656 138.144531 241.660156 137.835938 C 241.597656 137.527344 241.566406 137.214844 241.566406 136.898438 C 241.566406 136.582031 241.597656 136.269531 241.660156 135.960938 C 241.722656 135.648438 241.8125 135.351562 241.933594 135.058594 C 242.054688 134.765625 242.203125 134.488281 242.378906 134.226562 C 242.554688 133.964844 242.753906 133.722656 242.976562 133.5 C 243.199219 133.277344 243.441406 133.078125 243.703125 132.902344 C 243.964844 132.726562 244.242188 132.578125 244.535156 132.457031 C 244.828125 132.335938 245.128906 132.246094 245.4375 132.183594 C 245.746094 132.121094 246.058594 132.089844 246.375 132.089844 C 246.691406 132.089844 247.003906 132.121094 247.3125 132.183594 C 247.621094 132.246094 247.921875 132.335938 248.214844 132.457031 C 248.503906 132.578125 248.78125 132.726562 249.046875 132.902344 C 249.308594 133.078125 249.550781 133.277344 249.773438 133.5 C 249.996094 133.722656 250.195312 133.964844 250.371094 134.226562 C 250.546875 134.488281 250.695312 134.765625 250.816406 135.058594 C 250.9375 135.351562 251.027344 135.648438 251.089844 135.960938 C 251.152344 136.269531 251.179688 136.582031 251.179688 136.898438 Z M 251.179688 136.898438 " fill-opacity="1" fill-rule="nonzero"/><path fill="#4c77f6" d="M 338.480469 117.589844 C 338.480469 117.871094 338.453125 118.152344 338.398438 118.429688 C 338.34375 118.707031 338.261719 118.976562 338.152344 119.238281 C 338.042969 119.496094 337.910156 119.746094 337.753906 119.980469 C 337.597656 120.214844 337.417969 120.433594 337.21875 120.632812 C 337.019531 120.832031 336.800781 121.011719 336.566406 121.167969 C 336.332031 121.328125 336.082031 121.460938 335.820312 121.566406 C 335.5625 121.675781 335.292969 121.757812 335.015625 121.8125 C 334.738281 121.867188 334.457031 121.894531 334.175781 121.894531 C 333.890625 121.894531 333.609375 121.867188 333.332031 121.8125 C 333.054688 121.757812 332.789062 121.675781 332.527344 121.566406 C 332.265625 121.460938 332.015625 121.328125 331.78125 121.167969 C 331.546875 121.011719 331.328125 120.832031 331.128906 120.632812 C 330.929688 120.433594 330.75 120.214844 330.59375 119.980469 C 330.4375 119.746094 330.304688 119.496094 330.195312 119.238281 C 330.085938 118.976562 330.003906 118.707031 329.949219 118.429688 C 329.894531 118.152344 329.867188 117.871094 329.867188 117.589844 C 329.867188 117.304688 329.894531 117.027344 329.949219 116.75 C 330.003906 116.472656 330.085938 116.203125 330.195312 115.941406 C 330.304688 115.679688 330.4375 115.429688 330.59375 115.195312 C 330.75 114.960938 330.929688 114.742188 331.128906 114.542969 C 331.328125 114.34375 331.546875 114.164062 331.78125 114.007812 C 332.015625 113.851562 332.265625 113.71875 332.527344 113.609375 C 332.789062 113.5 333.054688 113.421875 333.332031 113.363281 C 333.609375 113.308594 333.890625 113.28125 334.175781 113.28125 C 334.457031 113.28125 334.738281 113.308594 335.015625 113.363281 C 335.292969 113.421875 335.5625 113.5 335.820312 113.609375 C 336.082031 113.71875 336.332031 113.851562 336.566406 114.007812 C 336.800781 114.164062 337.019531 114.34375 337.21875 114.542969 C 337.417969 114.742188 337.597656 114.960938 337.753906 115.195312 C 337.910156 115.429688 338.042969 115.679688 338.152344 115.941406 C 338.261719 116.203125 338.34375 116.472656 338.398438 116.75 C 338.453125 117.027344 338.480469 117.304688 338.480469 117.589844 Z M 338.480469 117.589844 " fill-opacity="1" fill-rule="nonzero"/><path fill="#4c77f6" d="M 339.882812 178.269531 C 339.882812 178.789062 339.785156 179.285156 339.585938 179.765625 C 339.386719 180.242188 339.105469 180.664062 338.738281 181.03125 C 338.371094 181.398438 337.949219 181.679688 337.472656 181.878906 C 336.992188 182.078125 336.496094 182.175781 335.976562 182.175781 C 335.460938 182.175781 334.960938 182.078125 334.480469 181.878906 C 334.003906 181.679688 333.582031 181.398438 333.214844 181.03125 C 332.847656 180.664062 332.566406 180.242188 332.367188 179.765625 C 332.171875 179.285156 332.070312 178.789062 332.070312 178.269531 C 332.070312 177.753906 332.171875 177.253906 332.367188 176.777344 C 332.566406 176.296875 332.847656 175.875 333.214844 175.507812 C 333.582031 175.144531 334.003906 174.859375 334.480469 174.664062 C 334.960938 174.464844 335.460938 174.363281 335.976562 174.363281 C 336.496094 174.363281 336.992188 174.464844 337.472656 174.664062 C 337.949219 174.859375 338.371094 175.144531 338.738281 175.507812 C 339.105469 175.875 339.386719 176.296875 339.585938 176.777344 C 339.785156 177.253906 339.882812 177.753906 339.882812 178.269531 Z M 339.882812 178.269531 " fill-opacity="1" fill-rule="nonzero"/><path fill="#ffbd59" d="M 121.957031 248.640625 C 96.941406 179.96875 172.96875 95.320312 246.90625 117.074219 C 257.804688 120.28125 267.523438 121.234375 270.566406 113.335938 C 273.007812 107.003906 293.1875 113.230469 288.988281 107.136719 C 283.949219 99.824219 260.519531 92.792969 249.875 91.046875 C 160.625 76.390625 85.683594 168.601562 121.957031 248.640625 Z M 121.957031 248.640625 " fill-opacity="1" fill-rule="evenodd"/><path fill="#ffbd59" d="M 106.980469 177.152344 C 92.167969 178.460938 82.949219 170.957031 72.289062 165.753906 C 42.488281 151.207031 9.039062 170.328125 65.429688 181.144531 C 85.734375 185.039062 108.5 185.953125 106.980469 177.152344 Z M 110.375 241.027344 C 98.203125 249.566406 87.445312 249.96875 76.976562 253 C 49.472656 260.96875 29.144531 296.144531 77.257812 267.40625 C 98.316406 254.828125 116.324219 242.726562 110.375 241.027344 Z M 253.476562 81.867188 C 252.164062 67.054688 262.308594 57.527344 269.574219 46.402344 C 287.632812 18.765625 281.40625 -13.925781 256.03125 40.046875 C 247.839844 57.46875 240.839844 76.785156 253.476562 81.867188 Z M 186.683594 81.546875 C 178.859375 69.765625 189.117188 54.777344 190.929688 42.527344 C 196.035156 8.125 177.570312 -24.726562 173.15625 39.203125 C 171.511719 63.023438 176.960938 80.636719 186.683594 81.546875 Z M 135.980469 120.136719 C 127.320312 114.332031 120.804688 100.6875 110.710938 87.871094 C 82.992188 52.683594 44.472656 50.996094 95.625 94.648438 C 119.285156 114.839844 127.640625 124.183594 135.980469 120.136719 Z M 135.980469 120.136719 " fill-opacity="1" fill-rule="evenodd"/><path fill="#e3e2e3" d="M 139.367188 167.507812 C 126.179688 187.496094 120.582031 210.117188 121.957031 231.546875 C 122.878906 211.550781 129.378906 190.785156 141.796875 171.960938 C 161.160156 142.613281 190.515625 124.636719 219.929688 120.882812 C 189.339844 121.835938 158.605469 138.351562 139.367188 167.507812 Z M 139.367188 167.507812 " fill-opacity="1" fill-rule="evenodd"/><g fill="#000000" fill-opacity="1"><g transform="translate(40.492841, 362.249976)"><g><path d="M 5.953125 -26.59375 L 36.046875 -41.65625 L 36.046875 -35.34375 L 14.34375 -24.78125 C 13.789062 -24.5 13.28125 -24.265625 12.8125 -24.078125 C 12.34375 -23.890625 11.945312 -23.75 11.625 -23.65625 C 11.195312 -23.519531 10.820312 -23.425781 10.5 -23.375 L 10.5 -22.890625 C 10.820312 -22.835938 11.195312 -22.769531 11.625 -22.6875 C 11.945312 -22.59375 12.34375 -22.453125 12.8125 -22.265625 C 13.28125 -22.078125 13.789062 -21.84375 14.34375 -21.5625 L 36.046875 -10.78125 L 36.046875 -4.546875 L 5.953125 -19.59375 Z M 5.953125 -26.59375 "/></g></g></g><g fill="#000000" fill-opacity="1"><g transform="translate(82.492838, 362.249976)"><g/></g></g><g fill="#ffbd59" fill-opacity="1"><g transform="translate(82.492838, 362.249976)"><g><path d="M 21 0.703125 C 18.382812 0.703125 16.015625 0.304688 13.890625 -0.484375 C 11.765625 -1.285156 9.941406 -2.40625 8.421875 -3.84375 C 6.910156 -5.289062 5.742188 -7.03125 4.921875 -9.0625 C 4.109375 -11.09375 3.703125 -13.367188 3.703125 -15.890625 C 3.703125 -18.972656 4.351562 -22.097656 5.65625 -25.265625 C 6.96875 -28.441406 8.882812 -31.988281 11.40625 -35.90625 L 20.65625 -50.40625 L 30.65625 -50.40625 L 19.53125 -33.53125 C 18.363281 -31.800781 17.441406 -30.4375 16.765625 -29.4375 C 16.085938 -28.4375 15.5625 -27.675781 15.1875 -27.15625 C 14.769531 -26.550781 14.488281 -26.15625 14.34375 -25.96875 L 15.046875 -25.96875 C 15.609375 -26.90625 16.3125 -27.742188 17.15625 -28.484375 C 17.894531 -29.097656 18.835938 -29.660156 19.984375 -30.171875 C 21.128906 -30.679688 22.519531 -30.9375 24.15625 -30.9375 C 26.25 -30.9375 28.171875 -30.5625 29.921875 -29.8125 C 31.671875 -29.070312 33.164062 -28.023438 34.40625 -26.671875 C 35.644531 -25.316406 36.613281 -23.691406 37.3125 -21.796875 C 38.007812 -19.910156 38.359375 -17.800781 38.359375 -15.46875 C 38.359375 -13.039062 37.9375 -10.832031 37.09375 -8.84375 C 36.257812 -6.863281 35.082031 -5.160156 33.5625 -3.734375 C 32.050781 -2.316406 30.234375 -1.222656 28.109375 -0.453125 C 25.984375 0.316406 23.613281 0.703125 21 0.703125 Z M 12.453125 -15.46875 C 12.453125 -12.8125 13.234375 -10.6875 14.796875 -9.09375 C 16.367188 -7.507812 18.4375 -6.71875 21 -6.71875 C 23.5625 -6.71875 25.632812 -7.507812 27.21875 -9.09375 C 28.8125 -10.6875 29.609375 -12.8125 29.609375 -15.46875 C 29.609375 -18.125 28.8125 -20.234375 27.21875 -21.796875 C 25.632812 -23.367188 23.5625 -24.15625 21 -24.15625 C 18.476562 -24.15625 16.421875 -23.359375 14.828125 -21.765625 C 13.242188 -20.179688 12.453125 -18.082031 12.453125 -15.46875 Z M 12.453125 -15.46875 "/></g></g></g><g fill="#ffbd59" fill-opacity="1"><g transform="translate(124.490547, 362.249976)"><g><path d="M 21.34375 -51.09375 C 23.820312 -51.09375 26.050781 -50.742188 28.03125 -50.046875 C 30.019531 -49.347656 31.734375 -48.359375 33.171875 -47.078125 C 34.617188 -45.796875 35.765625 -44.234375 36.609375 -42.390625 C 37.453125 -40.546875 37.921875 -38.503906 38.015625 -36.265625 L 29.265625 -36.265625 C 29.171875 -38.453125 28.410156 -40.164062 26.984375 -41.40625 C 25.554688 -42.644531 23.675781 -43.265625 21.34375 -43.265625 C 18.914062 -43.265625 16.988281 -42.585938 15.5625 -41.234375 C 14.144531 -39.878906 13.4375 -38.007812 13.4375 -35.625 L 13.4375 -14.765625 C 13.4375 -12.390625 14.125 -10.523438 15.5 -9.171875 C 16.875 -7.816406 18.820312 -7.140625 21.34375 -7.140625 C 23.675781 -7.140625 25.554688 -7.78125 26.984375 -9.0625 C 28.410156 -10.34375 29.171875 -12.054688 29.265625 -14.203125 L 38.015625 -14.203125 C 37.773438 -9.628906 36.171875 -6 33.203125 -3.3125 C 30.242188 -0.632812 26.289062 0.703125 21.34375 0.703125 C 18.820312 0.703125 16.535156 0.34375 14.484375 -0.375 C 12.429688 -1.101562 10.679688 -2.144531 9.234375 -3.5 C 7.785156 -4.851562 6.664062 -6.484375 5.875 -8.390625 C 5.082031 -10.304688 4.6875 -12.429688 4.6875 -14.765625 L 4.6875 -35.625 C 4.6875 -37.957031 5.082031 -40.082031 5.875 -42 C 6.664062 -43.914062 7.785156 -45.550781 9.234375 -46.90625 C 10.679688 -48.257812 12.429688 -49.296875 14.484375 -50.015625 C 16.535156 -50.734375 18.820312 -51.09375 21.34375 -51.09375 Z M 21.34375 -51.09375 "/></g></g></g><g fill="#ffbd59" fill-opacity="1"><g transform="translate(166.492833, 362.249976)"><g/></g></g><g fill="#4c77f6" fill-opacity="1"><g transform="translate(166.492833, 362.249976)"><g><path d="M 1.6875 0 L 15.265625 -50.40625 L 27.09375 -50.40625 L 40.3125 0 L 31.296875 0 L 28.28125 -12.671875 L 13.65625 -12.671875 L 10.640625 0 Z M 15.328125 -19.59375 L 26.59375 -19.59375 L 22.328125 -37.59375 C 22.140625 -38.425781 21.960938 -39.265625 21.796875 -40.109375 C 21.640625 -40.953125 21.515625 -41.695312 21.421875 -42.34375 C 21.328125 -43.09375 21.234375 -43.84375 21.140625 -44.59375 L 20.796875 -44.59375 C 20.703125 -43.84375 20.609375 -43.09375 20.515625 -42.34375 C 20.421875 -41.695312 20.300781 -40.953125 20.15625 -40.109375 C 20.019531 -39.265625 19.832031 -38.425781 19.59375 -37.59375 Z M 15.328125 -19.59375 "/></g></g></g><g fill="#4c77f6" fill-opacity="1"><g transform="translate(208.490541, 362.249976)"><g><path d="M 5.8125 0 L 5.8125 -7.625 L 16.59375 -7.625 L 16.59375 -42.765625 L 5.8125 -42.765625 L 5.8125 -50.40625 L 36.1875 -50.40625 L 36.1875 -42.765625 L 25.40625 -42.765625 L 25.40625 -7.625 L 36.1875 -7.625 L 36.1875 0 Z M 5.8125 0 "/></g></g></g><g fill="#4c77f6" fill-opacity="1"><g transform="translate(250.488249, 362.249976)"><g><path d="M 21 0.703125 C 18.382812 0.703125 16.015625 0.304688 13.890625 -0.484375 C 11.765625 -1.285156 9.941406 -2.40625 8.421875 -3.84375 C 6.910156 -5.289062 5.742188 -7.03125 4.921875 -9.0625 C 4.109375 -11.09375 3.703125 -13.367188 3.703125 -15.890625 C 3.703125 -18.972656 4.351562 -22.097656 5.65625 -25.265625 C 6.96875 -28.441406 8.882812 -31.988281 11.40625 -35.90625 L 20.65625 -50.40625 L 30.65625 -50.40625 L 19.53125 -33.53125 C 18.363281 -31.800781 17.441406 -30.4375 16.765625 -29.4375 C 16.085938 -28.4375 15.5625 -27.675781 15.1875 -27.15625 C 14.769531 -26.550781 14.488281 -26.15625 14.34375 -25.96875 L 15.046875 -25.96875 C 15.609375 -26.90625 16.3125 -27.742188 17.15625 -28.484375 C 17.894531 -29.097656 18.835938 -29.660156 19.984375 -30.171875 C 21.128906 -30.679688 22.519531 -30.9375 24.15625 -30.9375 C 26.25 -30.9375 28.171875 -30.5625 29.921875 -29.8125 C 31.671875 -29.070312 33.164062 -28.023438 34.40625 -26.671875 C 35.644531 -25.316406 36.613281 -23.691406 37.3125 -21.796875 C 38.007812 -19.910156 38.359375 -17.800781 38.359375 -15.46875 C 38.359375 -13.039062 37.9375 -10.832031 37.09375 -8.84375 C 36.257812 -6.863281 35.082031 -5.160156 33.5625 -3.734375 C 32.050781 -2.316406 30.234375 -1.222656 28.109375 -0.453125 C 25.984375 0.316406 23.613281 0.703125 21 0.703125 Z M 12.453125 -15.46875 C 12.453125 -12.8125 13.234375 -10.6875 14.796875 -9.09375 C 16.367188 -7.507812 18.4375 -6.71875 21 -6.71875 C 23.5625 -6.71875 25.632812 -7.507812 27.21875 -9.09375 C 28.8125 -10.6875 29.609375 -12.8125 29.609375 -15.46875 C 29.609375 -18.125 28.8125 -20.234375 27.21875 -21.796875 C 25.632812 -23.367188 23.5625 -24.15625 21 -24.15625 C 18.476562 -24.15625 16.421875 -23.359375 14.828125 -21.765625 C 13.242188 -20.179688 12.453125 -18.082031 12.453125 -15.46875 Z M 12.453125 -15.46875 "/></g></g></g><g fill="#4c77f6" fill-opacity="1"><g transform="translate(292.492825, 362.249976)"><g/></g></g><g fill="#000000" fill-opacity="1"><g transform="translate(292.492825, 362.249976)"><g><path d="M 5.953125 -10.84375 L 27.65625 -21.421875 C 28.207031 -21.703125 28.71875 -21.9375 29.1875 -22.125 C 29.65625 -22.3125 30.078125 -22.453125 30.453125 -22.546875 C 30.828125 -22.679688 31.175781 -22.769531 31.5 -22.8125 L 31.5 -23.3125 C 31.175781 -23.351562 30.828125 -23.445312 30.453125 -23.59375 C 29.660156 -23.726562 28.726562 -24.078125 27.65625 -24.640625 L 5.953125 -35.421875 L 5.953125 -41.65625 L 36.046875 -26.59375 L 36.046875 -19.59375 L 5.953125 -4.546875 Z M 5.953125 -10.84375 "/></g></g></g><g fill="#000000" fill-opacity="1"><g transform="translate(334.492822, 362.249976)"><g/></g></g></svg>