<svg xmlns="http://www.w3.org/2000/svg" xmlns:xlink="http://www.w3.org/1999/xlink" width="500" zoomAndPan="magnify" viewBox="0 0 375 374.999991" height="500" preserveAspectRatio="xMidYMid meet" version="1.0"><defs><clipPath id="595e9eb2cb"><path d="M 143.644531 146 L 375 146 L 375 318 L 143.644531 318 Z M 143.644531 146 " clip-rule="nonzero"/></clipPath><clipPath id="50279d6b2f"><path d="M 143.644531 108 L 375 108 L 375 318 L 143.644531 318 Z M 143.644531 108 " clip-rule="nonzero"/></clipPath><clipPath id="eb2e7a9c73"><path d="M 143.644531 215 L 224 215 L 224 364 L 143.644531 364 Z M 143.644531 215 " clip-rule="nonzero"/></clipPath><clipPath id="6f59623d4b"><path d="M 143.644531 241 L 224 241 L 224 365 L 143.644531 365 Z M 143.644531 241 " clip-rule="nonzero"/></clipPath><clipPath id="200b9c24bf"><path d="M 143.644531 206 L 375 206 L 375 332 L 143.644531 332 Z M 143.644531 206 " clip-rule="nonzero"/></clipPath><clipPath id="41ed70bb9c"><path d="M 143.644531 203 L 332 203 L 332 288 L 143.644531 288 Z M 143.644531 203 " clip-rule="nonzero"/></clipPath><clipPath id="98a02e80b5"><path d="M 171 354 L 185 354 L 185 367.226562 L 171 367.226562 Z M 171 354 " clip-rule="nonzero"/></clipPath></defs><g clip-path="url(#595e9eb2cb)"><path fill="#4c77f6" d="M 960.550781 317.832031 L 934.699219 271.296875 L 879.761719 294.734375 L 873.117188 247.480469 L 779.726562 176.53125 L 682.164062 272.640625 L 681.808594 272.554688 L 491.316406 228.542969 L 491.183594 228.421875 L 464.46875 203.371094 L 410.648438 217.535156 L 441.421875 243.300781 L 416.8125 292.519531 L 346.527344 252.570312 L 346.605469 252.109375 L 363.515625 153.457031 L 330.007812 208.605469 L 262.332031 175.125 L 292.617188 222.316406 L 235.773438 317.546875 L 156.078125 219.570312 L 115.382812 247.300781 L 114.636719 246.207031 L 156.339844 217.789062 L 235.605469 315.238281 L 291.058594 222.339844 L 258.632812 171.816406 L 329.507812 206.878906 L 366 146.820312 L 347.988281 251.875 L 416.25 290.679688 L 439.765625 243.644531 L 407.832031 216.910156 L 464.84375 201.902344 L 491.960938 227.332031 L 681.753906 271.183594 L 779.613281 174.785156 L 780.066406 175.128906 L 874.355469 246.757812 L 880.832031 292.839844 L 935.273438 269.609375 L 960.464844 314.949219 L 1022.390625 186.003906 L 1050.3125 226.929688 L 1121.210938 161.316406 L 1122.113281 162.289062 L 1050.085938 228.945312 L 1022.589844 188.644531 Z M 960.550781 317.832031 " fill-opacity="1" fill-rule="nonzero"/></g><g clip-path="url(#50279d6b2f)"><path fill="#4c77f6" d="M 235.84375 317.222656 L 235.378906 316.976562 L 121.625 256.457031 L 122.246094 255.285156 L 235.539062 315.558594 L 275.433594 269.863281 L 275.632812 269.808594 L 346.855469 251.640625 L 366.667969 223.023438 L 367.117188 223.144531 L 440.28125 242.703125 L 464.28125 201.96875 L 464.664062 201.976562 L 651.097656 204.160156 L 767.378906 108.355469 L 843.570312 206.527344 L 934.953125 269.625 L 1104.46875 130.664062 L 1105.308594 131.6875 L 935.019531 271.28125 L 842.648438 207.5 L 842.585938 207.417969 L 767.167969 110.246094 L 651.5625 205.492188 L 465.03125 203.304688 L 440.90625 244.242188 L 440.421875 244.113281 L 367.222656 224.546875 L 347.660156 252.804688 L 276.160156 271.042969 Z M 235.84375 317.222656 " fill-opacity="1" fill-rule="nonzero"/></g><g clip-path="url(#eb2e7a9c73)"><path fill="#4c77f6" d="M 177.644531 363.839844 L 140.652344 277.640625 L 141.867188 277.117188 L 177.792969 360.824219 L 208.816406 304.484375 L 222.148438 249.363281 L 132.28125 216.75 L 132.738281 215.503906 L 223.714844 248.519531 L 210.0625 304.96875 L 210.019531 305.046875 Z M 177.644531 363.839844 " fill-opacity="1" fill-rule="nonzero"/></g><g clip-path="url(#6f59623d4b)"><path fill="#4c77f6" d="M 177.503906 364.691406 L 156.445312 256.804688 L 136.976562 259.441406 L 136.796875 258.128906 L 155.75 255.558594 L 143.328125 242.097656 L 144.300781 241.199219 L 157.351562 255.339844 L 223.960938 246.308594 Z M 157.757812 256.625 L 177.933594 359.96875 L 221.902344 247.929688 Z M 157.757812 256.625 " fill-opacity="1" fill-rule="nonzero"/></g><g clip-path="url(#200b9c24bf)"><path fill="#4c77f6" d="M 274.222656 331.898438 L 273.214844 331.144531 L 124.824219 220.671875 L 125.613281 219.605469 L 272.992188 329.328125 L 275.136719 270.335938 L 290.351562 223.21875 L 346.011719 250.863281 L 328.554688 206.503906 L 367.375 223.246094 L 415.632812 289.253906 L 408.578125 217.285156 L 409.898438 217.15625 L 417.425781 293.945312 L 366.519531 224.320312 L 330.957031 208.980469 L 348.503906 253.582031 L 291.144531 225.085938 L 276.453125 270.570312 Z M 274.222656 331.898438 " fill-opacity="1" fill-rule="nonzero"/></g><path fill="#4c77f6" d="M 450.507812 284.355469 L 440.09375 244.183594 L 344.523438 253.144531 L 406.515625 214.519531 L 367.105469 224.425781 L 366.78125 223.140625 L 414.390625 211.171875 L 349.988281 251.300781 L 441.09375 242.761719 L 451.097656 281.34375 L 491.074219 227.582031 L 544.394531 127.28125 L 545.011719 127.722656 L 651.472656 204.113281 L 779.703125 174.96875 L 779.882812 175.03125 L 921.855469 223.808594 L 1022.355469 186.667969 L 1022.460938 186.664062 L 1070.101562 184.476562 L 1070.160156 185.800781 L 1022.625 187.980469 L 921.867188 225.214844 L 779.632812 176.34375 L 651.1875 205.539062 L 544.855469 129.242188 L 492.199219 228.292969 L 492.167969 228.332031 Z M 450.507812 284.355469 " fill-opacity="1" fill-rule="nonzero"/><g clip-path="url(#41ed70bb9c)"><path fill="#4c77f6" d="M 261.871094 287.410156 L 260.851562 286.566406 L 273.820312 270.875 L 121.851562 251.789062 L 122.019531 250.476562 L 271.390625 269.234375 L 221.105469 247.039062 L 290.496094 223.539062 L 331.136719 203.609375 L 276.300781 269.953125 L 280.203125 271.675781 L 275.378906 271.066406 Z M 224.753906 247.199219 L 275.042969 269.394531 L 326.191406 207.503906 L 291.003906 224.765625 L 290.964844 224.777344 Z M 224.753906 247.199219 " fill-opacity="1" fill-rule="nonzero"/></g><path fill="#4c77f6" d="M 168.605469 222.328125 C 168.605469 222.820312 168.554688 223.3125 168.460938 223.796875 C 168.363281 224.28125 168.21875 224.753906 168.03125 225.210938 C 167.839844 225.667969 167.609375 226.101562 167.335938 226.511719 C 167.058594 226.925781 166.746094 227.304688 166.398438 227.65625 C 166.046875 228.003906 165.667969 228.316406 165.253906 228.589844 C 164.84375 228.867188 164.410156 229.097656 163.953125 229.289062 C 163.496094 229.476562 163.023438 229.621094 162.539062 229.71875 C 162.054688 229.8125 161.5625 229.863281 161.070312 229.863281 C 160.574219 229.863281 160.085938 229.8125 159.597656 229.714844 C 159.113281 229.621094 158.644531 229.476562 158.1875 229.289062 C 157.730469 229.097656 157.292969 228.867188 156.882812 228.589844 C 156.472656 228.316406 156.089844 228.003906 155.742188 227.65625 C 155.390625 227.304688 155.078125 226.925781 154.804688 226.511719 C 154.53125 226.101562 154.296875 225.667969 154.109375 225.210938 C 153.917969 224.753906 153.777344 224.28125 153.679688 223.796875 C 153.582031 223.3125 153.535156 222.820312 153.535156 222.328125 C 153.535156 221.832031 153.582031 221.339844 153.679688 220.855469 C 153.777344 220.371094 153.917969 219.898438 154.109375 219.441406 C 154.296875 218.984375 154.53125 218.550781 154.804688 218.140625 C 155.078125 217.730469 155.390625 217.347656 155.742188 217 C 156.089844 216.648438 156.472656 216.335938 156.882812 216.0625 C 157.292969 215.785156 157.730469 215.554688 158.1875 215.363281 C 158.644531 215.175781 159.113281 215.03125 159.597656 214.9375 C 160.085938 214.839844 160.574219 214.792969 161.070312 214.792969 C 161.5625 214.792969 162.054688 214.839844 162.539062 214.9375 C 163.023438 215.03125 163.496094 215.175781 163.953125 215.363281 C 164.410156 215.554688 164.84375 215.785156 165.253906 216.0625 C 165.667969 216.335938 166.046875 216.648438 166.398438 217 C 166.746094 217.347656 167.058594 217.730469 167.335938 218.140625 C 167.609375 218.550781 167.839844 218.984375 168.03125 219.441406 C 168.21875 219.898438 168.363281 220.371094 168.460938 220.855469 C 168.554688 221.339844 168.605469 221.832031 168.605469 222.328125 Z M 168.605469 222.328125 " fill-opacity="1" fill-rule="nonzero"/><g clip-path="url(#98a02e80b5)"><path fill="#4c77f6" d="M 184.644531 360.628906 C 184.644531 361.058594 184.605469 361.488281 184.519531 361.910156 C 184.4375 362.332031 184.3125 362.742188 184.148438 363.140625 C 183.980469 363.539062 183.78125 363.917969 183.539062 364.273438 C 183.300781 364.632812 183.027344 364.964844 182.722656 365.269531 C 182.417969 365.574219 182.089844 365.847656 181.730469 366.085938 C 181.371094 366.324219 180.992188 366.527344 180.59375 366.691406 C 180.199219 366.855469 179.785156 366.980469 179.363281 367.066406 C 178.941406 367.148438 178.515625 367.191406 178.085938 367.191406 C 177.652344 367.191406 177.226562 367.148438 176.804688 367.066406 C 176.382812 366.980469 175.972656 366.855469 175.574219 366.691406 C 175.175781 366.527344 174.796875 366.324219 174.4375 366.085938 C 174.082031 365.847656 173.75 365.574219 173.445312 365.269531 C 173.140625 364.964844 172.867188 364.632812 172.628906 364.273438 C 172.390625 363.917969 172.1875 363.539062 172.023438 363.140625 C 171.855469 362.742188 171.734375 362.332031 171.648438 361.910156 C 171.566406 361.488281 171.523438 361.058594 171.523438 360.628906 C 171.523438 360.199219 171.566406 359.773438 171.648438 359.347656 C 171.734375 358.925781 171.855469 358.515625 172.023438 358.117188 C 172.1875 357.71875 172.390625 357.34375 172.628906 356.984375 C 172.867188 356.625 173.140625 356.292969 173.445312 355.988281 C 173.75 355.683594 174.082031 355.414062 174.4375 355.171875 C 174.796875 354.933594 175.175781 354.730469 175.574219 354.566406 C 175.972656 354.402344 176.382812 354.277344 176.804688 354.195312 C 177.226562 354.109375 177.652344 354.066406 178.085938 354.066406 C 178.515625 354.066406 178.941406 354.109375 179.363281 354.195312 C 179.785156 354.277344 180.199219 354.402344 180.59375 354.566406 C 180.992188 354.730469 181.371094 354.933594 181.730469 355.171875 C 182.089844 355.414062 182.417969 355.683594 182.722656 355.988281 C 183.027344 356.292969 183.300781 356.625 183.539062 356.984375 C 183.78125 357.34375 183.980469 357.71875 184.148438 358.117188 C 184.3125 358.515625 184.4375 358.925781 184.519531 359.347656 C 184.605469 359.773438 184.644531 360.199219 184.644531 360.628906 Z M 184.644531 360.628906 " fill-opacity="1" fill-rule="nonzero"/></g><path fill="#4c77f6" d="M 162.996094 255.773438 C 162.996094 256.148438 162.957031 256.519531 162.886719 256.886719 C 162.8125 257.253906 162.703125 257.609375 162.5625 257.957031 C 162.417969 258.304688 162.242188 258.632812 162.03125 258.945312 C 161.824219 259.257812 161.589844 259.542969 161.324219 259.808594 C 161.058594 260.074219 160.769531 260.3125 160.457031 260.519531 C 160.144531 260.726562 159.816406 260.902344 159.472656 261.046875 C 159.125 261.191406 158.769531 261.296875 158.398438 261.371094 C 158.03125 261.445312 157.660156 261.480469 157.285156 261.480469 C 156.910156 261.480469 156.539062 261.445312 156.171875 261.371094 C 155.804688 261.296875 155.449219 261.191406 155.101562 261.046875 C 154.753906 260.902344 154.425781 260.726562 154.113281 260.519531 C 153.804688 260.3125 153.515625 260.074219 153.25 259.808594 C 152.984375 259.542969 152.75 259.257812 152.539062 258.945312 C 152.332031 258.632812 152.15625 258.304688 152.011719 257.957031 C 151.867188 257.609375 151.761719 257.253906 151.6875 256.886719 C 151.613281 256.519531 151.578125 256.148438 151.578125 255.773438 C 151.578125 255.398438 151.613281 255.027344 151.6875 254.660156 C 151.761719 254.292969 151.867188 253.933594 152.011719 253.589844 C 152.15625 253.242188 152.332031 252.914062 152.539062 252.601562 C 152.75 252.289062 152.984375 252 153.25 251.734375 C 153.515625 251.472656 153.804688 251.234375 154.113281 251.027344 C 154.425781 250.816406 154.753906 250.640625 155.101562 250.5 C 155.449219 250.355469 155.804688 250.246094 156.171875 250.171875 C 156.539062 250.101562 156.910156 250.0625 157.285156 250.0625 C 157.660156 250.0625 158.03125 250.101562 158.398438 250.171875 C 158.769531 250.246094 159.125 250.355469 159.472656 250.5 C 159.816406 250.640625 160.144531 250.816406 160.457031 251.027344 C 160.769531 251.234375 161.058594 251.472656 161.324219 251.734375 C 161.589844 252 161.824219 252.289062 162.03125 252.601562 C 162.242188 252.914062 162.417969 253.242188 162.5625 253.589844 C 162.703125 253.933594 162.8125 254.292969 162.886719 254.660156 C 162.957031 255.027344 162.996094 255.398438 162.996094 255.773438 Z M 162.996094 255.773438 " fill-opacity="1" fill-rule="nonzero"/><path fill="#4c77f6" d="M 216.003906 304.238281 C 216.003906 304.75 215.953125 305.257812 215.855469 305.757812 C 215.753906 306.257812 215.605469 306.746094 215.410156 307.214844 C 215.214844 307.6875 214.976562 308.136719 214.691406 308.5625 C 214.410156 308.984375 214.085938 309.378906 213.726562 309.738281 C 213.363281 310.101562 212.972656 310.421875 212.546875 310.707031 C 212.121094 310.992188 211.671875 311.230469 211.203125 311.425781 C 210.730469 311.621094 210.242188 311.769531 209.742188 311.867188 C 209.242188 311.96875 208.734375 312.019531 208.226562 312.019531 C 207.714844 312.019531 207.207031 311.96875 206.707031 311.867188 C 206.207031 311.769531 205.71875 311.621094 205.25 311.425781 C 204.777344 311.230469 204.328125 310.992188 203.902344 310.707031 C 203.480469 310.421875 203.085938 310.101562 202.726562 309.738281 C 202.363281 309.378906 202.042969 308.984375 201.757812 308.5625 C 201.472656 308.136719 201.234375 307.6875 201.039062 307.214844 C 200.84375 306.746094 200.695312 306.257812 200.597656 305.757812 C 200.496094 305.257812 200.445312 304.75 200.445312 304.238281 C 200.445312 303.730469 200.496094 303.222656 200.597656 302.722656 C 200.695312 302.222656 200.84375 301.734375 201.039062 301.261719 C 201.234375 300.792969 201.472656 300.34375 201.757812 299.917969 C 202.042969 299.492188 202.363281 299.101562 202.726562 298.738281 C 203.085938 298.378906 203.480469 298.054688 203.902344 297.773438 C 204.328125 297.488281 204.777344 297.25 205.25 297.054688 C 205.71875 296.859375 206.207031 296.710938 206.707031 296.609375 C 207.207031 296.511719 207.714844 296.460938 208.226562 296.460938 C 208.734375 296.460938 209.242188 296.511719 209.742188 296.609375 C 210.242188 296.710938 210.730469 296.859375 211.203125 297.054688 C 211.671875 297.25 212.121094 297.488281 212.546875 297.773438 C 212.972656 298.054688 213.363281 298.378906 213.726562 298.738281 C 214.085938 299.101562 214.410156 299.492188 214.691406 299.917969 C 214.976562 300.34375 215.214844 300.792969 215.410156 301.261719 C 215.605469 301.734375 215.753906 302.222656 215.855469 302.722656 C 215.953125 303.222656 216.003906 303.730469 216.003906 304.238281 Z M 216.003906 304.238281 " fill-opacity="1" fill-rule="nonzero"/><path fill="#4c77f6" d="M 240.832031 315.097656 C 240.832031 315.523438 240.792969 315.941406 240.707031 316.355469 C 240.625 316.769531 240.503906 317.171875 240.34375 317.5625 C 240.179688 317.957031 239.980469 318.328125 239.746094 318.679688 C 239.511719 319.03125 239.246094 319.355469 238.945312 319.652344 C 238.648438 319.953125 238.320312 320.21875 237.96875 320.453125 C 237.617188 320.691406 237.246094 320.886719 236.855469 321.050781 C 236.464844 321.210938 236.0625 321.335938 235.648438 321.417969 C 235.234375 321.5 234.8125 321.539062 234.390625 321.539062 C 233.96875 321.539062 233.550781 321.5 233.136719 321.417969 C 232.71875 321.335938 232.316406 321.210938 231.925781 321.050781 C 231.535156 320.886719 231.164062 320.691406 230.8125 320.453125 C 230.460938 320.21875 230.136719 319.953125 229.835938 319.652344 C 229.539062 319.355469 229.269531 319.03125 229.035156 318.679688 C 228.800781 318.328125 228.601562 317.957031 228.441406 317.5625 C 228.277344 317.171875 228.15625 316.769531 228.074219 316.355469 C 227.992188 315.941406 227.949219 315.523438 227.949219 315.097656 C 227.949219 314.675781 227.992188 314.257812 228.074219 313.84375 C 228.15625 313.429688 228.277344 313.023438 228.441406 312.632812 C 228.601562 312.242188 228.800781 311.871094 229.035156 311.519531 C 229.269531 311.167969 229.539062 310.84375 229.835938 310.542969 C 230.136719 310.246094 230.460938 309.980469 230.8125 309.742188 C 231.164062 309.507812 231.535156 309.308594 231.925781 309.148438 C 232.316406 308.988281 232.71875 308.863281 233.136719 308.78125 C 233.550781 308.699219 233.96875 308.660156 234.390625 308.660156 C 234.8125 308.660156 235.234375 308.699219 235.648438 308.78125 C 236.0625 308.863281 236.464844 308.988281 236.855469 309.148438 C 237.246094 309.308594 237.617188 309.507812 237.96875 309.742188 C 238.320312 309.980469 238.648438 310.246094 238.945312 310.542969 C 239.246094 310.84375 239.511719 311.167969 239.746094 311.519531 C 239.980469 311.871094 240.179688 312.242188 240.34375 312.632812 C 240.503906 313.023438 240.625 313.429688 240.707031 313.84375 C 240.792969 314.257812 240.832031 314.675781 240.832031 315.097656 Z M 240.832031 315.097656 " fill-opacity="1" fill-rule="nonzero"/><path fill="#4c77f6" d="M 232.53125 249.183594 C 232.53125 249.847656 232.464844 250.503906 232.335938 251.152344 C 232.207031 251.800781 232.015625 252.433594 231.761719 253.046875 C 231.507812 253.65625 231.199219 254.238281 230.828125 254.789062 C 230.460938 255.339844 230.042969 255.847656 229.574219 256.316406 C 229.105469 256.785156 228.597656 257.203125 228.046875 257.570312 C 227.496094 257.941406 226.914062 258.25 226.300781 258.503906 C 225.691406 258.757812 225.058594 258.949219 224.410156 259.078125 C 223.761719 259.207031 223.105469 259.273438 222.441406 259.273438 C 221.78125 259.273438 221.125 259.207031 220.472656 259.078125 C 219.824219 258.949219 219.195312 258.757812 218.582031 258.503906 C 217.96875 258.25 217.390625 257.941406 216.839844 257.570312 C 216.289062 257.203125 215.777344 256.785156 215.308594 256.316406 C 214.839844 255.847656 214.421875 255.339844 214.054688 254.789062 C 213.6875 254.238281 213.375 253.65625 213.125 253.046875 C 212.871094 252.433594 212.679688 251.800781 212.550781 251.152344 C 212.421875 250.503906 212.355469 249.847656 212.355469 249.183594 C 212.355469 248.523438 212.421875 247.867188 212.550781 247.21875 C 212.679688 246.566406 212.871094 245.9375 213.125 245.324219 C 213.375 244.714844 213.6875 244.132812 214.054688 243.582031 C 214.421875 243.03125 214.839844 242.519531 215.308594 242.050781 C 215.777344 241.585938 216.289062 241.164062 216.839844 240.796875 C 217.390625 240.429688 217.96875 240.121094 218.582031 239.867188 C 219.195312 239.613281 219.824219 239.421875 220.472656 239.292969 C 221.125 239.164062 221.78125 239.097656 222.441406 239.097656 C 223.105469 239.097656 223.761719 239.164062 224.410156 239.292969 C 225.058594 239.421875 225.691406 239.613281 226.300781 239.867188 C 226.914062 240.121094 227.496094 240.429688 228.046875 240.796875 C 228.597656 241.164062 229.105469 241.585938 229.574219 242.050781 C 230.042969 242.519531 230.460938 243.03125 230.828125 243.582031 C 231.199219 244.132812 231.507812 244.714844 231.761719 245.324219 C 232.015625 245.9375 232.207031 246.566406 232.335938 247.21875 C 232.464844 247.867188 232.53125 248.523438 232.53125 249.183594 Z M 232.53125 249.183594 " fill-opacity="1" fill-rule="nonzero"/><path fill="#4c77f6" d="M 281.875 272.035156 C 281.875 272.441406 281.832031 272.84375 281.753906 273.242188 C 281.675781 273.640625 281.558594 274.03125 281.402344 274.40625 C 281.246094 274.78125 281.054688 275.140625 280.828125 275.476562 C 280.601562 275.816406 280.34375 276.128906 280.058594 276.417969 C 279.769531 276.703125 279.457031 276.960938 279.117188 277.1875 C 278.78125 277.414062 278.421875 277.605469 278.046875 277.761719 C 277.671875 277.914062 277.285156 278.035156 276.882812 278.113281 C 276.484375 278.191406 276.082031 278.230469 275.675781 278.230469 C 275.269531 278.230469 274.867188 278.191406 274.464844 278.113281 C 274.066406 278.035156 273.679688 277.914062 273.304688 277.761719 C 272.925781 277.605469 272.570312 277.414062 272.230469 277.1875 C 271.894531 276.960938 271.582031 276.703125 271.292969 276.417969 C 271.003906 276.128906 270.75 275.816406 270.523438 275.476562 C 270.296875 275.140625 270.105469 274.78125 269.949219 274.40625 C 269.792969 274.03125 269.675781 273.640625 269.597656 273.242188 C 269.515625 272.84375 269.476562 272.441406 269.476562 272.035156 C 269.476562 271.628906 269.515625 271.222656 269.597656 270.824219 C 269.675781 270.425781 269.792969 270.039062 269.949219 269.664062 C 270.105469 269.285156 270.296875 268.929688 270.523438 268.589844 C 270.75 268.253906 271.003906 267.9375 271.292969 267.652344 C 271.582031 267.363281 271.894531 267.105469 272.230469 266.878906 C 272.570312 266.65625 272.925781 266.464844 273.304688 266.308594 C 273.679688 266.152344 274.066406 266.035156 274.464844 265.957031 C 274.867188 265.875 275.269531 265.835938 275.675781 265.835938 C 276.082031 265.835938 276.484375 265.875 276.882812 265.957031 C 277.285156 266.035156 277.671875 266.152344 278.046875 266.308594 C 278.421875 266.464844 278.78125 266.65625 279.117188 266.878906 C 279.457031 267.105469 279.769531 267.363281 280.058594 267.652344 C 280.34375 267.9375 280.601562 268.253906 280.828125 268.589844 C 281.054688 268.929688 281.246094 269.285156 281.402344 269.664062 C 281.558594 270.039062 281.675781 270.425781 281.753906 270.824219 C 281.832031 271.222656 281.875 271.628906 281.875 272.035156 Z M 281.875 272.035156 " fill-opacity="1" fill-rule="nonzero"/><path fill="#4c77f6" d="M 297.308594 222.996094 C 297.308594 223.445312 297.261719 223.890625 297.175781 224.335938 C 297.085938 224.777344 296.957031 225.207031 296.785156 225.621094 C 296.613281 226.039062 296.402344 226.433594 296.148438 226.808594 C 295.898438 227.183594 295.613281 227.53125 295.296875 227.851562 C 294.976562 228.167969 294.628906 228.453125 294.253906 228.703125 C 293.878906 228.953125 293.484375 229.167969 293.070312 229.339844 C 292.652344 229.511719 292.222656 229.640625 291.78125 229.730469 C 291.339844 229.816406 290.890625 229.863281 290.441406 229.863281 C 289.988281 229.863281 289.542969 229.816406 289.101562 229.730469 C 288.660156 229.640625 288.230469 229.511719 287.8125 229.339844 C 287.398438 229.167969 287 228.953125 286.625 228.703125 C 286.25 228.453125 285.90625 228.167969 285.585938 227.851562 C 285.265625 227.53125 284.980469 227.183594 284.730469 226.808594 C 284.480469 226.433594 284.269531 226.039062 284.097656 225.621094 C 283.925781 225.207031 283.792969 224.777344 283.707031 224.335938 C 283.617188 223.890625 283.574219 223.445312 283.574219 222.996094 C 283.574219 222.542969 283.617188 222.097656 283.707031 221.65625 C 283.792969 221.214844 283.925781 220.785156 284.097656 220.367188 C 284.269531 219.949219 284.480469 219.554688 284.730469 219.179688 C 284.980469 218.804688 285.265625 218.457031 285.585938 218.140625 C 285.90625 217.820312 286.25 217.535156 286.625 217.285156 C 287 217.035156 287.398438 216.824219 287.8125 216.652344 C 288.230469 216.480469 288.660156 216.347656 289.101562 216.261719 C 289.542969 216.171875 289.988281 216.128906 290.441406 216.128906 C 290.890625 216.128906 291.339844 216.171875 291.78125 216.261719 C 292.222656 216.347656 292.652344 216.480469 293.070312 216.652344 C 293.484375 216.824219 293.878906 217.035156 294.253906 217.285156 C 294.628906 217.535156 294.976562 217.820312 295.296875 218.140625 C 295.613281 218.457031 295.898438 218.804688 296.148438 219.179688 C 296.402344 219.554688 296.613281 219.949219 296.785156 220.367188 C 296.957031 220.785156 297.085938 221.214844 297.175781 221.65625 C 297.261719 222.097656 297.308594 222.542969 297.308594 222.996094 Z M 297.308594 222.996094 " fill-opacity="1" fill-rule="nonzero"/><path fill="#4c77f6" d="M 335.589844 206.042969 C 335.589844 206.488281 335.542969 206.929688 335.457031 207.371094 C 335.371094 207.808594 335.242188 208.234375 335.070312 208.644531 C 334.898438 209.058594 334.6875 209.449219 334.441406 209.820312 C 334.191406 210.195312 333.910156 210.539062 333.59375 210.851562 C 333.277344 211.167969 332.933594 211.453125 332.5625 211.699219 C 332.191406 211.949219 331.800781 212.15625 331.386719 212.328125 C 330.972656 212.5 330.546875 212.628906 330.109375 212.714844 C 329.671875 212.804688 329.230469 212.847656 328.78125 212.847656 C 328.335938 212.847656 327.894531 212.804688 327.457031 212.714844 C 327.015625 212.628906 326.589844 212.5 326.179688 212.328125 C 325.765625 212.15625 325.375 211.949219 325.003906 211.699219 C 324.628906 211.453125 324.285156 211.167969 323.972656 210.851562 C 323.65625 210.539062 323.371094 210.195312 323.125 209.824219 C 322.875 209.449219 322.667969 209.058594 322.496094 208.644531 C 322.324219 208.234375 322.195312 207.808594 322.109375 207.371094 C 322.023438 206.929688 321.976562 206.488281 321.976562 206.042969 C 321.976562 205.59375 322.023438 205.152344 322.109375 204.714844 C 322.195312 204.277344 322.324219 203.851562 322.496094 203.4375 C 322.667969 203.023438 322.875 202.632812 323.125 202.261719 C 323.371094 201.890625 323.65625 201.546875 323.972656 201.230469 C 324.285156 200.914062 324.628906 200.632812 325.003906 200.382812 C 325.375 200.136719 325.765625 199.925781 326.179688 199.753906 C 326.589844 199.582031 327.015625 199.453125 327.457031 199.367188 C 327.894531 199.28125 328.335938 199.238281 328.78125 199.238281 C 329.230469 199.238281 329.671875 199.28125 330.109375 199.367188 C 330.546875 199.453125 330.972656 199.582031 331.386719 199.753906 C 331.800781 199.925781 332.191406 200.136719 332.5625 200.382812 C 332.933594 200.632812 333.277344 200.914062 333.59375 201.230469 C 333.910156 201.546875 334.191406 201.890625 334.441406 202.261719 C 334.6875 202.632812 334.898438 203.023438 335.070312 203.4375 C 335.242188 203.851562 335.371094 204.277344 335.457031 204.714844 C 335.542969 205.152344 335.589844 205.59375 335.589844 206.042969 Z M 335.589844 206.042969 " fill-opacity="1" fill-rule="nonzero"/><path fill="#4c77f6" d="M 357.972656 250.289062 C 357.972656 251.023438 357.898438 251.75 357.757812 252.472656 C 357.613281 253.191406 357.402344 253.890625 357.121094 254.570312 C 356.839844 255.25 356.492188 255.894531 356.085938 256.503906 C 355.675781 257.117188 355.214844 257.683594 354.695312 258.203125 C 354.175781 258.722656 353.609375 259.183594 352.996094 259.59375 C 352.386719 260 351.742188 260.347656 351.0625 260.628906 C 350.382812 260.910156 349.683594 261.121094 348.964844 261.265625 C 348.242188 261.40625 347.515625 261.480469 346.78125 261.480469 C 346.046875 261.480469 345.320312 261.40625 344.597656 261.265625 C 343.878906 261.121094 343.175781 260.910156 342.5 260.628906 C 341.820312 260.347656 341.175781 260 340.5625 259.59375 C 339.953125 259.183594 339.386719 258.722656 338.867188 258.203125 C 338.347656 257.683594 337.882812 257.117188 337.476562 256.503906 C 337.066406 255.894531 336.722656 255.25 336.441406 254.570312 C 336.160156 253.890625 335.949219 253.191406 335.804688 252.472656 C 335.660156 251.75 335.589844 251.023438 335.589844 250.289062 C 335.589844 249.554688 335.660156 248.824219 335.804688 248.105469 C 335.949219 247.382812 336.160156 246.683594 336.441406 246.007812 C 336.722656 245.328125 337.066406 244.683594 337.476562 244.070312 C 337.882812 243.460938 338.347656 242.894531 338.867188 242.375 C 339.386719 241.855469 339.953125 241.390625 340.5625 240.984375 C 341.175781 240.574219 341.820312 240.230469 342.5 239.949219 C 343.175781 239.667969 343.878906 239.457031 344.597656 239.3125 C 345.320312 239.167969 346.046875 239.097656 346.78125 239.097656 C 347.515625 239.097656 348.242188 239.167969 348.964844 239.3125 C 349.683594 239.457031 350.382812 239.667969 351.0625 239.949219 C 351.742188 240.230469 352.386719 240.574219 352.996094 240.984375 C 353.609375 241.390625 354.175781 241.855469 354.695312 242.375 C 355.214844 242.894531 355.675781 243.460938 356.085938 244.070312 C 356.492188 244.683594 356.839844 245.328125 357.121094 246.007812 C 357.402344 246.683594 357.613281 247.382812 357.757812 248.105469 C 357.898438 248.824219 357.972656 249.554688 357.972656 250.289062 Z M 357.972656 250.289062 " fill-opacity="1" fill-rule="nonzero"/><path fill="#4c77f6" d="M 264.882812 173.933594 C 264.882812 174.316406 264.84375 174.699219 264.769531 175.074219 C 264.695312 175.449219 264.585938 175.8125 264.4375 176.167969 C 264.292969 176.519531 264.113281 176.859375 263.898438 177.175781 C 263.6875 177.496094 263.445312 177.789062 263.171875 178.058594 C 262.902344 178.332031 262.609375 178.574219 262.289062 178.785156 C 261.96875 179 261.632812 179.179688 261.28125 179.324219 C 260.925781 179.472656 260.5625 179.582031 260.1875 179.65625 C 259.808594 179.730469 259.429688 179.769531 259.046875 179.769531 C 258.664062 179.769531 258.285156 179.730469 257.910156 179.65625 C 257.535156 179.582031 257.167969 179.472656 256.816406 179.324219 C 256.460938 179.179688 256.125 179 255.808594 178.785156 C 255.488281 178.574219 255.195312 178.332031 254.921875 178.058594 C 254.652344 177.789062 254.410156 177.496094 254.195312 177.175781 C 253.984375 176.859375 253.804688 176.519531 253.65625 176.167969 C 253.511719 175.8125 253.402344 175.449219 253.324219 175.074219 C 253.25 174.699219 253.214844 174.316406 253.214844 173.933594 C 253.214844 173.550781 253.25 173.171875 253.324219 172.796875 C 253.402344 172.421875 253.511719 172.054688 253.65625 171.703125 C 253.804688 171.347656 253.984375 171.011719 254.195312 170.695312 C 254.410156 170.375 254.652344 170.082031 254.921875 169.808594 C 255.195312 169.539062 255.488281 169.296875 255.808594 169.085938 C 256.125 168.871094 256.460938 168.691406 256.816406 168.546875 C 257.167969 168.398438 257.535156 168.289062 257.910156 168.214844 C 258.285156 168.136719 258.664062 168.101562 259.046875 168.101562 C 259.429688 168.101562 259.808594 168.136719 260.1875 168.214844 C 260.5625 168.289062 260.925781 168.398438 261.28125 168.546875 C 261.632812 168.691406 261.96875 168.871094 262.289062 169.085938 C 262.609375 169.296875 262.902344 169.539062 263.171875 169.808594 C 263.445312 170.082031 263.6875 170.375 263.898438 170.695312 C 264.113281 171.011719 264.292969 171.347656 264.4375 171.703125 C 264.585938 172.054688 264.695312 172.421875 264.769531 172.796875 C 264.84375 173.171875 264.882812 173.550781 264.882812 173.933594 Z M 264.882812 173.933594 " fill-opacity="1" fill-rule="nonzero"/><path fill="#4c77f6" d="M 370.835938 150.5 C 370.835938 150.84375 370.800781 151.183594 370.734375 151.519531 C 370.667969 151.855469 370.566406 152.183594 370.4375 152.5 C 370.304688 152.816406 370.144531 153.117188 369.953125 153.402344 C 369.761719 153.6875 369.546875 153.953125 369.304688 154.195312 C 369.0625 154.4375 368.796875 154.65625 368.511719 154.847656 C 368.226562 155.035156 367.925781 155.199219 367.609375 155.328125 C 367.292969 155.460938 366.964844 155.558594 366.628906 155.625 C 366.292969 155.691406 365.953125 155.726562 365.609375 155.726562 C 365.265625 155.726562 364.925781 155.691406 364.589844 155.625 C 364.25 155.558594 363.925781 155.460938 363.609375 155.328125 C 363.289062 155.199219 362.988281 155.035156 362.703125 154.847656 C 362.417969 154.65625 362.15625 154.4375 361.914062 154.195312 C 361.667969 153.953125 361.453125 153.6875 361.261719 153.402344 C 361.070312 153.117188 360.910156 152.816406 360.78125 152.5 C 360.648438 152.183594 360.550781 151.855469 360.480469 151.519531 C 360.414062 151.183594 360.382812 150.84375 360.382812 150.5 C 360.382812 150.15625 360.414062 149.816406 360.480469 149.480469 C 360.550781 149.144531 360.648438 148.816406 360.78125 148.5 C 360.910156 148.183594 361.070312 147.882812 361.261719 147.597656 C 361.453125 147.3125 361.667969 147.046875 361.914062 146.804688 C 362.15625 146.5625 362.417969 146.34375 362.703125 146.15625 C 362.988281 145.964844 363.289062 145.800781 363.609375 145.671875 C 363.925781 145.539062 364.25 145.441406 364.589844 145.375 C 364.925781 145.308594 365.265625 145.273438 365.609375 145.273438 C 365.953125 145.273438 366.292969 145.308594 366.628906 145.375 C 366.964844 145.441406 367.292969 145.539062 367.609375 145.671875 C 367.925781 145.800781 368.226562 145.964844 368.511719 146.15625 C 368.796875 146.34375 369.0625 146.5625 369.304688 146.804688 C 369.546875 147.046875 369.761719 147.3125 369.953125 147.597656 C 370.144531 147.882812 370.304688 148.183594 370.4375 148.5 C 370.566406 148.816406 370.667969 149.144531 370.734375 149.480469 C 370.800781 149.816406 370.835938 150.15625 370.835938 150.5 Z M 370.835938 150.5 " fill-opacity="1" fill-rule="nonzero"/><path fill="#4c77f6" d="M 372.535156 224.148438 C 372.535156 224.460938 372.503906 224.769531 372.445312 225.074219 C 372.382812 225.378906 372.292969 225.675781 372.175781 225.960938 C 372.054688 226.25 371.910156 226.523438 371.738281 226.78125 C 371.5625 227.039062 371.367188 227.28125 371.148438 227.5 C 370.929688 227.71875 370.6875 227.917969 370.429688 228.089844 C 370.171875 228.261719 369.898438 228.40625 369.609375 228.527344 C 369.324219 228.644531 369.027344 228.734375 368.722656 228.796875 C 368.414062 228.859375 368.105469 228.886719 367.796875 228.886719 C 367.484375 228.886719 367.175781 228.859375 366.871094 228.796875 C 366.566406 228.734375 366.269531 228.644531 365.980469 228.527344 C 365.695312 228.40625 365.421875 228.261719 365.164062 228.089844 C 364.902344 227.917969 364.664062 227.71875 364.445312 227.5 C 364.222656 227.28125 364.027344 227.039062 363.855469 226.78125 C 363.683594 226.523438 363.535156 226.25 363.417969 225.960938 C 363.296875 225.675781 363.207031 225.378906 363.148438 225.074219 C 363.085938 224.769531 363.054688 224.460938 363.054688 224.148438 C 363.054688 223.835938 363.085938 223.527344 363.148438 223.222656 C 363.207031 222.917969 363.296875 222.621094 363.417969 222.335938 C 363.535156 222.046875 363.683594 221.773438 363.855469 221.515625 C 364.027344 221.257812 364.222656 221.015625 364.445312 220.796875 C 364.664062 220.578125 364.902344 220.378906 365.164062 220.207031 C 365.421875 220.035156 365.695312 219.886719 365.980469 219.769531 C 366.269531 219.648438 366.566406 219.558594 366.871094 219.5 C 367.175781 219.4375 367.484375 219.410156 367.796875 219.410156 C 368.105469 219.410156 368.414062 219.4375 368.722656 219.5 C 369.027344 219.558594 369.324219 219.648438 369.609375 219.769531 C 369.898438 219.886719 370.171875 220.035156 370.429688 220.207031 C 370.6875 220.378906 370.929688 220.578125 371.148438 220.796875 C 371.367188 221.015625 371.5625 221.257812 371.738281 221.515625 C 371.910156 221.773438 372.054688 222.046875 372.175781 222.335938 C 372.292969 222.621094 372.382812 222.917969 372.445312 223.222656 C 372.503906 223.527344 372.535156 223.835938 372.535156 224.148438 Z M 372.535156 224.148438 " fill-opacity="1" fill-rule="nonzero"/><path fill="#ffbd59" d="M 108.046875 309.554688 C 77.6875 226.210938 169.957031 123.472656 259.695312 149.875 C 272.921875 153.765625 284.714844 154.925781 288.410156 145.339844 C 291.371094 137.652344 315.863281 145.210938 310.765625 137.816406 C 304.652344 128.9375 276.21875 120.40625 263.296875 118.285156 C 154.976562 100.5 64.019531 212.414062 108.046875 309.554688 Z M 108.046875 309.554688 " fill-opacity="1" fill-rule="evenodd"/><path fill="#ffbd59" d="M 89.867188 222.789062 C 71.890625 224.378906 60.703125 215.273438 47.761719 208.957031 C 11.59375 191.300781 -29 214.511719 39.441406 227.636719 C 64.082031 232.363281 91.710938 233.472656 89.867188 222.789062 Z M 93.988281 300.3125 C 79.214844 310.679688 66.160156 311.167969 53.453125 314.847656 C 20.074219 324.515625 -4.597656 367.210938 53.796875 332.328125 C 79.351562 317.0625 101.207031 302.375 93.988281 300.3125 Z M 267.664062 107.144531 C 266.074219 89.167969 278.386719 77.605469 287.207031 64.101562 C 309.125 30.558594 301.566406 -9.117188 270.769531 56.386719 C 260.828125 77.53125 252.328125 100.980469 267.664062 107.144531 Z M 186.601562 106.757812 C 177.109375 92.457031 189.554688 74.265625 191.757812 59.402344 C 197.953125 17.644531 175.542969 -22.226562 170.183594 55.363281 C 168.1875 84.277344 174.804688 105.652344 186.601562 106.757812 Z M 125.0625 153.589844 C 114.554688 146.550781 106.648438 129.988281 94.394531 114.433594 C 60.753906 71.722656 14.003906 69.679688 76.085938 122.65625 C 104.804688 147.164062 114.945312 158.503906 125.0625 153.589844 Z M 125.0625 153.589844 " fill-opacity="1" fill-rule="evenodd"/><path fill="#e3e2e3" d="M 129.175781 211.089844 C 113.171875 235.347656 106.375 262.800781 108.046875 288.808594 C 109.167969 264.539062 117.050781 239.335938 132.125 216.488281 C 155.625 180.871094 191.253906 159.054688 226.953125 154.5 C 189.828125 155.65625 152.523438 175.703125 129.175781 211.089844 Z M 129.175781 211.089844 " fill-opacity="1" fill-rule="evenodd"/></svg>